<svg width="59" height="59" viewBox="0 0 59 59" fill="none" xmlns="http://www.w3.org/2000/svg">
<path d="M26.18 10.02H15.3V57.52H26.18C27.59 57.52 28.75 56.36 28.75 54.95V12.58C28.75 11.17 27.59 10.02 26.18 10.02Z" fill="#556173"/>
<path d="M3.48 10.02C2.07 10.02 0.910004 11.17 0.910004 12.59V54.96C0.910004 56.37 2.07 57.53 3.48 57.53H15.3V10.03H3.48V10.02Z" fill="#47505E"/>
<path d="M5.73 15C5.33 15 5 15.33 5 15.73V30.79C5 31.19 5.33 31.52 5.73 31.52H15.44V15H5.73Z" fill="#00CF8E"/>
<path d="M24.07 14.65H15.3V31.17H24.07C24.47 31.17 24.8 30.84 24.8 30.44V15.38C24.81 14.98 24.48 14.65 24.07 14.65Z" fill="#05DC98"/>
<path d="M10.48 34.27H5.70001C5.60001 34.27 5.51001 34.36 5.51001 34.46V38.35C5.51001 38.45 5.59001 38.54 5.70001 38.54H10.48C10.58 38.54 10.67 38.46 10.67 38.35V34.46C10.67 34.35 10.58 34.27 10.48 34.27Z" fill="#E6E7E8"/>
<path d="M17.22 34.27H12.44C12.34 34.27 12.25 34.36 12.25 34.46V38.35C12.25 38.45 12.34 38.54 12.44 38.54H17.22C17.32 38.54 17.41 38.46 17.41 38.35V34.46C17.41 34.35 17.33 34.27 17.22 34.27Z" fill="#E6E7E8"/>
<path d="M23.96 34.27H19.18C19.08 34.27 18.99 34.36 18.99 34.46V38.35C18.99 38.45 19.08 38.54 19.18 38.54H23.96C24.06 38.54 24.15 38.46 24.15 38.35V34.46C24.15 34.35 24.07 34.27 23.96 34.27Z" fill="#E6E7E8"/>
<path d="M10.48 39.75H5.70001C5.60001 39.75 5.51001 39.84 5.51001 39.94V43.83C5.51001 43.93 5.59001 44.02 5.70001 44.02H10.48C10.58 44.02 10.67 43.94 10.67 43.83V39.94C10.67 39.84 10.58 39.75 10.48 39.75Z" fill="#E6E7E8"/>
<path d="M17.22 39.75H12.44C12.34 39.75 12.25 39.84 12.25 39.94V43.83C12.25 43.93 12.34 44.02 12.44 44.02H17.22C17.32 44.02 17.41 43.94 17.41 43.83V39.94C17.41 39.84 17.33 39.75 17.22 39.75Z" fill="#E6E7E8"/>
<path d="M23.96 39.75H19.18C19.08 39.75 18.99 39.84 18.99 39.94V43.83C18.99 43.93 19.08 44.02 19.18 44.02H23.96C24.06 44.02 24.15 43.94 24.15 43.83V39.94C24.15 39.84 24.07 39.75 23.96 39.75Z" fill="#E6E7E8"/>
<path d="M10.48 45.24H5.70001C5.60001 45.24 5.51001 45.33 5.51001 45.43V49.32C5.51001 49.42 5.59001 49.51 5.70001 49.51H10.48C10.58 49.51 10.67 49.42 10.67 49.32V45.43C10.67 45.32 10.58 45.24 10.48 45.24Z" fill="#E6E7E8"/>
<path d="M17.22 45.24H12.44C12.34 45.24 12.25 45.33 12.25 45.43V49.32C12.25 49.42 12.34 49.51 12.44 49.51H17.22C17.32 49.51 17.41 49.42 17.41 49.32V45.43C17.41 45.32 17.33 45.24 17.22 45.24Z" fill="#E6E7E8"/>
<path d="M23.96 45.24H19.18C19.08 45.24 18.99 45.33 18.99 45.43V49.32C18.99 49.42 19.08 49.51 19.18 49.51H23.96C24.06 49.51 24.15 49.42 24.15 49.32V45.43C24.15 45.32 24.07 45.24 23.96 45.24Z" fill="#E6E7E8"/>
<path d="M10.48 50.73H5.70001C5.60001 50.73 5.51001 50.82 5.51001 50.92V54.81C5.51001 54.91 5.59001 55 5.70001 55H10.48C10.58 55 10.67 54.91 10.67 54.81V50.92C10.67 50.81 10.58 50.73 10.48 50.73Z" fill="#EB4747"/>
<path d="M17.22 50.73H12.44C12.34 50.73 12.25 50.82 12.25 50.92V54.81C12.25 54.91 12.34 55 12.44 55H17.22C17.32 55 17.41 54.91 17.41 54.81V50.92C17.41 50.81 17.33 50.73 17.22 50.73Z" fill="#E6E7E8"/>
<path d="M23.96 50.73H19.18C19.08 50.73 18.99 50.82 18.99 50.92V54.81C18.99 54.91 19.08 55 19.18 55H23.96C24.06 55 24.15 54.91 24.15 54.81V50.92C24.15 50.81 24.07 50.73 23.96 50.73Z" fill="#20B7EA"/>
<path d="M24.4 0.710007H5.32999V10.02H24.4V0.710007Z" fill="#E6E7E8"/>
<path d="M23.45 2.07001H6.42001V3.52H23.45V2.07001Z" fill="#C4CACC"/>
<path d="M23.45 4.78H6.42001V6.23H23.45V4.78Z" fill="#C4CACC"/>
<path d="M23.45 7.48H6.42001V8.92999H23.45V7.48Z" fill="#C4CACC"/>
<path d="M45.19 27.99C45.19 27.99 40.5 21.29 30.33 21.71C31.52 22.62 33.25 23.98 35.29 25.71C38.3 28.26 38.64 28.78 38.87 29.34C40.26 32.63 37.04 36.99 38.59 36.87C39.06 36.83 43.99 35.53 43.99 35.53L45.19 27.99Z" fill="#D8A27D"/>
<path d="M50.57 35.06L48.9 28.6C48.89 28.21 48.73 27.83 48.45 27.55L41.91 20.73C41.65 20.46 41.31 20.29 40.95 20.25C40.95 20.25 31.55 19.81 29.99 20.25C29.18 20.48 28.51 21.49 28.9 22.32C29.31 23.21 30.8 23.23 31.6 23.46C32.45 23.71 33.33 23.8 34.22 23.92C35.6 24.1 36.99 24.29 38.37 24.47C38.91 24.54 39.38 24.89 39.61 25.38L41.24 28.88C41.5 29.45 41.42 30.12 41.01 30.6L40.11 31.66C39.79 32.04 39.32 32.24 38.84 32.23C38.64 32.22 38.44 32.18 38.24 32.1L37.09 31.6C36.8 31.48 36.56 31.27 36.39 31.01C36.16 30.66 35.93 30.31 35.71 29.96C34.92 28.76 34.08 27.59 33.24 26.43C32.62 25.58 32.19 24.6 31.41 23.87C30.96 23.45 30.63 23.26 29.98 23.36C29.43 23.45 28.88 23.74 28.49 24.1C28.25 24.32 28.05 24.61 27.94 24.93C27.85 25.2 28.03 25.27 28.1 25.55C28.17 25.83 28.92 27.27 29.12 27.64C31.72 32.43 33.86 38.76 33.86 38.76C33.94 38.96 34.05 39.15 34.2 39.3L38.06 44.19C38.56 44.71 41.28 48.91 41.91 48.57L50.98 41.29C51.54 40.98 50.6 35.67 50.57 35.06Z" fill="#EAB38B"/>
<path d="M48.9 28.59C48.89 28.2 48.73 27.82 48.45 27.54L41.91 20.72C41.65 20.45 41.31 20.28 40.95 20.24C40.95 20.24 31.55 19.8 29.99 20.24C29.18 20.47 28.51 21.48 28.9 22.31C29.31 23.2 30.8 23.22 31.6 23.45C32.45 23.7 33.33 23.79 34.22 23.91C35.6 24.09 36.99 24.28 38.37 24.46C38.91 24.53 39.38 24.88 39.61 25.37L41.24 28.87C41.5 29.44 41.42 30.11 41.01 30.59L40.11 31.65C39.79 32.03 39.32 32.23 38.84 32.22L41.97 44.59L50.98 41.27C51.52 40.98 50.58 35.66 50.55 35.05L48.9 28.59Z" fill="#EAB38B"/>
<path d="M26.99 38.98H36C36.8 38.98 37.46 38.32 37.46 37.52V11.92C37.46 11.12 36.8 10.46 36 10.46H26.99V38.98Z" fill="#F6773D"/>
<path d="M21.56 10.45C20.76 10.45 20.1 11.11 20.1 11.91V37.51C20.1 38.31 20.76 38.97 21.56 38.97H25.56V10.44H21.56V10.45Z" fill="#1587B5"/>
<path d="M26.99 10.45H25.57V38.98H26.99V10.45Z" fill="#CADFEA"/>
<path d="M23.16 16.48C24.28 16.48 25.19 15.59 25.22 14.47H21.1C21.14 15.59 22.04 16.48 23.16 16.48Z" fill="#E1F1FF"/>
<path d="M21.09 14.41C21.09 14.43 21.1 14.45 21.1 14.47H25.22C25.22 14.45 25.23 14.43 25.23 14.41C25.23 13.27 24.3 12.34 23.16 12.34C22.02 12.34 21.09 13.27 21.09 14.41Z" fill="#CADFEA"/>
<path d="M35.57 12.89H33.22V22.89H35.57V12.89Z" fill="#CADFEA"/>
<path d="M31.25 37.73V37.27H29.64V37.62H29.55C29.52 37.46 29.48 37.34 29.43 37.25V37.14H31.26V36.72H31.38V37.74H31.25V37.73Z" fill="#434444"/>
<path d="M31.28 36.4C30.63 35.76 30.27 35.44 29.93 35.44C29.69 35.44 29.5 35.57 29.5 35.86C29.5 36.04 29.61 36.2 29.75 36.31L29.67 36.4C29.51 36.25 29.38 36.08 29.38 35.85C29.38 35.5 29.6 35.3 29.92 35.3C30.31 35.3 30.68 35.65 31.25 36.19C31.24 36.08 31.24 35.97 31.24 35.86V35.2H31.36V36.39H31.28V36.4Z" fill="#434444"/>
<path d="M31.03 34.9C31.16 34.78 31.28 34.63 31.28 34.36C31.28 34.1 31.11 33.91 30.85 33.91C30.58 33.91 30.4 34.1 30.4 34.59H30.28C30.28 34.14 30.09 33.98 29.86 33.98C29.64 33.98 29.5 34.14 29.5 34.37C29.5 34.55 29.59 34.7 29.71 34.82L29.62 34.9C29.49 34.77 29.38 34.6 29.38 34.37C29.38 34.07 29.55 33.84 29.85 33.84C30.11 33.84 30.26 34 30.33 34.21H30.34C30.39 33.97 30.57 33.77 30.84 33.77C31.18 33.77 31.39 34.03 31.39 34.36C31.39 34.67 31.25 34.85 31.12 34.98L31.03 34.9Z" fill="#434444"/>
<path d="M30.78 32.25V32.54H31.36V32.67H30.78V33.56H30.7L29.42 32.66V32.54H30.67V32.25H30.78ZM30.67 32.67H29.96C29.87 32.67 29.71 32.66 29.63 32.66V32.67C29.71 32.72 29.79 32.77 29.87 32.83L30.67 33.4V32.67Z" fill="#434444"/>
<path d="M31.04 30.79C31.16 30.67 31.28 30.52 31.28 30.26C31.28 30 31.07 29.78 30.76 29.78C30.45 29.78 30.26 29.97 30.26 30.25C30.26 30.4 30.31 30.5 30.39 30.61L30.33 30.7L29.42 30.63V29.73H29.54V30.51L30.24 30.57C30.18 30.47 30.14 30.37 30.14 30.22C30.14 29.89 30.33 29.63 30.75 29.63C31.16 29.63 31.4 29.94 31.4 30.25C31.4 30.56 31.26 30.74 31.14 30.86L31.04 30.79Z" fill="#434444"/>
<path d="M29.66 28.28C29.55 28.37 29.5 28.48 29.5 28.61C29.5 28.92 29.74 29.18 30.46 29.19C30.3 29.06 30.19 28.88 30.19 28.7C30.19 28.36 30.4 28.16 30.79 28.16C31.14 28.16 31.4 28.4 31.4 28.69C31.4 29.08 31.07 29.33 30.48 29.33C29.66 29.33 29.38 28.99 29.38 28.62C29.38 28.44 29.46 28.31 29.57 28.21L29.66 28.28ZM30.79 28.29C30.51 28.29 30.3 28.41 30.3 28.71C30.3 28.85 30.38 29.02 30.59 29.18C31 29.16 31.28 29 31.28 28.68C31.29 28.46 31.07 28.29 30.79 28.29Z" fill="#434444"/>
<path d="M29.54 26.87V27.9H29.42V26.7H29.5C30.12 27.17 30.6 27.28 31.36 27.31V27.46C30.58 27.42 30.09 27.26 29.54 26.87Z" fill="#434444"/>
<path d="M30.32 26.06H30.31C30.22 26.2 30.07 26.34 29.86 26.34C29.58 26.34 29.39 26.11 29.39 25.83C29.39 25.5 29.61 25.3 29.9 25.3C30.11 25.3 30.3 25.46 30.39 25.58H30.4C30.5 25.41 30.63 25.24 30.9 25.24C31.18 25.24 31.41 25.48 31.41 25.83C31.41 26.19 31.18 26.45 30.87 26.45C30.6 26.45 30.42 26.24 30.32 26.06ZM31.29 25.83C31.29 25.56 31.11 25.38 30.89 25.38C30.59 25.38 30.49 25.67 30.37 25.97C30.49 26.17 30.65 26.31 30.86 26.31C31.1 26.31 31.29 26.11 31.29 25.83ZM29.9 25.43C29.68 25.43 29.5 25.58 29.5 25.83C29.5 26.05 29.65 26.2 29.86 26.2C30.14 26.2 30.25 25.94 30.35 25.68C30.21 25.52 30.06 25.43 29.9 25.43Z" fill="#434444"/>
<path d="M31.25 23.64V23.18H29.64V23.53H29.55C29.52 23.37 29.48 23.25 29.43 23.16V23.05H31.26V22.63H31.38V23.65H31.25V23.64Z" fill="#434444"/>
<path d="M31.28 22.32C30.63 21.68 30.27 21.36 29.93 21.36C29.69 21.36 29.5 21.49 29.5 21.78C29.5 21.96 29.61 22.11 29.75 22.23L29.67 22.32C29.51 22.17 29.38 22 29.38 21.77C29.38 21.42 29.6 21.22 29.92 21.22C30.31 21.22 30.68 21.57 31.25 22.11C31.24 22 31.24 21.89 31.24 21.78V21.12H31.36V22.31H31.28V22.32Z" fill="#434444"/>
<path d="M31.03 20.82C31.16 20.7 31.28 20.55 31.28 20.28C31.28 20.02 31.11 19.83 30.85 19.83C30.58 19.83 30.4 20.02 30.4 20.51H30.28C30.28 20.06 30.09 19.9 29.86 19.9C29.64 19.9 29.5 20.06 29.5 20.29C29.5 20.47 29.59 20.62 29.71 20.74L29.62 20.82C29.49 20.69 29.38 20.52 29.38 20.29C29.38 19.99 29.55 19.76 29.85 19.76C30.11 19.76 30.26 19.92 30.33 20.13H30.34C30.39 19.89 30.57 19.69 30.84 19.69C31.18 19.69 31.39 19.95 31.39 20.28C31.39 20.59 31.25 20.77 31.12 20.9L31.03 20.82Z" fill="#434444"/>
<path d="M30.78 18.16V18.45H31.36V18.58H30.78V19.47H30.7L29.42 18.57V18.45H30.67V18.16H30.78ZM30.67 18.58H29.96C29.87 18.58 29.71 18.57 29.63 18.57V18.58C29.71 18.63 29.79 18.68 29.87 18.74L30.67 19.31V18.58Z" fill="#434444"/>
<path d="M31.04 17.31C31.16 17.19 31.28 17.04 31.28 16.78C31.28 16.52 31.07 16.3 30.76 16.3C30.45 16.3 30.26 16.49 30.26 16.77C30.26 16.92 30.31 17.02 30.39 17.13L30.33 17.22L29.42 17.15V16.25H29.54V17.03L30.24 17.09C30.18 16.99 30.14 16.89 30.14 16.74C30.14 16.41 30.33 16.15 30.75 16.15C31.16 16.15 31.4 16.46 31.4 16.77C31.4 17.08 31.26 17.26 31.14 17.38L31.04 17.31Z" fill="#434444"/>
<path d="M29.66 14.8C29.55 14.89 29.5 15 29.5 15.13C29.5 15.44 29.74 15.7 30.46 15.71C30.3 15.58 30.19 15.4 30.19 15.22C30.19 14.88 30.4 14.68 30.79 14.68C31.14 14.68 31.4 14.92 31.4 15.21C31.4 15.6 31.07 15.85 30.48 15.85C29.66 15.85 29.38 15.51 29.38 15.14C29.38 14.96 29.46 14.83 29.57 14.73L29.66 14.8ZM30.79 14.81C30.51 14.81 30.3 14.93 30.3 15.23C30.3 15.37 30.38 15.54 30.59 15.7C31 15.68 31.28 15.52 31.28 15.2C31.29 14.98 31.07 14.81 30.79 14.81Z" fill="#434444"/>
<path d="M29.54 13.39V14.42H29.42V13.22H29.5C30.12 13.69 30.6 13.8 31.36 13.83V13.98C30.58 13.94 30.09 13.78 29.54 13.39Z" fill="#434444"/>
<path d="M30.32 12.58H30.31C30.22 12.72 30.07 12.86 29.86 12.86C29.58 12.86 29.39 12.63 29.39 12.35C29.39 12.02 29.61 11.82 29.9 11.82C30.11 11.82 30.3 11.98 30.39 12.1H30.4C30.5 11.93 30.63 11.76 30.9 11.76C31.18 11.76 31.41 12 31.41 12.35C31.41 12.71 31.18 12.97 30.87 12.97C30.6 12.97 30.42 12.76 30.32 12.58ZM31.29 12.35C31.29 12.08 31.11 11.9 30.89 11.9C30.59 11.9 30.49 12.19 30.37 12.49C30.49 12.69 30.65 12.83 30.86 12.83C31.1 12.83 31.29 12.63 31.29 12.35ZM29.9 11.95C29.68 11.95 29.5 12.1 29.5 12.35C29.5 12.57 29.65 12.72 29.86 12.72C30.14 12.72 30.25 12.46 30.35 12.2C30.21 12.04 30.06 11.95 29.9 11.95Z" fill="#434444"/>
<path d="M35.35 32.09V31.71H34.02V32H33.94C33.92 31.87 33.88 31.77 33.84 31.69V31.6H35.34V31.25H35.44V32.09H35.35Z" fill="#434444"/>
<path d="M35.18 30.97C35.28 30.87 35.38 30.75 35.38 30.53C35.38 30.32 35.21 30.13 34.95 30.13C34.69 30.13 34.54 30.28 34.54 30.52C34.54 30.64 34.58 30.72 34.65 30.82L34.6 30.9L33.85 30.84V30.1H33.95V30.74L34.53 30.79C34.48 30.71 34.44 30.62 34.44 30.5C34.44 30.23 34.6 30.01 34.95 30.01C35.29 30.01 35.48 30.26 35.48 30.52C35.48 30.78 35.37 30.92 35.27 31.02L35.18 30.97Z" fill="#434444"/>
<path d="M33.67 29.11V29.01L35.85 29.78V29.88L33.67 29.11Z" fill="#434444"/>
<path d="M35.38 28.9C34.84 28.37 34.55 28.11 34.27 28.11C34.07 28.11 33.91 28.22 33.91 28.46C33.91 28.61 34 28.74 34.12 28.83L34.05 28.9C33.92 28.78 33.81 28.64 33.81 28.44C33.81 28.15 33.99 27.99 34.26 27.99C34.58 27.99 34.88 28.28 35.36 28.73C35.36 28.64 35.35 28.55 35.35 28.46V27.91H35.45V28.89H35.38V28.9Z" fill="#434444"/>
<path d="M34.64 27.68C34.11 27.68 33.81 27.51 33.81 27.2C33.81 26.89 34.1 26.72 34.64 26.72C35.18 26.72 35.48 26.89 35.48 27.2C35.48 27.51 35.17 27.68 34.64 27.68ZM34.64 26.83C34.15 26.83 33.91 26.97 33.91 27.2C33.91 27.42 34.15 27.57 34.64 27.57C35.13 27.57 35.38 27.42 35.38 27.2C35.38 26.98 35.13 26.83 34.64 26.83Z" fill="#434444"/>
<path d="M22.23 34.68L22.45 34.86C22.33 35.01 22.27 35.16 22.27 35.33C22.27 35.7 22.52 36.01 23.25 36.01C23.95 36.01 24.23 35.72 24.23 35.34C24.23 35.11 24.13 34.96 24.02 34.82L24.24 34.65C24.38 34.78 24.51 35.02 24.51 35.35C24.51 35.94 24.07 36.37 23.25 36.37C22.43 36.37 21.99 35.91 21.99 35.36C21.99 35.05 22.07 34.88 22.23 34.68Z" fill="#185377"/>
<path d="M22.58 33.25L22.9 33.31C22.89 33.37 22.88 33.41 22.88 33.47C22.88 33.7 23.05 33.84 23.4 33.92H24.47V34.25H22.61V33.97L22.99 33.94C22.71 33.84 22.57 33.67 22.57 33.44C22.56 33.37 22.57 33.31 22.58 33.25Z" fill="#185377"/>
<path d="M23.65 31.51V32.7C24.08 32.67 24.25 32.47 24.25 32.2C24.25 32.02 24.2 31.88 24.09 31.72L24.28 31.58C24.43 31.76 24.51 31.97 24.51 32.23C24.51 32.75 24.15 33.05 23.55 33.05C22.97 33.05 22.56 32.76 22.56 32.28C22.56 31.78 22.91 31.51 23.48 31.51C23.55 31.51 23.61 31.51 23.65 31.51ZM23.39 31.83C23.03 31.83 22.82 31.98 22.82 32.27C22.82 32.52 22.99 32.68 23.41 32.71V31.84H23.39V31.83Z" fill="#185377"/>
<path d="M24.47 29.52V29.81L24.21 29.84C24.4 29.96 24.51 30.15 24.51 30.38C24.51 30.83 24.12 31.08 23.54 31.08C22.97 31.08 22.56 30.8 22.56 30.35C22.56 30.13 22.66 29.97 22.79 29.85H21.81L21.85 29.52H24.47ZM23.98 29.85H23.07C22.92 29.97 22.83 30.1 22.83 30.28C22.83 30.56 23.06 30.73 23.55 30.73C24.04 30.73 24.26 30.57 24.26 30.31C24.25 30.1 24.15 29.97 23.98 29.85Z" fill="#185377"/>
<path d="M21.93 28.46C22.05 28.46 22.15 28.55 22.15 28.69C22.15 28.82 22.05 28.92 21.93 28.92C21.8 28.92 21.71 28.83 21.71 28.69C21.71 28.55 21.81 28.46 21.93 28.46ZM24.47 28.85H22.61V28.52H24.47V28.85Z" fill="#185377"/>
<path d="M24.51 27.33C24.51 27.65 24.33 27.83 23.98 27.83H22.86V28.16H22.61V27.83H22.19L22.15 27.5H22.61V27.06L22.86 27.1V27.51H23.97C24.16 27.51 24.25 27.45 24.25 27.29C24.25 27.21 24.23 27.13 24.17 27.04L24.39 26.92C24.47 27.03 24.51 27.17 24.51 27.33Z" fill="#185377"/>
<path d="M22.23 24.09L22.45 24.27C22.33 24.42 22.27 24.57 22.27 24.74C22.27 25.11 22.52 25.42 23.25 25.42C23.95 25.42 24.23 25.13 24.23 24.75C24.23 24.52 24.13 24.37 24.02 24.23L24.24 24.06C24.38 24.19 24.51 24.43 24.51 24.76C24.51 25.35 24.07 25.78 23.25 25.78C22.43 25.78 21.99 25.32 21.99 24.77C21.99 24.46 22.07 24.28 22.23 24.09Z" fill="#185377"/>
<path d="M24.29 22.24L24.52 22.31C24.5 22.5 24.42 22.62 24.24 22.67C24.43 22.8 24.52 23 24.52 23.23C24.52 23.6 24.29 23.82 23.96 23.82C23.56 23.82 23.34 23.52 23.34 23V22.71H23.2C22.93 22.71 22.83 22.84 22.83 23.1C22.83 23.24 22.87 23.41 22.93 23.6L22.69 23.68C22.61 23.45 22.56 23.24 22.56 23.04C22.56 22.59 22.79 22.39 23.18 22.39H24.03C24.2 22.4 24.25 22.34 24.29 22.24ZM23.98 22.72H23.55V22.96C23.55 23.3 23.68 23.48 23.93 23.48C24.15 23.48 24.27 23.37 24.27 23.16C24.27 22.97 24.17 22.83 23.98 22.72Z" fill="#185377"/>
<path d="M22.58 20.73L22.9 20.79C22.89 20.85 22.88 20.89 22.88 20.95C22.88 21.18 23.05 21.32 23.4 21.4H24.47V21.73H22.61V21.45L22.99 21.42C22.71 21.32 22.57 21.15 22.57 20.92C22.56 20.86 22.57 20.79 22.58 20.73Z" fill="#185377"/>
<path d="M24.47 18.95V19.24L24.21 19.27C24.4 19.39 24.51 19.58 24.51 19.81C24.51 20.26 24.12 20.51 23.54 20.51C22.97 20.51 22.56 20.23 22.56 19.78C22.56 19.56 22.66 19.4 22.79 19.28H21.81L21.85 18.95H24.47ZM23.98 19.28H23.07C22.92 19.4 22.83 19.53 22.83 19.71C22.83 19.99 23.06 20.16 23.55 20.16C24.04 20.16 24.26 20 24.26 19.74C24.25 19.53 24.15 19.4 23.98 19.28Z" fill="#185377"/>
<path d="M38.26 32.09L37.11 31.59C36.82 31.47 36.58 31.26 36.41 31C36.18 30.65 35.95 30.3 35.73 29.95C34.94 28.75 34.1 27.58 33.26 26.42C32.64 25.57 32.21 24.59 31.43 23.86C30.98 23.44 30.65 23.25 30 23.35C29.45 23.44 28.9 23.73 28.51 24.09C28.27 24.31 28.07 24.6 27.96 24.92C27.87 25.19 28.05 25.26 28.12 25.54C28.19 25.82 28.94 27.26 29.14 27.63C31.74 32.42 33.88 38.75 33.88 38.75C33.96 38.95 34.07 39.14 34.22 39.29L38.34 43.56C38.84 44.08 39.72 45.53 40.36 45.19L42 44.59L38.87 32.22C38.65 32.21 38.45 32.17 38.26 32.09Z" fill="#EAB38B"/>
<path d="M31.34 25.66C31.18 25.87 30.9 26.18 30.49 26.44C30.01 26.75 29.55 26.86 29.27 26.91C28.83 26.25 28.4 25.58 27.96 24.92C28.07 24.6 28.27 24.31 28.51 24.09C28.93 23.69 29.5 23.45 30.08 23.41C30.09 23.41 30.11 23.41 30.12 23.41L31.34 25.66Z" fill="#F2C4A5"/>
<path d="M39.26 47.45L40.94 54.32L56.44 45.98L51.88 40.85L39.26 47.45Z" fill="#E6E7E8"/>
<path d="M58.42 48.33L54.14 42.16L39.44 51.89L42.71 58.52L58.42 48.33Z" fill="#808082"/>
</svg>
