<svg width="500" height="500" viewBox="0 0 500 500" fill="none" xmlns="http://www.w3.org/2000/svg">
<path d="M249.685 392.37C335.667 392.37 405.37 322.667 405.37 236.685C405.37 150.703 335.667 81 249.685 81C163.703 81 94 150.703 94 236.685C94 322.667 163.703 392.37 249.685 392.37Z" fill="#E6E6E6"/>
<mask id="mask0_0_1" style="mask-type:luminance" maskUnits="userSpaceOnUse" x="94" y="81" width="312" height="312">
<path d="M249.685 392.37C335.667 392.37 405.37 322.667 405.37 236.685C405.37 150.703 335.667 81 249.685 81C163.703 81 94 150.703 94 236.685C94 322.667 163.703 392.37 249.685 392.37Z" fill="white"/>
</mask>
<g mask="url(#mask0_0_1)">
<path d="M144.429 313.801C111.771 331.25 93.9596 448.609 91.5189 496.758L166.961 497.888L441.679 472.552C441.679 472.552 438.936 343.091 392.702 310.433C320.649 259.519 214.727 276.222 144.429 313.801Z" fill="#C1842D"/>
<path d="M219.569 256.655C219.569 256.655 217.148 261.194 215.635 291.552C213.941 325.319 304.572 331.512 295.576 265.087C289.403 219.559 287.124 205.984 287.124 205.984L219.569 256.655Z" fill="#F8CADD"/>
<path d="M306.166 122.776C306.166 122.776 324.925 138.53 313.67 172.317C302.414 206.105 290.412 232.368 290.412 238.359C290.412 244.37 282.908 187.325 282.908 187.325L306.166 122.776Z" fill="#0B0063"/>
<mask id="mask1_0_1" style="mask-type:luminance" maskUnits="userSpaceOnUse" x="215" y="205" width="82" height="144">
<path d="M219.569 256.655C219.569 256.655 217.148 261.194 215.635 291.552C214.849 307.387 233.608 349.646 253.639 348.698C276.312 347.629 300.356 300.367 295.576 265.087C289.403 219.559 287.124 205.984 287.124 205.984L219.569 256.655Z" fill="white"/>
</mask>
<g mask="url(#mask1_0_1)">
<path d="M181.969 160.678C181.969 160.678 155.322 284.714 223.26 286.166C289.484 287.578 285.591 168.727 285.591 168.727C257.411 130.179 209.785 113.012 181.969 160.678Z" fill="#0B0063"/>
</g>
<path d="M186.991 146.639C186.991 146.639 160.345 270.674 228.283 272.127C294.506 273.539 290.613 154.687 290.613 154.687C262.433 116.139 214.808 98.973 186.991 146.639Z" fill="#F8CADD"/>
<path d="M186.991 146.639C186.991 146.639 160.345 270.674 228.283 272.127C294.506 273.539 290.613 154.687 290.613 154.687C262.433 116.139 214.808 98.973 186.991 146.639Z" stroke="#0B0063" stroke-miterlimit="10" stroke-linecap="round" stroke-linejoin="round"/>
<path d="M203.76 194.972C204.93 194.967 205.869 192.868 205.858 190.283C205.847 187.698 204.89 185.607 203.72 185.612C202.55 185.617 201.611 187.717 201.622 190.301C201.633 192.886 202.59 194.977 203.76 194.972Z" fill="#0B0063"/>
<path d="M219.448 188.112L211.924 219.559L226.367 219.499" stroke="#0B0063" stroke-width="1.5083" stroke-miterlimit="10" stroke-linecap="round" stroke-linejoin="round"/>
<path d="M247.513 199.026C248.683 199.021 249.622 196.922 249.611 194.338C249.6 191.753 248.643 189.662 247.473 189.667C246.303 189.672 245.364 191.771 245.375 194.356C245.386 196.94 246.343 199.031 247.513 199.026Z" fill="#0B0063"/>
<path d="M197.279 169.513C197.279 169.513 204.884 162.695 210.027 170.3" stroke="#0B0063" stroke-width="1.5083" stroke-miterlimit="10" stroke-linecap="round" stroke-linejoin="round"/>
<path d="M243.997 173.568C243.997 173.568 251.601 166.75 256.745 174.355" stroke="#0B0063" stroke-width="1.5083" stroke-miterlimit="10" stroke-linecap="round" stroke-linejoin="round"/>
<path d="M214.566 239.065C214.566 239.065 217.128 244.149 221.384 243.281C225.62 242.414 229.856 238.158 229.856 238.158" stroke="#0B0063" stroke-width="1.5083" stroke-miterlimit="10" stroke-linecap="round" stroke-linejoin="round"/>
<path d="M300.271 201.265C302.709 188.756 299.119 177.531 292.252 176.192C285.385 174.854 277.842 183.909 275.404 196.418C272.966 208.927 276.556 220.153 283.423 221.491C290.29 222.83 297.833 213.774 300.271 201.265Z" fill="#F8CADD"/>
<path d="M283.815 208.909C283.815 208.909 290.331 192.61 295.535 194.647" stroke="#0B0063" stroke-miterlimit="10" stroke-linecap="round" stroke-linejoin="round"/>
<path d="M215.353 281.89L251.379 315.677L229.614 339.702L195.08 293.166L215.353 281.89Z" fill="white"/>
<path d="M252.126 315.677L288.152 331.431L311.431 278.904L295.576 265.087L252.126 315.677Z" fill="white"/>
<path d="M256.624 135.544C256.624 135.544 236.352 151.298 229.594 150.552C222.836 149.806 229.594 141.535 229.594 141.535C229.594 141.535 207.082 160.295 198.812 160.295C190.542 160.295 201.071 149.039 201.071 149.039C201.071 149.039 164.298 169.312 162.039 155.797C159.78 142.282 192.054 119.77 192.054 119.77C192.054 119.77 165.791 121.263 172.548 113.759C179.306 106.255 214.949 91.6103 227.718 99.8807C227.718 99.8807 206.336 84.8729 217.592 86.3657C228.848 87.8584 294.143 98.0047 306.166 122.776C318.168 147.546 300.195 168.767 292.288 176.17C284.38 183.573 281.395 195.575 281.395 195.575L282.141 165.56C282.141 165.56 259.63 164.067 256.624 135.544Z" fill="#0B0063"/>
<path d="M306.166 122.776C306.166 122.776 297.532 104.379 279.519 93.1232" stroke="#0B0063" stroke-miterlimit="10" stroke-linecap="round" stroke-linejoin="round"/>
<path d="M192.075 119.77C192.075 119.77 168.05 125.781 159.054 141.535" stroke="#0B0063" stroke-miterlimit="10" stroke-linecap="round" stroke-linejoin="round"/>
<path d="M240.124 152.791C240.124 152.791 251.379 148.293 256.644 135.524" stroke="#0B0063" stroke-miterlimit="10" stroke-linecap="round" stroke-linejoin="round"/>
<path d="M192.841 111.136C192.841 111.136 215.353 97.6214 227.738 104.379" stroke="white" stroke-miterlimit="10" stroke-linecap="round" stroke-linejoin="round"/>
<path d="M272.761 126.911C272.761 126.911 266.004 144.924 276.13 149.422" stroke="white" stroke-miterlimit="10" stroke-linecap="round" stroke-linejoin="round"/>
</g>
<mask id="mask2_0_1" style="mask-type:luminance" maskUnits="userSpaceOnUse" x="94" y="81" width="312" height="312">
<path d="M249.685 392.37C335.667 392.37 405.37 322.667 405.37 236.685C405.37 150.703 335.667 81 249.685 81C163.703 81 94 150.703 94 236.685C94 322.667 163.703 392.37 249.685 392.37Z" fill="white"/>
</mask>
<g mask="url(#mask2_0_1)">
<path d="M288.152 331.431L252.126 315.677L295.576 265.087" stroke="#0B0063" stroke-miterlimit="10" stroke-linecap="round" stroke-linejoin="round"/>
</g>
<path d="M256.564 390.918C256.564 390.918 245.449 378.815 241.374 379.097C232.922 379.662 230.118 415.688 238.006 416.818C246.236 417.988 249.261 390.918 249.261 390.918H256.564Z" fill="#F8CADD"/>
<path d="M238.55 393.177C238.55 393.177 233.487 378.532 227.859 379.097C222.231 379.662 219.972 394.286 219.972 404.433C219.972 414.559 225.761 417.948 229.534 417.948C234.617 417.948 238.55 393.177 238.55 393.177Z" fill="#F8CADD"/>
<path d="M226.73 392.612C226.73 392.612 220.537 377.423 215.474 380.791C210.411 384.16 204.218 415.688 214.344 418.513C224.491 421.316 226.73 392.612 226.73 392.612Z" fill="#F8CADD"/>
<path d="M212.105 389.788C212.105 389.788 207.607 379.097 203.653 383.031C199.72 386.964 196.331 399.349 198.59 405.542C200.849 411.735 205.912 417.928 209.281 411.17C211.318 407.136 212.105 389.788 212.105 389.788Z" fill="#F8CADD"/>
<path d="M241.374 379.097C232.922 379.662 230.118 415.688 238.006 416.818C246.236 417.988 249.261 390.918 249.261 390.918" stroke="#0B0063" stroke-miterlimit="10" stroke-linecap="round" stroke-linejoin="round"/>
<path d="M215.474 380.791C211.682 383.333 207.244 401.689 209.543 411.896C210.31 415.305 211.823 417.807 214.364 418.492C214.364 418.492 219.811 420.752 221.687 413.611" stroke="#0B0063" stroke-miterlimit="10" stroke-linecap="round" stroke-linejoin="round"/>
<path d="M203.653 383.031C199.72 386.964 196.331 399.349 198.59 405.542C200.849 411.735 205.912 417.928 209.281 411.17" stroke="#0B0063" stroke-miterlimit="10" stroke-linecap="round" stroke-linejoin="round"/>
<path d="M249.261 390.918C249.261 390.918 258.278 383.031 266.71 380.791C275.142 378.552 282.464 386.419 281.899 389.808C281.334 393.177 249.261 390.918 249.261 390.918Z" fill="#F8CADD"/>
<path d="M234.052 412.32C234.052 412.32 232.176 418.129 229.554 417.948C227.678 417.807 225.277 417.1 223.361 414.982C221.445 412.864 219.992 409.496 219.992 404.433C219.992 394.307 222.252 379.662 227.879 379.097" stroke="#0B0063" stroke-miterlimit="10" stroke-linecap="round" stroke-linejoin="round"/>
</svg>
