<?xml version="1.0" encoding="utf-8"?>
<!-- Generator: Adobe Illustrator 25.4.1, SVG Export Plug-In . SVG Version: 6.00 Build 0)  -->
<svg version="1.1" xmlns="http://www.w3.org/2000/svg" xmlns:xlink="http://www.w3.org/1999/xlink" x="0px" y="0px"
	 viewBox="0 0 500 500" style="enable-background:new 0 0 500 500;" xml:space="preserve">
<g id="Background_Complete">
	<g>
		<rect y="382.4" style="fill:#EBEBEB;" width="500" height="0.25"/>
		<rect x="416.78" y="398.49" style="fill:#EBEBEB;" width="33.12" height="0.25"/>
		<rect x="322.53" y="401.21" style="fill:#EBEBEB;" width="8.69" height="0.25"/>
		<rect x="396.59" y="389.21" style="fill:#EBEBEB;" width="19.19" height="0.25"/>
		<rect x="52.46" y="390.89" style="fill:#EBEBEB;" width="43.19" height="0.25"/>
		<rect x="104.56" y="390.89" style="fill:#EBEBEB;" width="6.33" height="0.25"/>
		<rect x="131.47" y="395.11" style="fill:#EBEBEB;" width="93.68" height="0.25"/>
		<path style="fill:#EBEBEB;" d="M237.01,337.8H43.92c-3.15,0-5.71-2.56-5.71-5.71V60.66c0-3.15,2.56-5.71,5.71-5.71h193.1
			c3.15,0,5.71,2.56,5.71,5.71v271.43C242.72,335.24,240.16,337.8,237.01,337.8z M43.92,55.2c-3.01,0-5.46,2.45-5.46,5.46v271.43
			c0,3.01,2.45,5.46,5.46,5.46h193.1c3.01,0,5.46-2.45,5.46-5.46V60.66c0-3.01-2.45-5.46-5.46-5.46H43.92z"/>
		<path style="fill:#EBEBEB;" d="M453.31,337.8h-193.1c-3.15,0-5.71-2.56-5.71-5.71V60.66c0-3.15,2.56-5.71,5.71-5.71h193.1
			c3.15,0,5.71,2.56,5.71,5.71v271.43C459.02,335.24,456.46,337.8,453.31,337.8z M260.21,55.2c-3.01,0-5.46,2.45-5.46,5.46v271.43
			c0,3.01,2.45,5.46,5.46,5.46h193.1c3.01,0,5.46-2.45,5.46-5.46V60.66c0-3.01-2.45-5.46-5.46-5.46H260.21z"/>
	</g>
	<g>
		<g>
			<rect x="100.36" y="173.88" style="fill:#F0F0F0;" width="141.98" height="208.17"/>
			<g>
				<rect x="105.37" y="180.43" style="fill:#E0E0E0;" width="131.95" height="38.45"/>
				<rect x="105.37" y="186.65" style="fill:#EBEBEB;" width="7.5" height="32.22"/>
				<rect x="141.62" y="186.65" style="fill:#EBEBEB;" width="7.5" height="32.22"/>
				
					<rect x="185.55" y="186.25" transform="matrix(0.9855 -0.1698 0.1698 0.9855 -31.6201 35.0923)" style="fill:#EBEBEB;" width="7.5" height="32.22"/>
				<rect x="114.66" y="190.9" style="fill:#EBEBEB;" width="7.5" height="27.98"/>
				<rect x="131.89" y="190.9" style="fill:#EBEBEB;" width="7.5" height="27.98"/>
				<rect x="175.38" y="190.9" style="fill:#EBEBEB;" width="7.5" height="27.98"/>
				
					<rect x="154.59" y="190.42" transform="matrix(0.9762 -0.2169 0.2169 0.9762 -40.5694 39.2118)" style="fill:#EBEBEB;" width="7.5" height="27.98"/>
				<rect x="124.89" y="185.05" style="fill:#EBEBEB;" width="3.75" height="33.82"/>
				<rect x="169.47" y="185.05" style="fill:#EBEBEB;" width="3.75" height="33.82"/>
			</g>
			<g>
				
					<rect x="105.37" y="224.96" transform="matrix(-1 -1.224647e-16 1.224647e-16 -1 342.6952 488.3752)" style="fill:#E0E0E0;" width="131.95" height="38.45"/>
				
					<rect x="229.83" y="231.19" transform="matrix(-1 -1.224647e-16 1.224647e-16 -1 467.1472 494.5993)" style="fill:#EBEBEB;" width="7.5" height="32.22"/>
				
					<rect x="193.58" y="231.19" transform="matrix(-1 -1.224647e-16 1.224647e-16 -1 394.6603 494.5993)" style="fill:#EBEBEB;" width="7.5" height="32.22"/>
				
					<rect x="149.65" y="230.79" transform="matrix(-0.9855 -0.1698 0.1698 -0.9855 262.6272 516.2596)" style="fill:#EBEBEB;" width="7.5" height="32.22"/>
				
					<rect x="220.54" y="235.43" transform="matrix(-1 -1.224647e-16 1.224647e-16 -1 448.5722 498.8456)" style="fill:#EBEBEB;" width="7.5" height="27.98"/>
				
					<rect x="203.31" y="235.43" transform="matrix(-1 -1.224647e-16 1.224647e-16 -1 414.1154 498.8456)" style="fill:#EBEBEB;" width="7.5" height="27.98"/>
				
					<rect x="159.82" y="235.43" transform="matrix(-1 -1.224647e-16 1.224647e-16 -1 327.1429 498.8456)" style="fill:#EBEBEB;" width="7.5" height="27.98"/>
				
					<rect x="180.61" y="234.95" transform="matrix(-0.9762 -0.2169 0.2169 -0.9762 310.3411 531.9466)" style="fill:#EBEBEB;" width="7.5" height="27.98"/>
				
					<rect x="214.06" y="229.59" transform="matrix(-1 -1.224647e-16 1.224647e-16 -1 431.8616 492.9995)" style="fill:#EBEBEB;" width="3.75" height="33.82"/>
				
					<rect x="169.47" y="229.59" transform="matrix(-1 -1.224647e-16 1.224647e-16 -1 342.6953 492.9995)" style="fill:#EBEBEB;" width="3.75" height="33.82"/>
				<rect x="105.37" y="231.19" style="fill:#EBEBEB;" width="7.5" height="32.22"/>
				<rect x="114.66" y="235.43" style="fill:#EBEBEB;" width="7.5" height="27.98"/>
				<rect x="131.89" y="235.43" style="fill:#EBEBEB;" width="7.5" height="27.98"/>
				<rect x="124.89" y="229.59" style="fill:#EBEBEB;" width="3.75" height="33.82"/>
			</g>
			<g>
				<rect x="105.37" y="269.5" style="fill:#E0E0E0;" width="131.95" height="38.45"/>
				<g>
					<rect x="181.11" y="275.72" style="fill:#EBEBEB;" width="7.5" height="32.22"/>
					
						<rect x="225.04" y="275.32" transform="matrix(0.9855 -0.1698 0.1698 0.9855 -46.1743 43.0936)" style="fill:#EBEBEB;" width="7.5" height="32.22"/>
					<rect x="154.15" y="279.97" style="fill:#EBEBEB;" width="7.5" height="27.98"/>
					<rect x="171.38" y="279.97" style="fill:#EBEBEB;" width="7.5" height="27.98"/>
					<rect x="214.87" y="279.97" style="fill:#EBEBEB;" width="7.5" height="27.98"/>
					
						<rect x="194.08" y="279.49" transform="matrix(0.9762 -0.2169 0.2169 0.9762 -58.9471 49.8958)" style="fill:#EBEBEB;" width="7.5" height="27.98"/>
					<rect x="164.38" y="274.12" style="fill:#EBEBEB;" width="3.75" height="33.82"/>
					<rect x="208.96" y="274.12" style="fill:#EBEBEB;" width="3.75" height="33.82"/>
					
						<rect x="138.81" y="275.32" transform="matrix(0.9855 -0.1698 0.1698 0.9855 -47.4278 28.4477)" style="fill:#EBEBEB;" width="7.5" height="32.22"/>
					<rect x="128.63" y="279.97" style="fill:#EBEBEB;" width="7.5" height="27.98"/>
					
						<rect x="107.84" y="279.49" transform="matrix(0.9762 -0.2169 0.2169 0.9762 -61.0001 31.1914)" style="fill:#EBEBEB;" width="7.5" height="27.98"/>
					<rect x="122.73" y="274.12" style="fill:#EBEBEB;" width="3.75" height="33.82"/>
				</g>
			</g>
			
				<rect x="75.86" y="173.88" transform="matrix(-1 -1.224647e-16 1.224647e-16 -1 176.2151 556.469)" style="fill:#E0E0E0;" width="24.5" height="208.71"/>
		</g>
		<g>
			<path style="fill:#F5F5F5;" d="M325.44,377.14h-20.81l10.94-89.11c0.46-3.77,3.9-6.83,7.67-6.83h7.15h83.66l-13.31,95.94H325.44z
				"/>
			<path style="fill:#F0F0F0;" d="M391.44,377.14h20.81l10.94-89.11c0.46-3.77-2.22-6.83-5.99-6.83h-7.15
				c-3.77,0-7.21,3.06-7.67,6.83L391.44,377.14z"/>
			<g>
				<path style="fill:#E6E6E6;" d="M383.78,377.04l3.77-43.1c0.17-1.92,1.66-3.47,3.57-3.72l1.55-0.2c2.57-0.33,4.57-2.4,4.79-4.99
					l0.69-7.86c0.28-3.22-2.26-5.99-5.49-5.99h34.78c3.23,0,5.77,2.77,5.49,5.99l-0.69,7.86c-0.23,2.58-2.22,4.66-4.79,4.99
					l-1.55,0.2c-1.92,0.24-3.4,1.79-3.57,3.72l-3.77,43.1c-0.27,3.14-2.91,5.55-6.06,5.55h-34.78
					C380.87,382.59,383.5,380.18,383.78,377.04z"/>
			</g>
			<path style="fill:#E6E6E6;" d="M288.06,323.15c-0.59-6.77-6.26-11.96-13.05-11.96h16.83h13.45c6.79,0,12.46,5.19,13.05,11.96
				l2.99,34.16h-30.28L288.06,323.15z"/>
			<path style="fill:#F0F0F0;" d="M261.56,311.19h13.45c6.79,0,12.46,5.19,13.05,11.96l2.99,34.16h72.12l2.99-34.16
				c0.59-6.77,6.26-11.96,13.05-11.96h13.45c3.23,0,5.77,2.77,5.49,5.99l-0.69,7.86c-0.23,2.58-2.22,4.66-4.79,4.99l-1.55,0.2
				c-1.92,0.24-3.4,1.79-3.57,3.72l-3.77,43.1c-0.27,3.14-2.91,5.55-6.06,5.55H276.5c-3.15,0-5.79-2.41-6.06-5.55l-3.77-43.1
				c-0.17-1.92-1.66-3.47-3.57-3.72l-1.55-0.2c-2.57-0.33-4.57-2.4-4.79-4.99l-0.69-7.86C255.79,313.96,258.32,311.19,261.56,311.19
				z"/>
		</g>
		<g>
			<path style="fill:#E6E6E6;" d="M102.16,163.48c0,0-1.11-7.3,4.22-11.99c5.33-4.68,4.86-7.47,3.34-7.83
				c-1.52-0.36-2.93,4.32-5.27,5.61c0,0-0.07-6.67,2.3-9.13c2.38-2.46,3.63-8.79,1.36-8.9c-2.26-0.11-2.5,3.76-2.97,6.51
				c-0.47,2.75-2.99,6.61-2.99,6.61s-0.49-5.97-2.03-8.43c-1.54-2.46,2.56-8.08,0.98-10.54c-1.58-2.46-4.39,2.22-4.16,7.49
				c0.23,5.27,3.75,10.89,2.93,16.39c0,0-1.55-3.86-2.94-4.21c-1.39-0.35-2.8-2.91-3.73-3.85c-0.94-0.95-2.11,2.33,0,5.38
				c2.11,3.04,7.49,11.19,6.67,17.77L102.16,163.48z"/>
			<path style="fill:#E6E6E6;" d="M105.34,160.15l1.74,10.95c0.54,3.38-2.07,6.44-5.5,6.44h-1.86c-3.42,0-6.03-3.06-5.5-6.44
				l1.74-10.95H105.34z"/>
			
				<rect x="210.06" y="152.04" transform="matrix(-1 -1.224647e-16 1.224647e-16 -1 425.5436 327.4352)" style="fill:#EBEBEB;" width="5.43" height="23.35"/>
			
				<rect x="183.79" y="152.04" transform="matrix(-1 -1.224647e-16 1.224647e-16 -1 373.013 327.4352)" style="fill:#EBEBEB;" width="5.43" height="23.35"/>
			
				<rect x="151.95" y="151.75" transform="matrix(-0.9855 -0.1698 0.1698 -0.9855 279.3288 350.7467)" style="fill:#EBEBEB;" width="5.43" height="23.35"/>
			
				<rect x="203.33" y="155.12" transform="matrix(-1 -1.224647e-16 1.224647e-16 -1 412.0824 330.5125)" style="fill:#EBEBEB;" width="5.43" height="20.27"/>
			
				<rect x="190.84" y="155.12" transform="matrix(-1 -1.224647e-16 1.224647e-16 -1 387.1118 330.5125)" style="fill:#EBEBEB;" width="5.43" height="20.27"/>
			
				<rect x="159.33" y="155.12" transform="matrix(-1 -1.224647e-16 1.224647e-16 -1 324.0838 330.5125)" style="fill:#EBEBEB;" width="5.43" height="20.27"/>
			
				<rect x="174.39" y="154.77" transform="matrix(-0.9762 -0.2169 0.2169 -0.9762 314.2313 364.3063)" style="fill:#EBEBEB;" width="5.43" height="20.27"/>
			
				<rect x="198.63" y="150.88" transform="matrix(-1 -1.224647e-16 1.224647e-16 -1 399.9725 326.2759)" style="fill:#EBEBEB;" width="2.72" height="24.51"/>
			
				<rect x="166.32" y="150.88" transform="matrix(-1 -1.224647e-16 1.224647e-16 -1 335.3545 326.2759)" style="fill:#EBEBEB;" width="2.72" height="24.51"/>
			<g>
				<rect x="120.48" y="156.86" style="fill:#EBEBEB;" width="26.47" height="18.27"/>
			</g>
			<g>
				<rect x="215.56" y="164.34" style="fill:#EBEBEB;" width="22.17" height="13.64"/>
			</g>
			<g>
				<rect x="221.46" y="152.35" style="fill:#EBEBEB;" width="11.09" height="13.64"/>
			</g>
		</g>
		<g>
			<rect x="391.44" y="134.3" style="fill:#E0E0E0;" width="26.37" height="109.88"/>
			
				<rect x="316.37" y="134.3" transform="matrix(-1 -1.224647e-16 1.224647e-16 -1 731.3485 378.7801)" style="fill:#E0E0E0;" width="98.62" height="110.17"/>
			
				<rect x="313.19" y="134.3" transform="matrix(-1 -1.224647e-16 1.224647e-16 -1 728.6906 378.7801)" style="fill:#F0F0F0;" width="102.32" height="110.17"/>
			
				<rect x="317.56" y="137.82" transform="matrix(-1 -1.224647e-16 1.224647e-16 -1 728.8553 377.2321)" style="fill:#FFFFFF;" width="93.74" height="101.6"/>
			
				<rect x="317.56" y="137.82" transform="matrix(-1 -1.224647e-16 1.224647e-16 -1 636.8504 377.2321)" style="fill:#E0E0E0;" width="1.74" height="101.6"/>
			
				<rect x="363.9" y="165.98" transform="matrix(6.123234e-17 -1 1 6.123234e-17 153.0254 577.519)" style="fill:#E0E0E0;" width="2.74" height="92.54"/>
			
				<rect x="317.56" y="206.28" transform="matrix(-1 -1.224647e-16 1.224647e-16 -1 730.3249 417.1543)" style="fill:#F0F0F0;" width="95.21" height="4.6"/>
		</g>
	</g>
</g>
<g id="Background_Simple" style="display:none;">
	<g style="display:inline;">
		<path style="fill:#407BFF;" d="M89.37,124.2c27.92-59.45,127.06-51.06,165.32-9.26c38.26,41.81,50.7,68.6,85.21,52.98
			c34.51-15.62,78.52-11.44,81.04,38.16S383.02,314.35,318.85,331.7c-64.18,17.35-64.16,78.76-149.1,66.37
			c-46.31-6.76-47.37-56.86-40.83-98.3C135.46,258.33,56.99,193.14,89.37,124.2z"/>
		<path style="opacity:0.9;fill:#FFFFFF;" d="M89.37,124.2c27.92-59.45,127.06-51.06,165.32-9.26c38.26,41.81,50.7,68.6,85.21,52.98
			c34.51-15.62,78.52-11.44,81.04,38.16S383.02,314.35,318.85,331.7c-64.18,17.35-64.16,78.76-149.1,66.37
			c-46.31-6.76-47.37-56.86-40.83-98.3C135.46,258.33,56.99,193.14,89.37,124.2z"/>
	</g>
</g>
<g id="Shadow_1_">
	<ellipse id="_x3C_Path_x3E__359_" style="fill:#F5F5F5;" cx="250" cy="416.24" rx="193.89" ry="11.32"/>
</g>
<g id="Interface">
	<g>
		<path style="fill:#407BFF;" d="M321.95,378.13H143.04c-4.04,0-7.32-3.28-7.32-7.32V160.14c0-4.04,3.28-7.32,7.32-7.32h178.92
			c4.04,0,7.32,3.28,7.32,7.32v210.67C329.27,374.85,326,378.13,321.95,378.13z"/>
		<path style="opacity:0.6;fill:#FFFFFF;enable-background:new    ;" d="M321.95,378.13H143.04c-4.04,0-7.32-3.28-7.32-7.32V160.14
			c0-4.04,3.28-7.32,7.32-7.32h178.92c4.04,0,7.32,3.28,7.32,7.32v210.67C329.27,374.85,326,378.13,321.95,378.13z"/>
		<g>
			<rect x="167.08" y="256.15" style="fill:#FFFFFF;" width="130.84" height="22.4"/>
			<g style="opacity:0.4;">
				<path style="fill:#263238;" d="M178.78,269.53v0.59h-4.54v-6.42h4.4v0.59h-3.72v2.28h3.32v0.58h-3.32v2.38H178.78z"/>
				<path style="fill:#263238;" d="M179.69,267.35h2.4v0.57h-2.4V267.35z"/>
				<path style="fill:#263238;" d="M191.51,267.32v2.8h-0.65v-2.73c0-1.02-0.51-1.54-1.38-1.54c-0.99,0-1.61,0.64-1.61,1.74v2.53
					h-0.65v-2.73c0-1.02-0.51-1.54-1.39-1.54c-0.98,0-1.61,0.64-1.61,1.74v2.53h-0.65v-4.82h0.62v0.88
					c0.34-0.58,0.96-0.92,1.77-0.92c0.8,0,1.42,0.34,1.71,1.02c0.35-0.62,1.04-1.02,1.91-1.02
					C190.74,265.25,191.51,265.93,191.51,267.32z"/>
				<path style="fill:#263238;" d="M196.93,267.12v2.99h-0.62v-0.75c-0.29,0.5-0.86,0.8-1.66,0.8c-1.09,0-1.76-0.57-1.76-1.4
					c0-0.74,0.48-1.37,1.86-1.37h1.53v-0.29c0-0.83-0.47-1.27-1.37-1.27c-0.62,0-1.21,0.22-1.61,0.57l-0.29-0.49
					c0.49-0.41,1.2-0.65,1.96-0.65C196.22,265.25,196.93,265.88,196.93,267.12z M196.27,268.67v-0.79h-1.51
					c-0.94,0-1.24,0.37-1.24,0.86c0,0.56,0.45,0.91,1.22,0.91C195.48,269.65,196.02,269.3,196.27,268.67z"/>
				<path style="fill:#263238;" d="M198.55,263.77c0-0.25,0.21-0.46,0.48-0.46c0.27,0,0.48,0.2,0.48,0.45c0,0.27-0.2,0.48-0.48,0.48
					C198.76,264.24,198.55,264.03,198.55,263.77z M198.7,265.29h0.65v4.82h-0.65V265.29z"/>
				<path style="fill:#263238;" d="M201.16,263.31h0.65v6.8h-0.65V263.31z"/>
			</g>
		</g>
		<g>
			<rect x="167.08" y="286.75" style="fill:#FFFFFF;" width="130.84" height="22.4"/>
			<g style="opacity:0.4;">
				<path style="fill:#263238;" d="M179.26,296.53c0,1.37-0.99,2.19-2.62,2.19h-1.72v2.03h-0.68v-6.42h2.4
					C178.27,294.33,179.26,295.16,179.26,296.53z M178.58,296.53c0-1.03-0.68-1.61-1.96-1.61h-1.71v3.21h1.71
					C177.91,298.13,178.58,297.54,178.58,296.53z"/>
				<path style="fill:#263238;" d="M184.19,297.76v2.99h-0.62V300c-0.29,0.5-0.86,0.8-1.66,0.8c-1.09,0-1.76-0.57-1.76-1.4
					c0-0.74,0.48-1.37,1.86-1.37h1.53v-0.29c0-0.83-0.47-1.27-1.37-1.27c-0.62,0-1.21,0.22-1.6,0.57l-0.29-0.49
					c0.49-0.41,1.2-0.65,1.96-0.65C183.48,295.89,184.19,296.52,184.19,297.76z M183.54,299.3v-0.79h-1.51
					c-0.94,0-1.24,0.37-1.24,0.86c0,0.56,0.45,0.91,1.22,0.91C182.74,300.28,183.28,299.94,183.54,299.3z"/>
				<path style="fill:#263238;" d="M185.29,300.2l0.29-0.51c0.39,0.3,1.04,0.54,1.71,0.54c0.92,0,1.29-0.31,1.29-0.79
					c0-1.26-3.13-0.27-3.13-2.17c0-0.79,0.68-1.38,1.91-1.38c0.62,0,1.3,0.17,1.71,0.45l-0.28,0.52c-0.42-0.29-0.93-0.41-1.42-0.41
					c-0.87,0-1.26,0.34-1.26,0.8c0,1.3,3.13,0.32,3.13,2.17c0,0.83-0.73,1.38-1.99,1.38C186.45,300.8,185.68,300.54,185.29,300.2z"
					/>
				<path style="fill:#263238;" d="M189.77,300.2l0.29-0.51c0.39,0.3,1.04,0.54,1.71,0.54c0.92,0,1.29-0.31,1.29-0.79
					c0-1.26-3.13-0.27-3.13-2.17c0-0.79,0.68-1.38,1.91-1.38c0.62,0,1.3,0.17,1.71,0.45l-0.28,0.52c-0.42-0.29-0.93-0.41-1.42-0.41
					c-0.87,0-1.26,0.34-1.26,0.8c0,1.3,3.13,0.32,3.13,2.17c0,0.83-0.73,1.38-1.99,1.38C190.94,300.8,190.17,300.54,189.77,300.2z"
					/>
				<path style="fill:#263238;" d="M201.91,295.93l-1.82,4.82h-0.61l-1.52-3.95l-1.52,3.95h-0.61l-1.82-4.82h0.62l1.51,4.1l1.55-4.1
					h0.56l1.54,4.1l1.53-4.1H201.91z"/>
				<path style="fill:#263238;" d="M202.27,298.34c0-1.43,1.05-2.45,2.46-2.45c1.41,0,2.45,1.02,2.45,2.45
					c0,1.43-1.04,2.46-2.45,2.46C203.32,300.8,202.27,299.77,202.27,298.34z M206.52,298.34c0-1.13-0.76-1.88-1.79-1.88
					c-1.03,0-1.8,0.75-1.8,1.88c0,1.13,0.77,1.88,1.8,1.88C205.76,300.22,206.52,299.47,206.52,298.34z"/>
				<path style="fill:#263238;" d="M210.94,295.89v0.63c-0.05,0-0.11-0.01-0.16-0.01c-1.01,0-1.62,0.64-1.62,1.78v2.46h-0.65v-4.82
					h0.62v0.94C209.44,296.23,210.05,295.89,210.94,295.89z"/>
				<path style="fill:#263238;" d="M216.47,293.95v6.8h-0.62v-0.95c-0.39,0.65-1.06,1-1.86,1c-1.38,0-2.4-1-2.4-2.46
					c0-1.46,1.03-2.45,2.4-2.45c0.77,0,1.43,0.33,1.83,0.95v-2.9H216.47z M215.83,298.34c0-1.13-0.77-1.88-1.79-1.88
					c-1.03,0-1.8,0.75-1.8,1.88c0,1.13,0.77,1.88,1.8,1.88C215.06,300.22,215.83,299.47,215.83,298.34z"/>
			</g>
		</g>
		<rect x="167.08" y="332" style="opacity:0.2;" width="130.84" height="22.4"/>
		<g style="opacity:0.5;">
			<path d="M198.9,321.71h-2.14l-0.46,1.02h-0.42l1.75-3.83h0.4l1.75,3.83h-0.43L198.9,321.71z M198.75,321.38l-0.92-2.06
				l-0.92,2.06H198.75z"/>
			<path d="M200.34,318.67h0.39v4.06h-0.39V318.67z"/>
			<path d="M203.27,319.83v0.38c-0.03,0-0.07-0.01-0.09-0.01c-0.6,0-0.97,0.38-0.97,1.06v1.47h-0.39v-2.88h0.37v0.56
				C202.37,320.03,202.73,319.83,203.27,319.83z"/>
			<path d="M206.45,321.41h-2.41c0.04,0.6,0.5,1,1.13,1c0.35,0,0.66-0.13,0.88-0.38l0.22,0.25c-0.26,0.31-0.66,0.47-1.11,0.47
				c-0.9,0-1.51-0.61-1.51-1.47c0-0.85,0.6-1.46,1.41-1.46c0.81,0,1.4,0.6,1.4,1.46C206.46,321.32,206.45,321.37,206.45,321.41z
				 M204.04,321.12h2.04c-0.05-0.56-0.46-0.96-1.02-0.96C204.5,320.16,204.09,320.56,204.04,321.12z"/>
			<path d="M209.34,320.95v1.79h-0.37v-0.45c-0.18,0.3-0.52,0.48-0.99,0.48c-0.65,0-1.05-0.34-1.05-0.84c0-0.44,0.28-0.82,1.11-0.82
				h0.92v-0.17c0-0.49-0.28-0.76-0.82-0.76c-0.37,0-0.72,0.13-0.96,0.34l-0.18-0.29c0.29-0.25,0.72-0.39,1.17-0.39
				C208.92,319.83,209.34,320.2,209.34,320.95z M208.96,321.87v-0.47h-0.9c-0.56,0-0.74,0.22-0.74,0.52c0,0.33,0.27,0.54,0.73,0.54
				C208.48,322.45,208.8,322.24,208.96,321.87z"/>
			<path d="M213.04,318.67v4.06h-0.37v-0.57c-0.24,0.39-0.64,0.6-1.11,0.6c-0.82,0-1.44-0.6-1.44-1.47c0-0.87,0.61-1.46,1.44-1.46
				c0.46,0,0.85,0.2,1.1,0.57v-1.73H213.04z M212.66,321.29c0-0.67-0.46-1.12-1.07-1.12c-0.61,0-1.07,0.45-1.07,1.12
				c0,0.67,0.46,1.12,1.07,1.12C212.2,322.41,212.66,321.96,212.66,321.29z"/>
			<path d="M216.55,319.85l-1.44,3.23c-0.24,0.56-0.55,0.75-0.96,0.75c-0.27,0-0.53-0.09-0.7-0.26l0.18-0.29
				c0.14,0.14,0.32,0.22,0.53,0.22c0.26,0,0.43-0.12,0.6-0.48l0.13-0.28l-1.29-2.88H214l1.09,2.45l1.08-2.45H216.55z"/>
			<path d="M220.71,320.95v1.79h-0.37v-0.45c-0.18,0.3-0.52,0.48-0.99,0.48c-0.65,0-1.05-0.34-1.05-0.84c0-0.44,0.28-0.82,1.11-0.82
				h0.92v-0.17c0-0.49-0.28-0.76-0.82-0.76c-0.37,0-0.72,0.13-0.96,0.34l-0.18-0.29c0.29-0.25,0.72-0.39,1.17-0.39
				C220.29,319.83,220.71,320.2,220.71,320.95z M220.32,321.87v-0.47h-0.9c-0.56,0-0.74,0.22-0.74,0.52c0,0.33,0.27,0.54,0.73,0.54
				C219.85,322.45,220.17,322.24,220.32,321.87z"/>
			<path d="M227.96,321.06v1.67h-0.39v-1.63c0-0.61-0.31-0.92-0.83-0.92c-0.59,0-0.96,0.38-0.96,1.04v1.51h-0.39v-1.63
				c0-0.61-0.31-0.92-0.83-0.92c-0.59,0-0.96,0.38-0.96,1.04v1.51h-0.39v-2.88h0.37v0.53c0.2-0.34,0.58-0.55,1.06-0.55
				c0.48,0,0.85,0.2,1.02,0.61c0.21-0.37,0.62-0.61,1.14-0.61C227.5,319.83,227.96,320.23,227.96,321.06z"/>
			<path d="M231.54,321.41h-2.41c0.04,0.6,0.5,1,1.13,1c0.35,0,0.66-0.13,0.88-0.38l0.22,0.25c-0.26,0.31-0.66,0.47-1.11,0.47
				c-0.9,0-1.51-0.61-1.51-1.47c0-0.85,0.6-1.46,1.41-1.46c0.81,0,1.4,0.6,1.4,1.46C231.55,321.32,231.54,321.37,231.54,321.41z
				 M229.13,321.12h2.04c-0.05-0.56-0.46-0.96-1.02-0.96C229.59,320.16,229.18,320.56,229.13,321.12z"/>
			<path d="M237.1,321.06v1.67h-0.39v-1.63c0-0.61-0.31-0.92-0.83-0.92c-0.59,0-0.96,0.38-0.96,1.04v1.51h-0.39v-1.63
				c0-0.61-0.31-0.92-0.83-0.92c-0.59,0-0.96,0.38-0.96,1.04v1.51h-0.39v-2.88h0.37v0.53c0.2-0.34,0.58-0.55,1.06-0.55
				c0.48,0,0.85,0.2,1.02,0.61c0.21-0.37,0.62-0.61,1.14-0.61C236.64,319.83,237.1,320.23,237.1,321.06z"/>
			<path d="M241.08,321.29c0,0.87-0.61,1.47-1.43,1.47c-0.48,0-0.88-0.21-1.11-0.6v0.57h-0.37v-4.06h0.39v1.73
				c0.24-0.37,0.64-0.57,1.1-0.57C240.47,319.83,241.08,320.42,241.08,321.29z M240.69,321.29c0-0.67-0.47-1.12-1.07-1.12
				c-0.61,0-1.07,0.45-1.07,1.12c0,0.67,0.46,1.12,1.07,1.12C240.23,322.41,240.69,321.96,240.69,321.29z"/>
			<path d="M244.39,321.41h-2.41c0.04,0.6,0.5,1,1.13,1c0.35,0,0.66-0.13,0.88-0.38l0.22,0.25c-0.26,0.31-0.66,0.47-1.11,0.47
				c-0.9,0-1.51-0.61-1.51-1.47c0-0.85,0.6-1.46,1.41-1.46c0.81,0,1.4,0.6,1.4,1.46C244.39,321.32,244.39,321.37,244.39,321.41z
				 M241.98,321.12h2.04c-0.05-0.56-0.46-0.96-1.02-0.96C242.44,320.16,242.03,320.56,241.98,321.12z"/>
			<path d="M246.64,319.83v0.38c-0.03,0-0.07-0.01-0.09-0.01c-0.6,0-0.97,0.38-0.97,1.06v1.47h-0.39v-2.88h0.37v0.56
				C245.74,320.03,246.11,319.83,246.64,319.83z"/>
			<path d="M249.16,319.88c0-0.39-0.32-0.67-0.88-0.67c-0.47,0-0.81,0.15-1.05,0.44l-0.29-0.22c0.3-0.36,0.75-0.57,1.36-0.57
				c0.77,0,1.26,0.37,1.26,0.95c0,0.94-1,0.98-1,1.76h-0.41C248.16,320.68,249.16,320.59,249.16,319.88z M248.08,322.47
				c0-0.16,0.13-0.28,0.28-0.28c0.16,0,0.29,0.12,0.29,0.28c0,0.15-0.13,0.29-0.29,0.29C248.2,322.76,248.08,322.63,248.08,322.47z"
				/>
			<path d="M251.87,318.9h0.89v3.11h1.92v0.72h-2.81V318.9z"/>
			<path d="M254.88,321.26c0-0.89,0.68-1.52,1.62-1.52c0.94,0,1.62,0.63,1.62,1.52c0,0.89-0.68,1.52-1.62,1.52
				C255.57,322.78,254.88,322.15,254.88,321.26z M257.25,321.26c0-0.51-0.32-0.82-0.75-0.82c-0.43,0-0.76,0.31-0.76,0.82
				c0,0.51,0.33,0.82,0.76,0.82C256.93,322.07,257.25,321.77,257.25,321.26z"/>
			<path d="M261.73,319.78v2.45c0,1.1-0.59,1.6-1.65,1.6c-0.56,0-1.1-0.14-1.45-0.41l0.34-0.61c0.25,0.2,0.66,0.33,1.04,0.33
				c0.6,0,0.87-0.27,0.87-0.81v-0.13c-0.22,0.25-0.55,0.37-0.93,0.37c-0.82,0-1.47-0.56-1.47-1.42c0-0.86,0.66-1.42,1.47-1.42
				c0.41,0,0.75,0.14,0.98,0.42v-0.38H261.73z M260.89,321.17c0-0.43-0.32-0.72-0.77-0.72c-0.45,0-0.78,0.29-0.78,0.72
				c0,0.43,0.33,0.72,0.78,0.72C260.57,321.89,260.89,321.6,260.89,321.17z"/>
			<path d="M263.98,318.9c0-0.27,0.21-0.48,0.53-0.48c0.32,0,0.53,0.2,0.53,0.46c0,0.28-0.21,0.49-0.53,0.49
				C264.19,319.37,263.98,319.17,263.98,318.9z M264.08,319.78h0.85v2.95h-0.85V319.78z"/>
			<path d="M268.74,321.04v1.69h-0.85v-1.56c0-0.48-0.22-0.7-0.6-0.7c-0.41,0-0.71,0.25-0.71,0.79v1.46h-0.85v-2.95h0.82v0.35
				c0.23-0.25,0.58-0.39,0.98-0.39C268.22,319.74,268.74,320.15,268.74,321.04z"/>
		</g>
		<rect x="167.08" y="330.63" style="fill:#407BFF;" width="130.84" height="22.4"/>
		<g>
			<path style="fill:#FFFFFF;" d="M215.6,345.31l-1.65-2.36c-0.15,0.01-0.32,0.02-0.48,0.02h-1.9v2.33h-1.1v-7.67h2.99
				c1.99,0,3.2,1.01,3.2,2.67c0,1.18-0.61,2.04-1.69,2.42l1.82,2.57H215.6z M215.57,340.32c0-1.1-0.73-1.72-2.14-1.72h-1.86v3.45
				h1.86C214.84,342.05,215.57,341.41,215.57,340.32z"/>
			<path style="fill:#FFFFFF;" d="M223.52,342.76h-4.71c0.13,1.02,0.95,1.7,2.1,1.7c0.68,0,1.25-0.23,1.68-0.7l0.58,0.68
				c-0.53,0.61-1.33,0.94-2.29,0.94c-1.87,0-3.12-1.24-3.12-2.97c0-1.72,1.24-2.96,2.91-2.96c1.68,0,2.87,1.21,2.87,2.99
				C223.54,342.53,223.53,342.66,223.52,342.76z M218.81,342h3.73c-0.11-0.98-0.84-1.67-1.86-1.67
				C219.66,340.34,218.92,341.02,218.81,342z"/>
			<path style="fill:#FFFFFF;" d="M230.56,339.51v5.02c0,2.05-1.04,2.98-3.01,2.98c-1.06,0-2.14-0.3-2.77-0.87l0.5-0.81
				c0.54,0.46,1.38,0.76,2.23,0.76c1.37,0,1.99-0.63,1.99-1.95v-0.46c-0.5,0.6-1.26,0.9-2.09,0.9c-1.68,0-2.95-1.14-2.95-2.82
				c0-1.68,1.27-2.8,2.95-2.8c0.87,0,1.65,0.32,2.15,0.95v-0.9H230.56z M229.53,342.26c0-1.13-0.83-1.88-1.99-1.88
				c-1.17,0-2,0.76-2,1.88c0,1.12,0.83,1.9,2,1.9C228.69,344.15,229.53,343.37,229.53,342.26z"/>
			<path style="fill:#FFFFFF;" d="M232.38,337.71c0-0.38,0.31-0.69,0.71-0.69c0.41,0,0.71,0.3,0.71,0.67c0,0.39-0.3,0.7-0.71,0.7
				C232.69,338.39,232.38,338.09,232.38,337.71z M232.57,339.51h1.05v5.81h-1.05V339.51z"/>
			<path style="fill:#FFFFFF;" d="M234.89,344.7l0.44-0.83c0.49,0.35,1.28,0.6,2.04,0.6c0.98,0,1.38-0.3,1.38-0.79
				c0-1.3-3.67-0.17-3.67-2.49c0-1.04,0.93-1.74,2.42-1.74c0.76,0,1.61,0.2,2.11,0.53l-0.45,0.83c-0.53-0.34-1.11-0.46-1.68-0.46
				c-0.92,0-1.37,0.34-1.37,0.8c0,1.37,3.68,0.25,3.68,2.51c0,1.05-0.96,1.72-2.51,1.72C236.33,345.38,235.37,345.08,234.89,344.7z"
				/>
			<path style="fill:#FFFFFF;" d="M244.38,344.97c-0.32,0.27-0.8,0.41-1.27,0.41c-1.17,0-1.84-0.65-1.84-1.82v-3.19h-0.99v-0.87
				h0.99v-1.27h1.05v1.27h1.67v0.87h-1.67v3.14c0,0.62,0.33,0.98,0.91,0.98c0.31,0,0.6-0.1,0.82-0.27L244.38,344.97z"/>
			<path style="fill:#FFFFFF;" d="M250.68,342.76h-4.71c0.13,1.02,0.95,1.7,2.1,1.7c0.68,0,1.25-0.23,1.68-0.7l0.58,0.68
				c-0.53,0.61-1.33,0.94-2.29,0.94c-1.87,0-3.12-1.24-3.12-2.97c0-1.72,1.24-2.96,2.91-2.96c1.68,0,2.87,1.21,2.87,2.99
				C250.71,342.53,250.7,342.66,250.68,342.76z M245.97,342h3.73c-0.11-0.98-0.84-1.67-1.86-1.67
				C246.83,340.34,246.08,341.02,245.97,342z"/>
			<path style="fill:#FFFFFF;" d="M255.29,339.45v1.02c-0.09-0.01-0.16-0.01-0.24-0.01c-1.13,0-1.83,0.69-1.83,1.96v2.89h-1.05
				v-5.81h1.01v0.98C253.55,339.8,254.27,339.45,255.29,339.45z"/>
		</g>
		<g style="opacity:0.6;">
			<path style="fill:#263238;" d="M209.59,177.61l0.44-0.94c0.62,0.56,1.69,0.97,2.77,0.97c1.45,0,2.07-0.56,2.07-1.3
				c0-2.05-5.08-0.76-5.08-3.87c0-1.3,1.01-2.4,3.21-2.4c0.98,0,2,0.26,2.7,0.74l-0.4,0.96c-0.73-0.47-1.56-0.68-2.3-0.68
				c-1.43,0-2.04,0.6-2.04,1.33c0,2.05,5.08,0.77,5.08,3.85c0,1.28-1.03,2.39-3.25,2.39C211.52,178.66,210.27,178.23,209.59,177.61z
				"/>
			<path style="fill:#263238;" d="M217.44,170.24c0-0.42,0.34-0.76,0.78-0.76c0.44,0,0.78,0.32,0.78,0.73
				c0,0.43-0.32,0.77-0.78,0.77C217.78,170.99,217.44,170.66,217.44,170.24z M217.64,172.21h1.15v6.36h-1.15V172.21z"/>
			<path style="fill:#263238;" d="M227.07,172.21v5.49c0,2.24-1.14,3.26-3.3,3.26c-1.16,0-2.34-0.32-3.03-0.95l0.55-0.89
				c0.59,0.5,1.51,0.83,2.45,0.83c1.5,0,2.18-0.7,2.18-2.13v-0.5c-0.55,0.66-1.38,0.98-2.29,0.98c-1.83,0-3.23-1.25-3.23-3.08
				c0-1.83,1.39-3.07,3.23-3.07c0.95,0,1.81,0.35,2.35,1.04v-0.98H227.07z M225.95,175.22c0-1.24-0.91-2.06-2.18-2.06
				c-1.28,0-2.19,0.83-2.19,2.06c0,1.22,0.91,2.07,2.19,2.07C225.03,177.3,225.95,176.44,225.95,175.22z"/>
			<path style="fill:#263238;" d="M235.31,174.91v3.66h-1.15v-3.53c0-1.25-0.62-1.86-1.71-1.86c-1.22,0-2.02,0.73-2.02,2.11v3.27
				h-1.15v-6.36h1.1v0.96c0.47-0.65,1.28-1.02,2.29-1.02C234.21,172.15,235.31,173.04,235.31,174.91z"/>
			<path style="fill:#263238;" d="M246.6,172.21v6.36h-1.09v-0.96c-0.47,0.66-1.26,1.03-2.16,1.03c-1.64,0-2.73-0.9-2.73-2.77v-3.66
				h1.15v3.53c0,1.25,0.62,1.87,1.72,1.87c1.2,0,1.97-0.74,1.97-2.11v-3.29H246.6z"/>
			<path style="fill:#263238;" d="M255.38,175.39c0,1.96-1.36,3.25-3.21,3.25c-0.9,0-1.69-0.35-2.22-1.03v3.29h-1.15v-8.68h1.1v1.01
				c0.52-0.71,1.33-1.07,2.27-1.07C254.03,172.15,255.38,173.45,255.38,175.39z M254.22,175.39c0-1.34-0.92-2.23-2.15-2.23
				c-1.21,0-2.13,0.89-2.13,2.23c0,1.36,0.92,2.24,2.13,2.24C253.29,177.63,254.22,176.75,254.22,175.39z"/>
		</g>
		<g>
			<rect x="167.08" y="225.54" style="fill:#FFFFFF;" width="130.84" height="22.4"/>
			<g style="opacity:0.4;">
				<path style="fill:#263238;" d="M174.24,233.09h0.68v5.83h3.59v0.59h-4.27V233.09z"/>
				<path style="fill:#263238;" d="M183.16,236.52v2.99h-0.62v-0.75c-0.29,0.5-0.86,0.8-1.66,0.8c-1.09,0-1.76-0.57-1.76-1.4
					c0-0.74,0.48-1.37,1.86-1.37h1.53v-0.29c0-0.83-0.47-1.28-1.37-1.28c-0.62,0-1.21,0.22-1.6,0.57l-0.29-0.49
					c0.49-0.41,1.2-0.65,1.96-0.65C182.45,234.65,183.16,235.28,183.16,236.52z M182.51,238.06v-0.79H181
					c-0.94,0-1.24,0.37-1.24,0.86c0,0.56,0.45,0.91,1.22,0.91C181.71,239.04,182.25,238.7,182.51,238.06z"/>
				<path style="fill:#263238;" d="M184.26,238.96l0.29-0.51c0.39,0.3,1.04,0.54,1.71,0.54c0.92,0,1.29-0.31,1.29-0.79
					c0-1.26-3.13-0.27-3.13-2.17c0-0.79,0.68-1.38,1.91-1.38c0.62,0,1.3,0.17,1.71,0.45l-0.28,0.52c-0.42-0.29-0.93-0.41-1.42-0.41
					c-0.87,0-1.26,0.34-1.26,0.8c0,1.3,3.13,0.32,3.13,2.17c0,0.83-0.73,1.38-1.99,1.38C185.43,239.56,184.66,239.3,184.26,238.96z"
					/>
				<path style="fill:#263238;" d="M191.96,239.22c-0.26,0.23-0.64,0.34-1.02,0.34c-0.91,0-1.41-0.51-1.41-1.4v-2.92h-0.86v-0.55
					h0.86v-1.05h0.65v1.05h1.47v0.55h-1.47v2.88c0,0.57,0.29,0.88,0.83,0.88c0.27,0,0.53-0.08,0.72-0.25L191.96,239.22z"/>
				<path style="fill:#263238;" d="M201.04,233.09v6.42h-0.56l-4.13-5.21v5.21h-0.68v-6.42h0.56l4.14,5.21v-5.21H201.04z"/>
				<path style="fill:#263238;" d="M206.64,236.52v2.99h-0.62v-0.75c-0.29,0.5-0.86,0.8-1.66,0.8c-1.09,0-1.76-0.57-1.76-1.4
					c0-0.74,0.48-1.37,1.86-1.37h1.53v-0.29c0-0.83-0.47-1.28-1.37-1.28c-0.62,0-1.21,0.22-1.61,0.57l-0.29-0.49
					c0.49-0.41,1.2-0.65,1.96-0.65C205.93,234.65,206.64,235.28,206.64,236.52z M205.99,238.06v-0.79h-1.51
					c-0.94,0-1.24,0.37-1.24,0.86c0,0.56,0.45,0.91,1.22,0.91C205.19,239.04,205.73,238.7,205.99,238.06z"/>
				<path style="fill:#263238;" d="M216.37,236.71v2.8h-0.65v-2.73c0-1.02-0.51-1.54-1.38-1.54c-0.99,0-1.61,0.64-1.61,1.74v2.53
					h-0.65v-2.73c0-1.02-0.51-1.54-1.39-1.54c-0.98,0-1.61,0.64-1.61,1.74v2.53h-0.65v-4.82h0.62v0.88
					c0.34-0.58,0.96-0.92,1.77-0.92c0.8,0,1.42,0.34,1.71,1.02c0.35-0.62,1.04-1.02,1.91-1.02
					C215.6,234.65,216.37,235.33,216.37,236.71z"/>
				<path style="fill:#263238;" d="M222.36,237.3h-4.04c0.07,1.01,0.84,1.68,1.9,1.68c0.59,0,1.11-0.21,1.48-0.63l0.37,0.42
					c-0.43,0.51-1.1,0.79-1.86,0.79c-1.5,0-2.53-1.03-2.53-2.46c0-1.43,1-2.45,2.36-2.45c1.36,0,2.34,1,2.34,2.45
					C222.37,237.16,222.36,237.23,222.36,237.3z M218.32,236.82h3.42c-0.08-0.94-0.77-1.6-1.71-1.6
					C219.09,235.21,218.4,235.87,218.32,236.82z"/>
			</g>
		</g>
		<g>
			<rect x="167.08" y="194.94" style="fill:#FFFFFF;" width="130.84" height="22.4"/>
			<g style="opacity:0.4;">
				<path style="fill:#263238;" d="M174.92,203.08v2.52h3.32v0.59h-3.32v2.72h-0.68v-6.42h4.4v0.59H174.92z"/>
				<path style="fill:#263238;" d="M179.67,202.56c0-0.25,0.21-0.46,0.48-0.46c0.27,0,0.48,0.2,0.48,0.45c0,0.27-0.2,0.48-0.48,0.48
					C179.88,203.03,179.67,202.82,179.67,202.56z M179.81,204.09h0.65v4.82h-0.65V204.09z"/>
				<path style="fill:#263238;" d="M184.71,204.05v0.63c-0.05,0-0.11-0.01-0.16-0.01c-1.01,0-1.62,0.64-1.62,1.78v2.46h-0.65v-4.82
					h0.62v0.94C183.21,204.39,183.82,204.05,184.71,204.05z"/>
				<path style="fill:#263238;" d="M185.25,208.36l0.29-0.51c0.39,0.3,1.04,0.54,1.71,0.54c0.92,0,1.29-0.31,1.29-0.79
					c0-1.26-3.13-0.27-3.13-2.17c0-0.79,0.68-1.38,1.91-1.38c0.62,0,1.3,0.17,1.71,0.45l-0.28,0.52c-0.42-0.29-0.93-0.41-1.42-0.41
					c-0.87,0-1.26,0.34-1.26,0.8c0,1.3,3.13,0.32,3.13,2.17c0,0.83-0.73,1.38-1.99,1.38C186.42,208.95,185.65,208.7,185.25,208.36z"
					/>
				<path style="fill:#263238;" d="M192.95,208.62c-0.26,0.23-0.64,0.34-1.02,0.34c-0.91,0-1.41-0.51-1.41-1.4v-2.92h-0.86v-0.55
					h0.86v-1.05h0.65v1.05h1.47v0.55h-1.47v2.88c0,0.57,0.29,0.88,0.83,0.88c0.27,0,0.53-0.08,0.72-0.25L192.95,208.62z"/>
				<path style="fill:#263238;" d="M202.03,202.49v6.42h-0.56l-4.13-5.21v5.21h-0.68v-6.42h0.56l4.14,5.21v-5.21H202.03z"/>
				<path style="fill:#263238;" d="M207.63,205.92v2.99H207v-0.75c-0.29,0.5-0.86,0.8-1.66,0.8c-1.09,0-1.76-0.57-1.76-1.4
					c0-0.74,0.48-1.37,1.86-1.37h1.53v-0.29c0-0.83-0.47-1.27-1.37-1.27c-0.62,0-1.21,0.22-1.6,0.57l-0.29-0.49
					c0.49-0.41,1.2-0.65,1.96-0.65C206.92,204.05,207.63,204.67,207.63,205.92z M206.98,207.46v-0.79h-1.51
					c-0.94,0-1.24,0.37-1.24,0.86c0,0.56,0.45,0.91,1.22,0.91C206.18,208.44,206.72,208.09,206.98,207.46z"/>
				<path style="fill:#263238;" d="M217.36,206.11v2.8h-0.65v-2.73c0-1.02-0.51-1.54-1.38-1.54c-0.99,0-1.61,0.64-1.61,1.74v2.53
					h-0.65v-2.73c0-1.02-0.51-1.54-1.39-1.54c-0.98,0-1.61,0.64-1.61,1.74v2.53h-0.65v-4.82h0.62v0.88
					c0.34-0.58,0.96-0.92,1.77-0.92c0.8,0,1.42,0.34,1.71,1.02c0.35-0.62,1.04-1.02,1.91-1.02
					C216.59,204.05,217.36,204.73,217.36,206.11z"/>
				<path style="fill:#263238;" d="M223.35,206.7h-4.04c0.07,1.01,0.84,1.68,1.9,1.68c0.59,0,1.11-0.21,1.48-0.63l0.37,0.42
					c-0.43,0.51-1.1,0.79-1.86,0.79c-1.5,0-2.53-1.03-2.53-2.46c0-1.43,1-2.45,2.36-2.45c1.36,0,2.34,1,2.34,2.45
					C223.36,206.55,223.35,206.62,223.35,206.7z M219.31,206.21h3.42c-0.08-0.94-0.77-1.6-1.71-1.6
					C220.08,204.61,219.4,205.27,219.31,206.21z"/>
			</g>
		</g>
	</g>
</g>
<g id="Plant">
	<g>
		<g>
			<path style="fill:none;stroke:#407BFF;stroke-width:0.9446;stroke-miterlimit:10;" d="M136.44,345.55c0,0-6.62-5.52-12.3,0
				c-5.68,5.52-6.77,39.71-6.77,39.71"/>
			<path style="fill:none;stroke:#407BFF;stroke-width:0.9446;stroke-miterlimit:10;" d="M116.9,391.86c0,0,3.9-40.13-10.79-56.99"
				/>
			<path style="fill:none;stroke:#407BFF;stroke-width:0.9446;stroke-miterlimit:10;" d="M118.3,387.63c0,0-3.01-45.68,8.01-55.81"
				/>
			<path style="fill:none;stroke:#407BFF;stroke-width:0.9446;stroke-miterlimit:10;" d="M116.9,387.63c0,0-0.26-30.19-8.44-34.88
				c-8.19-4.69-12.36,10.61-12.36,10.61"/>
			<path style="fill:none;stroke:#407BFF;stroke-width:0.9446;stroke-miterlimit:10;" d="M120.14,387.63c0,0-1.34-23.17,5.01-31.46
				c6.34-8.28,13.02,3.55,13.02,3.55"/>
			<path style="fill:none;stroke:#407BFF;stroke-width:0.9446;stroke-miterlimit:10;" d="M117.93,390.74c0,0,4.1-54.19-2.69-63.38"
				/>
		</g>
		<g>
			<path style="fill:#407BFF;" d="M101.45,357.15c0,0,4.08,1.51,2.87,5.06c-1.21,3.55-14.12,9.4-14.12,9.4s-5.41-4.96-0.44-13.02
				C94.72,350.54,101.34,354.61,101.45,357.15z"/>
			<path style="opacity:0.2;enable-background:new    ;" d="M101.45,357.15c0,0,4.08,1.51,2.87,5.06c-1.21,3.55-14.12,9.4-14.12,9.4
				s-5.41-4.96-0.44-13.02C94.72,350.54,101.34,354.61,101.45,357.15z"/>
		</g>
		<g>
			<path style="fill:#407BFF;" d="M119.2,350.39c0,0-4.35-0.18-4.59,3.57c-0.25,3.75,9.42,14.11,9.42,14.11s6.9-2.49,5.42-11.84
				C127.96,346.87,120.28,348.08,119.2,350.39z"/>
			<path style="opacity:0.2;enable-background:new    ;" d="M119.2,350.39c0,0-4.35-0.18-4.59,3.57
				c-0.25,3.75,9.42,14.11,9.42,14.11s6.9-2.49,5.42-11.84C127.96,346.87,120.28,348.08,119.2,350.39z"/>
		</g>
		<g>
			<path style="fill:#407BFF;" d="M122.88,332.45c0,0-2.9-0.31-2.67-2.08c0.23-1.77,11.27-6.31,17.78,1.04c0,0-4.17,7.16-10.2,7.25
				C121.77,338.76,122.88,332.45,122.88,332.45z"/>
			<path style="opacity:0.2;enable-background:new    ;" d="M122.88,332.45c0,0-2.9-0.31-2.67-2.08c0.23-1.77,11.27-6.31,17.78,1.04
				c0,0-4.17,7.16-10.2,7.25C121.77,338.76,122.88,332.45,122.88,332.45z"/>
		</g>
		<g>
			<path style="fill:#407BFF;" d="M117.48,328.16c0,0,2.62,1.27,3.36-0.35c0.74-1.62-6.23-11.32-15.64-8.52
				c0,0-0.25,8.28,4.82,11.55C115.08,334.11,117.48,328.16,117.48,328.16z"/>
			<path style="opacity:0.2;enable-background:new    ;" d="M117.48,328.16c0,0,2.62,1.27,3.36-0.35
				c0.74-1.62-6.23-11.32-15.64-8.52c0,0-0.25,8.28,4.82,11.55C115.08,334.11,117.48,328.16,117.48,328.16z"/>
		</g>
		<g>
			<path style="fill:#407BFF;" d="M131.2,355.73c0,0-2-1.62,0.16-2.4c2.16-0.79,12.75-0.56,12.86,9.93c0,0-12.34,2.05-13.87-1.95
				C128.83,357.31,131.2,355.73,131.2,355.73z"/>
			<path style="opacity:0.2;enable-background:new    ;" d="M131.2,355.73c0,0-2-1.62,0.16-2.4c2.16-0.79,12.75-0.56,12.86,9.93
				c0,0-12.34,2.05-13.87-1.95C128.83,357.31,131.2,355.73,131.2,355.73z"/>
		</g>
		<g>
			<path style="fill:#407BFF;" d="M106.04,332.19c0,0,2-1.62-0.16-2.4c-2.16-0.79-12.75-0.56-12.86,9.93c0,0,12.34,2.05,13.87-1.95
				C108.41,333.77,106.04,332.19,106.04,332.19z"/>
			<path style="opacity:0.2;enable-background:new    ;" d="M106.04,332.19c0,0,2-1.62-0.16-2.4c-2.16-0.79-12.75-0.56-12.86,9.93
				c0,0,12.34,2.05,13.87-1.95C108.41,333.77,106.04,332.19,106.04,332.19z"/>
		</g>
		<g>
			<path style="fill:#407BFF;" d="M112.56,340.64c0,0,0.18-1.96-1.41-1.19c-1.59,0.77-7.11,6.73-1.38,12.38c0,0,7.71-5.71,6.32-8.68
				C114.7,340.18,112.56,340.64,112.56,340.64z"/>
			<path style="opacity:0.2;enable-background:new    ;" d="M112.56,340.64c0,0,0.18-1.96-1.41-1.19
				c-1.59,0.77-7.11,6.73-1.38,12.38c0,0,7.71-5.71,6.32-8.68C114.7,340.18,112.56,340.64,112.56,340.64z"/>
		</g>
		<g>
			<path style="fill:#407BFF;" d="M132.99,343.44c0,0-1.2-1.57,0.56-1.76c1.75-0.19,9.6,1.9,7.77,9.74c0,0-9.56-0.72-9.97-3.97
				C130.94,344.19,132.99,343.44,132.99,343.44z"/>
			<path style="opacity:0.2;enable-background:new    ;" d="M132.99,343.44c0,0-1.2-1.57,0.56-1.76c1.75-0.19,9.6,1.9,7.77,9.74
				c0,0-9.56-0.72-9.97-3.97C130.94,344.19,132.99,343.44,132.99,343.44z"/>
		</g>
		<polygon style="fill:#263238;" points="102.16,416.72 133.07,416.72 137.18,386.66 98.05,386.66 		"/>
		<polygon style="opacity:0.2;fill:#FFFFFF;enable-background:new    ;" points="102.16,416.72 133.07,416.72 137.18,386.66 
			98.05,386.66 		"/>
		<path style="fill:#263238;" d="M141.06,384.22v2.86c0,1.91-1.55,3.46-3.46,3.46H97.25c-1.91,0-3.46-1.55-3.46-3.46v-2.86H141.06z"
			/>
	</g>
</g>
<g id="Speech_bubble">
	<g>
		<g>
			<path style="fill:#407BFF;" d="M398.62,99.31h-28.73c-4.89,0-8.85,3.96-8.85,8.85v25c0,4.89,3.96,8.85,8.85,8.85h8.39l-2.03,7.89
				l7.98-7.89h14.39c4.89,0,8.85-3.96,8.85-8.85v-25C407.47,103.27,403.51,99.31,398.62,99.31z"/>
			<path style="opacity:0.7;fill:#FFFFFF;" d="M398.62,99.31h-28.73c-4.89,0-8.85,3.96-8.85,8.85v25c0,4.89,3.96,8.85,8.85,8.85
				h8.39l-2.03,7.89l7.98-7.89h14.39c4.89,0,8.85-3.96,8.85-8.85v-25C407.47,103.27,403.51,99.31,398.62,99.31z"/>
		</g>
		<g>
			<g style="enable-background:new    ;">
				
					<ellipse transform="matrix(0.7071 -0.7071 0.7071 0.7071 27.3078 307.0175)" style="fill:#407BFF;" cx="384.26" cy="120.55" rx="14.26" ry="14.26"/>
			</g>
			<g>
				<path style="fill:#FFFFFF;" d="M382.76,126.91c-0.38,0-0.75-0.17-1-0.46l-5.59-6.59c-0.47-0.55-0.4-1.38,0.15-1.85
					c0.55-0.47,1.38-0.4,1.85,0.15l4.6,5.41l7.59-8.94c0.47-0.55,1.3-0.62,1.85-0.15c0.55,0.47,0.62,1.3,0.15,1.85l-8.59,10.12
					C383.51,126.75,383.15,126.91,382.76,126.91z"/>
			</g>
		</g>
	</g>
</g>
<g id="Character">
	<g>
		<g>
			<path style="fill:#407BFF;" d="M393.64,253.56c0,0-17.41-2.19-43.79,5.04c0,0-4.25-47.14-3.74-53.61s40.72-4.58,40.72-4.58
				s1.04,18.87,3.63,30.25C393.05,242.04,394.97,251.37,393.64,253.56z"/>
			<path style="opacity:0.2;" d="M393.64,253.56c0,0-17.41-2.19-43.79,5.04c0,0-4.25-47.14-3.74-53.61s40.72-4.58,40.72-4.58
				s1.04,18.87,3.63,30.25C393.05,242.04,394.97,251.37,393.64,253.56z"/>
		</g>
		<polygon style="fill:#E4897B;" points="337.13,409.62 344.23,411.63 345.92,400.58 346.83,394.67 339.73,392.66 338.52,400.58 		
			"/>
		<polygon style="fill:#E4897B;" points="377.95,410.2 385.27,411.17 385.34,400.58 385.39,394 378.06,393.04 378.01,400.58 		"/>
		<polygon style="opacity:0.2;" points="378.06,393.04 378.01,400.58 385.34,400.58 385.39,394 		"/>
		<polygon style="opacity:0.2;" points="338.52,400.58 345.92,400.58 346.83,394.67 339.73,392.66 		"/>
		<g>
			<path style="fill:#E4897B;" d="M305.61,208.81l-7.05-2.08l1.29,8.05c0,0,6.4,1.48,7.02-1.85L305.61,208.81z"/>
			<polygon style="fill:#E4897B;" points="291.52,208.6 294.98,215.14 299.85,214.78 298.56,206.73 			"/>
		</g>
		<polygon style="fill:#E4897B;" points="315.34,210.87 303.76,208.28 302.71,213.9 313.22,216.46 		"/>
		<path style="fill:#407BFF;" d="M350.37,205.79c0,0-0.25,0.3-0.68,0.81c-1.46,1.71-5.03,5.84-8.69,9.4c-3,2.9-6.04,5.43-8.02,5.94
			c-5.67,1.46-26.28-4.61-26.28-4.61l2.13-8.36c0,0,19.2,2.55,20.69,2.55c1.13,0,12.81-16.92,15.64-18.31L350.37,205.79z"/>
		<path style="opacity:0.2;" d="M349.69,206.6c-1.46,1.71-5.03,5.84-8.69,9.4c0.74-5.86,2.89-11.24,5.72-14.64
			c0.3-0.36,0.6-0.66,0.9-0.88L349.69,206.6z"/>
		<g>
			<path style="fill:#263238;" d="M337.22,408.51l8.06-0.22c0.3-0.01,0.57,0.19,0.65,0.48l1.69,6.49c0.18,0.67-0.32,1.33-1.02,1.34
				c-2.91,0.03-7.12-0.03-10.78,0.07c-4.27,0.12-6.99-0.09-12.01,0.04c-3.03,0.08-3.98-2.95-2.72-3.26
				c5.73-1.41,9.48-1.13,14.36-4.33C335.99,408.79,336.58,408.53,337.22,408.51z"/>
			<path style="fill:#407BFF;" d="M336.52,409.55c-0.01,0-0.01,0.01-0.02,0.01c-1.18,0.27-3.29,0.61-4.12-0.08
				c-0.25-0.21-0.37-0.49-0.36-0.84c0.01-0.21,0.1-0.37,0.27-0.47c0.88-0.53,3.9,0.9,4.24,1.06c0.07,0.03,0.11,0.1,0.1,0.18
				C336.63,409.47,336.59,409.53,336.52,409.55z M332.54,408.44c-0.02,0.01-0.04,0.02-0.06,0.03c-0.07,0.04-0.1,0.1-0.1,0.19
				c-0.01,0.24,0.07,0.42,0.23,0.55c0.47,0.39,1.69,0.43,3.31,0.11C334.72,408.8,333.09,408.23,332.54,408.44z"/>
			<path style="fill:#407BFF;" d="M336.52,409.55c-0.04,0.02-0.09,0.02-0.13,0c-0.91-0.37-2.73-1.92-2.62-2.75
				c0.03-0.2,0.16-0.44,0.63-0.5c0.36-0.05,0.69,0.05,0.98,0.27c0.97,0.74,1.24,2.72,1.25,2.8c0.01,0.06-0.02,0.12-0.07,0.16
				C336.56,409.53,336.54,409.54,336.52,409.55z M334.28,406.68c-0.14,0.05-0.15,0.13-0.16,0.16c-0.06,0.5,1.18,1.72,2.11,2.24
				c-0.12-0.58-0.42-1.75-1.06-2.24c-0.22-0.17-0.46-0.24-0.72-0.2C334.38,406.65,334.32,406.66,334.28,406.68z"/>
		</g>
		<g>
			<path style="fill:#263238;" d="M378.24,408.51l8.06-0.22c0.3-0.01,0.57,0.19,0.65,0.48l1.69,6.49c0.18,0.67-0.32,1.33-1.02,1.34
				c-2.91,0.03-7.12-0.03-10.78,0.07c-4.27,0.12-6.99-0.09-12.01,0.04c-3.03,0.08-3.98-2.95-2.72-3.26
				c5.73-1.41,9.48-1.13,14.36-4.33C377.01,408.79,377.6,408.53,378.24,408.51z"/>
			<path style="fill:#407BFF;" d="M377.55,409.55c-0.01,0-0.01,0.01-0.02,0.01c-1.18,0.27-3.29,0.61-4.12-0.08
				c-0.25-0.21-0.37-0.49-0.36-0.84c0.01-0.21,0.1-0.37,0.27-0.47c0.88-0.53,3.9,0.9,4.24,1.06c0.07,0.03,0.11,0.1,0.1,0.18
				C377.65,409.47,377.61,409.53,377.55,409.55z M373.56,408.44c-0.02,0.01-0.04,0.02-0.06,0.03c-0.07,0.04-0.1,0.1-0.1,0.19
				c-0.01,0.24,0.07,0.42,0.23,0.55c0.47,0.39,1.69,0.43,3.31,0.11C375.74,408.8,374.11,408.23,373.56,408.44z"/>
			<path style="fill:#407BFF;" d="M377.55,409.55c-0.04,0.02-0.09,0.02-0.13,0c-0.91-0.37-2.73-1.92-2.62-2.75
				c0.02-0.2,0.16-0.44,0.63-0.5c0.36-0.05,0.69,0.05,0.98,0.27c0.97,0.74,1.24,2.72,1.25,2.8c0.01,0.06-0.02,0.12-0.07,0.16
				C377.58,409.53,377.57,409.54,377.55,409.55z M375.3,406.68c-0.14,0.05-0.15,0.13-0.16,0.16c-0.06,0.5,1.18,1.72,2.11,2.24
				c-0.12-0.58-0.42-1.75-1.06-2.24c-0.22-0.17-0.46-0.24-0.72-0.2C375.41,406.65,375.35,406.66,375.3,406.68z"/>
		</g>
		<path style="fill:#263238;" d="M393.05,249.26c3.88,16.82-2.78,149.07-2.78,149.07h-12.86l-5.5-110.22l-20.26,110.22l-13.75-1
			c8.99-85.38,16.93-136.35,16.93-136.35l-0.02-6.44L393.05,249.26z"/>
		<path style="opacity:0.4;fill:#FFFFFF;" d="M337.91,397.32l13.75,1l15.94-86.76l4.31-23.45l5.5,110.21h12.86
			c0,0,6.66-132.25,2.78-149.06l-38.23,5.27l0.02,6.44C354.84,260.97,346.9,311.94,337.91,397.32z"/>
		<g>
			<path style="fill:#263238;" d="M386.12,186.99c-0.46,8.24-0.11,16.45,0.61,24.1c0.53,5.6,1.28,10.89,2.07,15.66
				c1.85,11.19,3.95,19.58,4.25,22.51c-5.6,0.77-26.72,3.69-38.23,5.27c-13.94-38.98-8.69-61.66-8.69-61.66s3.99-1.7,8.77-3
				c0.63-0.17,1.27-0.33,1.93-0.48c4.24-0.98,11.34-1.8,16.25-2.24c1.03-0.09,2.09-0.16,3.11-0.21
				C381.41,186.69,386.12,186.99,386.12,186.99z"/>
		</g>
		<g>
			<path style="fill:#E4897B;" d="M365.66,169.45c0.28,5.35,0.85,15.39,5.3,17.94c0,0-2.77,5.27-8.76,5.81
				c-4.53,0.41-4.23-4.06-4.23-4.06c2.62-1.96,1.99-5.27,0-9L365.66,169.45z"/>
			<path style="opacity:0.2;" d="M362.52,173.81l-4.56,6.32c0.48,0.88,0.9,1.79,1.2,2.7c2.11-0.84,4.51-3.96,4.17-6.29
				C363.16,175.37,362.84,174.29,362.52,173.81z"/>
		</g>
		<g>
			<path style="fill:#263238;" d="M346.16,158.68c-0.87,2.78-0.39,8.48,3.48,6.62S347.66,153.91,346.16,158.68z"/>
			<path style="fill:#E4897B;" d="M366.16,162.44c0.43,7.13,1.04,11.29-2.11,15.33c-4.73,6.07-13.89,3.81-16.45-3.07
				c-2.3-6.19-2.61-16.82,4-20.41C358.11,150.73,365.73,155.3,366.16,162.44z"/>
			<path style="fill:#263238;" d="M361.16,158.56v-7.97c0,0,8.48-0.63,8.1,3.71c4.7,2.33,2.48,9.64-3.83,13.22
				c-3.46-2.77-3.06-9.43-3.06-9.43C361.99,158.25,361.58,158.41,361.16,158.56z"/>
			<path style="fill:#E4897B;" d="M369.61,168c-0.34,1.89-1.53,3.44-2.85,4.31c-1.99,1.31-3.72-0.3-3.79-2.55
				c-0.06-2.03,0.89-5.16,3.18-5.56C368.41,163.81,370,165.84,369.61,168z"/>
			<path style="fill:#263238;" d="M355.63,165.62c0.07,0.58-0.18,1.08-0.56,1.12c-0.38,0.04-0.74-0.39-0.81-0.97
				c-0.07-0.58,0.18-1.08,0.56-1.12C355.19,164.61,355.56,165.04,355.63,165.62z"/>
			<path style="fill:#263238;" d="M349.09,166.35c0.07,0.58-0.18,1.08-0.56,1.12c-0.38,0.04-0.74-0.39-0.81-0.97
				c-0.07-0.58,0.18-1.08,0.56-1.12C348.65,165.34,349.02,165.77,349.09,166.35z"/>
			<path style="fill:#DE5753;" d="M351.2,166.4c0,0-0.96,3.35-2.23,5.07c1.12,0.79,2.81,0.16,2.81,0.16L351.2,166.4z"/>
			<path style="fill:#263238;" d="M355.15,173.49c-0.23,0.06-0.48,0.1-0.75,0.13c-0.09,0.01-0.18-0.06-0.19-0.15
				c-0.01-0.09,0.06-0.18,0.15-0.19c2.54-0.29,3.51-2.18,3.52-2.2c0.04-0.08,0.14-0.12,0.23-0.08c0.09,0.04,0.12,0.14,0.08,0.23
				C358.14,171.32,357.31,172.95,355.15,173.49z"/>
			<path style="fill:#263238;" d="M357.39,163.29c-0.12,0.03-0.24,0-0.33-0.1c-1.06-1.1-2.3-0.89-2.31-0.89
				c-0.19,0.03-0.37-0.09-0.4-0.27c-0.04-0.18,0.09-0.36,0.27-0.4c0.07-0.01,1.62-0.28,2.94,1.09c0.13,0.14,0.13,0.35-0.01,0.48
				C357.49,163.25,357.44,163.27,357.39,163.29z"/>
			<path style="fill:#263238;" d="M346,164.42c-0.06,0.02-0.13,0.01-0.2-0.01c-0.18-0.06-0.27-0.26-0.21-0.44
				c0.62-1.78,2.14-2.15,2.21-2.18c0.18-0.04,0.37,0.07,0.42,0.25c0.05,0.18-0.06,0.37-0.25,0.41c-0.06,0.01-1.24,0.32-1.73,1.75
				C346.2,164.32,346.11,164.39,346,164.42z"/>
			<path style="fill:#263238;" d="M364.92,161.52c0,0-4.97-1.82-7.28-4.72c0,0-4.54,1.19-5.47,3.03c0,0-1.57-1.32-0.4-3.03
				c0,0-3.4,0.72-4.07,3.03c0,0-1.7-0.58-1.59-3.03c0,0-1.51,0.57-1.99,3.03c0,0-3.76-7.81,8.63-10.05c0,0-0.98-0.41-2.9-0.49
				c0,0,8.64-3.49,15.5-0.29C372.21,152.18,370.96,158.31,364.92,161.52z"/>
		</g>
		<g>
			<path style="fill:#407BFF;" d="M396,255.98l-11.99,1.6c0,0-4.95-34.59-7.13-45.76v-23.86l6.27-1.65l4.83,1.65
				c1.16,3.87,2.18,8.95,3.07,14.6c0.59,3.74,1.12,7.74,1.59,11.79c0.65,5.52,1.19,11.14,1.65,16.4c0.72,8.49,1.2,16.01,1.46,20.59
				C395.92,254.26,396,255.98,396,255.98z"/>
			<path style="fill:#407BFF;" d="M376.88,211.82c0,0,1-16.83,6.27-25.51c0,0-0.13-2.48-1.19-2.88c-1.05-0.4-5.08,1.98-5.08,1.98
				s-2.51-1.71-3.07-0.92S371.93,190.63,376.88,211.82z"/>
			<path style="opacity:0.7;fill:#FFFFFF;" d="M376.88,211.82c0,0,1-16.83,6.27-25.51c0,0-0.13-2.48-1.19-2.88
				c-1.05-0.4-5.08,1.98-5.08,1.98s-2.51-1.71-3.07-0.92S371.93,190.63,376.88,211.82z"/>
		</g>
		<g>
			<path style="fill:#407BFF;" d="M349.6,260.61l1.37,0.99c0,0-1.98-11.15-1.18-39.35c0.04-1.36,0.09-2.67,0.14-3.92
				c1.02-23.86,4.72-28.2,4.96-28.46l-3.46,1.18l-6.27,2.16C343.31,213.57,349.6,260.61,349.6,260.61z"/>
			<path style="fill:#407BFF;" d="M350.14,214.23c0,0-3.46-16.35-2.43-21.99c1.03-5.64,4.72-3.13,4.72-3.13s3.39-2.74,4.4,0.28
				C356.83,189.38,352.17,192.66,350.14,214.23z"/>
			<path style="opacity:0.7;fill:#FFFFFF;" d="M350.14,214.23c0,0-3.46-16.35-2.43-21.99c1.03-5.64,4.72-3.13,4.72-3.13
				s3.39-2.74,4.4,0.28C356.83,189.38,352.17,192.66,350.14,214.23z"/>
		</g>
		<path style="opacity:0.2;" d="M392.64,214.35c-5.12-2.87-5.8-10.36-5.8-10.36c0.31-0.12,2.21-0.77,4.21-1.43
			C391.64,206.3,392.17,210.3,392.64,214.35z"/>
		<path style="opacity:0.2;" d="M367.6,311.56l4.31-23.45l-0.83-12.41C371.08,275.7,365.17,297.22,367.6,311.56z"/>
		<path style="opacity:0.2;" d="M395.75,251.34c-3.22-0.22-6.01-0.43-6.01-0.43l-0.61-13.09c0,0,1.04-0.87,3.37-0.62
			c0,0,1.05-2.56,1.79-6.45C395.01,239.24,395.49,246.76,395.75,251.34z"/>
		<g>
			<polygon style="fill:#E4897B;" points="396.85,230.74 390.58,240.81 395.54,243.66 401.43,234.59 			"/>
			<path style="fill:#407BFF;" d="M387.73,187.84c4.22,0.46,22.16,25.08,22.95,32.5c0.79,7.42-10.54,20.23-10.54,20.23l-7.57-4.45
				c0,0,7.69-11.81,8.08-14.96s-14.05-16.07-14.05-16.07s-1.58-3.8-1.78-9.26C384.63,190.36,387.73,187.84,387.73,187.84z"/>
			<path style="fill:#407BFF;" d="M389.13,237.83c0,0,6.45,1.38,9.05,5.44c0,0-2.69,8.45-4.62,9.37c-1.93,0.92-6.72,0.92-6.72,0.92
				S386.53,244.16,389.13,237.83z"/>
		</g>
	</g>
</g>
</svg>
