<svg width="500" height="500" viewBox="0 0 500 500" fill="none" xmlns="http://www.w3.org/2000/svg">
<path d="M431.67 117.79C436.28 115.86 439.56 111.1 439.59 105.5C439.62 98.16 434.07 92.19 427.19 92.16C420.31 92.13 414.71 98.05 414.68 105.39C414.66 111.04 417.96 115.85 422.62 117.79C403.45 120.68 404.32 141.51 404.32 141.51L449.65 141.72C449.64 141.73 450.68 120.66 431.67 117.79Z" fill="#F5F5F5"/>
<path d="M163.82 39.92L134.19 29.44L104.85 39.78C101.1 41.52 97.82 42.57 97.82 46V63.11C97.82 74.99 100.98 86.76 107.48 97.16C112.95 105.91 121.43 114.91 134.47 120.64C146.46 116.8 155.41 106.58 160.89 97.83C167.39 87.44 170.55 75.66 170.55 63.78V48.39C170.56 43.49 167.93 41.1 163.82 39.92Z" fill="#F5F5F5"/>
<path d="M144.03 67.54C144.03 63.01 140.36 59.34 135.83 59.34C131.3 59.34 127.63 63.01 127.63 67.54C127.63 71.29 130.16 74.42 133.59 75.39V87.65H138.07V75.39C141.5 74.41 144.03 71.29 144.03 67.54Z" fill="#EBEBEB"/>
<path d="M415.74 198.49L420.79 201.22L418.52 205.02L413.42 202.01L413.51 207.62H409.15L409.2 201.96L404.1 205.02L401.87 201.22L406.92 198.49L401.87 195.71L404.1 191.91L409.2 194.97L409.15 189.31H413.51L413.42 194.97L418.52 191.91L420.79 195.71L415.74 198.49Z" fill="#E0E0E0"/>
<path d="M436.78 198.49L441.83 201.22L439.56 205.02L434.46 202.01L434.55 207.62H430.19L430.24 201.96L425.14 205.02L422.91 201.22L427.96 198.49L422.91 195.71L425.14 191.91L430.24 194.97L430.19 189.31H434.55L434.46 194.97L439.56 191.91L441.83 195.71L436.78 198.49Z" fill="#E0E0E0"/>
<path d="M457.82 198.49L462.87 201.22L460.6 205.02L455.5 202.01L455.59 207.62H451.23L451.28 201.96L446.18 205.02L443.95 201.22L449 198.49L443.95 195.71L446.18 191.91L451.28 194.97L451.23 189.31H455.59L455.5 194.97L460.6 191.91L462.87 195.71L457.82 198.49Z" fill="#E0E0E0"/>
<path d="M243.74 437.86V468.92H289.16H339.26V437.86H243.74Z" fill="#F5F5F5"/>
<path d="M239.73 429.17V437.86H342.6V429.17H289.16H239.73Z" fill="#EBEBEB"/>
<path d="M291.16 468.92H339.26V437.86H342.6V429.17H289.16V437.05L291.16 468.92Z" fill="#EBEBEB"/>
<path d="M276.47 442.86H257.1V447.54H276.47V442.86Z" fill="#E0E0E0"/>
<path d="M279.48 453.39H254.6V463.26H279.48V453.39Z" fill="white"/>
<path d="M258.43 398.15V429.21H303.86H353.96V398.15H258.43Z" fill="#F5F5F5"/>
<path d="M254.42 389.46V398.15H357.3V389.46H303.86H254.42Z" fill="#EBEBEB"/>
<path d="M305.86 429.21H353.96V398.15H357.3V389.46H303.86V397.35L305.86 429.21Z" fill="#EBEBEB"/>
<path d="M291.16 403.16H271.79V407.84H291.16V403.16Z" fill="#E0E0E0"/>
<path d="M294.18 413.68H269.3V423.55H294.18V413.68Z" fill="white"/>
<path d="M464.07 469.16C464.07 469.3 368.22 469.42 250.01 469.42C131.76 469.42 35.93 469.3 35.93 469.16C35.93 469.02 131.76 468.9 250.01 468.9C368.22 468.9 464.07 469.01 464.07 469.16Z" fill="#263238"/>
<path d="M375.71 225.76H197.07C193.45 225.76 190.51 222.82 190.51 219.2V54.85C190.51 51.23 193.45 48.29 197.07 48.29H375.71C379.33 48.29 382.27 51.23 382.27 54.85V219.2C382.27 222.82 379.33 225.76 375.71 225.76Z" fill="white"/>
<path d="M375.71 225.76C375.71 225.76 375.87 225.74 376.18 225.72C376.49 225.7 376.96 225.63 377.55 225.46C378.14 225.28 378.86 224.97 379.59 224.42C380.32 223.87 381.07 223.08 381.58 221.99C382.15 220.91 382.26 219.54 382.21 218.05C382.21 216.56 382.2 214.92 382.2 213.15C382.19 209.61 382.19 205.52 382.18 200.92C382.16 182.51 382.13 155.89 382.1 123C382.09 106.55 382.08 88.53 382.07 69.19C382.06 64.36 382.05 59.45 382.04 54.45C381.92 52.03 380.25 49.75 377.93 48.91C376.78 48.43 375.53 48.51 374.24 48.51C372.96 48.51 371.68 48.51 370.39 48.51C360.09 48.51 349.48 48.52 338.61 48.52C295.11 48.53 247.29 48.53 197.1 48.54C195.59 48.54 194.1 49.09 192.96 50.08C191.82 51.06 191.05 52.46 190.85 53.94C190.75 54.67 190.79 55.46 190.78 56.24V58.57C190.78 60.12 190.78 61.68 190.78 63.23C190.78 69.43 190.78 75.59 190.78 81.7C190.78 93.92 190.78 105.97 190.78 117.81C190.77 141.48 190.77 164.32 190.76 186.07C190.76 196.95 190.75 207.55 190.75 217.86C190.76 218.5 190.73 219.16 190.78 219.77C190.85 220.38 190.97 221 191.21 221.57C191.67 222.72 192.47 223.71 193.48 224.41C194.49 225.11 195.69 225.5 196.91 225.53C198.17 225.53 199.42 225.54 200.67 225.54C205.67 225.54 210.59 225.54 215.42 225.55C234.76 225.56 252.78 225.57 269.23 225.58C302.12 225.62 328.74 225.64 347.15 225.66C356.34 225.68 363.48 225.7 368.33 225.71C370.75 225.72 372.59 225.73 373.84 225.74C375.07 225.74 375.71 225.76 375.71 225.76C375.71 225.76 375.07 225.78 373.83 225.79C372.58 225.8 370.74 225.8 368.32 225.82C363.47 225.83 356.33 225.85 347.14 225.87C328.74 225.89 302.12 225.92 269.22 225.95C252.77 225.96 234.75 225.97 215.41 225.98C210.57 225.98 205.66 225.98 200.66 225.99C199.41 225.99 198.15 225.99 196.89 225.98C195.59 225.95 194.29 225.53 193.21 224.78C192.13 224.03 191.27 222.97 190.78 221.74C190.52 221.13 190.39 220.47 190.32 219.81C190.27 219.14 190.3 218.51 190.29 217.86C190.29 207.56 190.28 196.95 190.28 186.07C190.28 164.32 190.27 141.49 190.26 117.81C190.26 105.97 190.26 93.93 190.26 81.7C190.26 75.59 190.26 69.43 190.26 63.23C190.26 61.68 190.26 60.13 190.26 58.57V56.24C190.27 55.46 190.22 54.69 190.34 53.87C190.56 52.26 191.38 50.74 192.62 49.69C193.85 48.62 195.47 48.02 197.1 48.02C247.29 48.03 295.11 48.03 338.61 48.04C349.48 48.04 360.09 48.05 370.39 48.05C371.68 48.05 372.96 48.05 374.24 48.05C375.49 48.05 376.86 47.97 378.09 48.49C380.57 49.39 382.36 51.83 382.48 54.42C382.48 59.42 382.49 64.34 382.49 69.18C382.48 88.52 382.47 106.54 382.46 122.99C382.42 155.88 382.4 182.51 382.38 200.91C382.37 205.51 382.36 209.59 382.36 213.14C382.36 214.91 382.35 216.54 382.35 218.04C382.4 219.52 382.27 220.94 381.69 222.03C381.17 223.14 380.4 223.94 379.66 224.48C378.91 225.03 378.18 225.33 377.59 225.5C376.99 225.66 376.52 225.72 376.2 225.73C375.87 225.76 375.71 225.76 375.71 225.76Z" fill="#263238"/>
<path d="M204.98 60.59C204.98 62.42 203.5 63.9 201.66 63.9C199.83 63.9 198.34 62.42 198.34 60.59C198.34 58.76 199.82 57.27 201.66 57.27C203.5 57.27 204.98 58.76 204.98 60.59Z" fill="#263238"/>
<path d="M211.35 63.91C213.184 63.91 214.67 62.4236 214.67 60.59C214.67 58.7564 213.184 57.27 211.35 57.27C209.516 57.27 208.03 58.7564 208.03 60.59C208.03 62.4236 209.516 63.91 211.35 63.91Z" fill="#263238"/>
<path d="M221.03 63.91C222.864 63.91 224.35 62.4236 224.35 60.59C224.35 58.7564 222.864 57.27 221.03 57.27C219.196 57.27 217.71 58.7564 217.71 60.59C217.71 62.4236 219.196 63.91 221.03 63.91Z" fill="#263238"/>
<path d="M382.27 69.99C382.27 70.13 339.34 70.25 286.4 70.25C233.44 70.25 190.52 70.13 190.52 69.99C190.52 69.85 233.44 69.73 286.4 69.73C339.34 69.73 382.27 69.85 382.27 69.99Z" fill="#263238"/>
<path d="M313.48 136.85C313.48 136.85 313.56 136.74 313.71 136.54C313.75 136.49 313.79 136.43 313.84 136.37C313.88 136.3 313.92 136.23 313.97 136.15C314.06 135.99 314.18 135.8 314.26 135.57C314.31 135.46 314.36 135.34 314.41 135.21C314.45 135.08 314.49 134.94 314.53 134.79C314.58 134.64 314.6 134.49 314.63 134.32C314.65 134.15 314.7 133.99 314.7 133.8C314.78 133.08 314.73 132.24 314.59 131.31C314.3 129.45 313.51 127.26 312.31 124.88C311.1 122.49 309.44 119.93 307.4 117.25C305.36 114.57 302.91 111.81 300.08 109.03C297.26 106.26 294.06 103.47 290.48 100.83C288.69 99.51 286.8 98.23 284.8 97.03C282.81 95.82 280.71 94.7 278.49 93.72C276.28 92.76 273.94 91.92 271.47 91.52C270.24 91.33 268.97 91.24 267.73 91.43C267.11 91.53 266.5 91.7 265.92 91.95C265.35 92.23 264.83 92.59 264.4 93.06C263.99 93.54 263.68 94.1 263.47 94.69C263.28 95.29 263.18 95.92 263.15 96.55C263.1 97.81 263.34 99.06 263.67 100.26C264.34 102.66 265.44 104.89 266.65 106.98C267.87 109.07 269.23 111.03 270.65 112.87C272.07 114.71 273.56 116.45 275.07 118.08C278.1 121.34 281.23 124.2 284.31 126.69C287.39 129.18 290.42 131.3 293.31 133.02C296.2 134.74 298.94 136.1 301.45 137.03C303.95 137.96 306.22 138.49 308.1 138.57C309.04 138.61 309.88 138.56 310.58 138.4C310.76 138.37 310.92 138.31 311.08 138.27C311.24 138.23 311.4 138.18 311.53 138.12C311.67 138.06 311.81 138.01 311.93 137.96C312.05 137.9 312.17 137.83 312.28 137.77C312.5 137.66 312.67 137.52 312.83 137.41C312.9 137.35 312.98 137.31 313.04 137.26C313.1 137.21 313.15 137.16 313.19 137.11C313.38 136.93 313.48 136.85 313.48 136.85C313.48 136.85 313.39 136.94 313.21 137.12C313.16 137.16 313.11 137.22 313.06 137.27C313 137.32 312.93 137.37 312.85 137.43C312.7 137.54 312.53 137.68 312.31 137.79C312.2 137.85 312.09 137.92 311.96 137.98C311.83 138.03 311.7 138.09 311.55 138.15C311.41 138.22 311.26 138.26 311.09 138.3C310.93 138.34 310.76 138.41 310.58 138.43C309.87 138.59 309.03 138.65 308.08 138.61C306.19 138.54 303.91 138.02 301.4 137.09C298.88 136.17 296.14 134.82 293.24 133.1C290.34 131.38 287.31 129.26 284.22 126.77C281.14 124.28 278 121.42 274.96 118.16C273.44 116.53 271.95 114.79 270.53 112.94C269.1 111.1 267.74 109.13 266.51 107.04C265.3 104.94 264.19 102.71 263.51 100.28C263.18 99.07 262.94 97.81 262.99 96.53C263.01 95.89 263.12 95.25 263.31 94.63C263.53 94.02 263.84 93.44 264.27 92.95C264.71 92.47 265.25 92.09 265.83 91.81C266.42 91.54 267.05 91.37 267.68 91.27C268.95 91.08 270.23 91.17 271.47 91.36C273.95 91.76 276.3 92.61 278.52 93.57C280.74 94.55 282.85 95.68 284.84 96.89C286.84 98.1 288.73 99.38 290.53 100.7C294.12 103.35 297.32 106.14 300.14 108.92C302.96 111.7 305.41 114.48 307.45 117.16C309.49 119.84 311.15 122.42 312.35 124.82C313.55 127.21 314.34 129.41 314.62 131.28C314.76 132.21 314.8 133.06 314.72 133.78C314.71 133.96 314.67 134.13 314.64 134.3C314.61 134.47 314.59 134.62 314.54 134.77C314.5 134.92 314.46 135.06 314.42 135.19C314.37 135.32 314.32 135.44 314.27 135.56C314.18 135.79 314.07 135.98 313.97 136.14C313.92 136.22 313.88 136.3 313.84 136.36C313.79 136.42 313.75 136.48 313.71 136.53C313.56 136.75 313.48 136.85 313.48 136.85Z" fill="#22C55E"/>
<path d="M322.55 114.93C322.55 114.93 322.54 114.8 322.52 114.55C322.52 114.49 322.51 114.42 322.5 114.34C322.49 114.26 322.47 114.18 322.45 114.09C322.41 113.91 322.37 113.69 322.28 113.46C322.24 113.34 322.2 113.22 322.15 113.09C322.09 112.97 322.02 112.84 321.96 112.7C321.9 112.56 321.81 112.43 321.72 112.29C321.63 112.15 321.55 112 321.43 111.86C321.01 111.27 320.41 110.68 319.69 110.08C318.24 108.88 316.19 107.77 313.7 106.8C311.21 105.82 308.26 105.01 304.96 104.37C301.66 103.73 297.98 103.3 294.03 103.11C290.08 102.92 285.84 102.97 281.41 103.39C279.2 103.6 276.93 103.91 274.64 104.33C272.35 104.76 270.03 105.31 267.73 106.06C265.44 106.82 263.13 107.75 261.03 109.09C259.99 109.77 258.98 110.54 258.18 111.51C257.78 112 257.44 112.53 257.18 113.1C256.94 113.68 256.8 114.3 256.79 114.94C256.8 115.57 256.94 116.2 257.18 116.78C257.44 117.36 257.78 117.89 258.18 118.38C258.98 119.35 259.99 120.13 261.03 120.8C263.13 122.15 265.44 123.07 267.73 123.83C270.03 124.58 272.35 125.14 274.64 125.56C276.93 125.99 279.19 126.29 281.41 126.5C285.84 126.92 290.08 126.96 294.04 126.78C297.99 126.59 301.66 126.16 304.97 125.52C308.27 124.88 311.22 124.07 313.71 123.09C316.2 122.12 318.24 121.01 319.7 119.81C320.42 119.21 321.02 118.62 321.44 118.03C321.56 117.89 321.64 117.74 321.73 117.6C321.82 117.46 321.91 117.33 321.97 117.19C322.04 117.05 322.1 116.92 322.16 116.8C322.21 116.67 322.25 116.55 322.29 116.43C322.38 116.2 322.42 115.98 322.46 115.8C322.48 115.71 322.5 115.62 322.51 115.55C322.52 115.47 322.52 115.4 322.53 115.34C322.54 115.06 322.55 114.93 322.55 114.93C322.55 114.93 322.55 115.06 322.53 115.31C322.53 115.37 322.52 115.45 322.52 115.52C322.51 115.6 322.49 115.68 322.47 115.78C322.43 115.96 322.4 116.18 322.31 116.41C322.27 116.53 322.23 116.65 322.18 116.78C322.12 116.91 322.06 117.04 321.99 117.17C321.93 117.31 321.84 117.45 321.75 117.59C321.66 117.73 321.58 117.89 321.46 118.03C321.04 118.63 320.45 119.23 319.72 119.83C318.27 121.04 316.22 122.16 313.73 123.14C311.24 124.13 308.29 124.95 304.98 125.59C301.67 126.24 298 126.67 294.04 126.87C290.08 127.06 285.84 127.02 281.4 126.61C279.18 126.4 276.91 126.1 274.62 125.67C272.33 125.25 270 124.69 267.69 123.94C265.39 123.18 263.08 122.25 260.95 120.9C259.9 120.22 258.88 119.44 258.06 118.45C257.65 117.96 257.3 117.41 257.04 116.82C256.8 116.22 256.65 115.58 256.64 114.92C256.65 114.27 256.8 113.62 257.05 113.02C257.31 112.43 257.67 111.88 258.07 111.39C258.89 110.4 259.91 109.62 260.96 108.94C263.08 107.59 265.39 106.65 267.69 105.9C270 105.15 272.32 104.59 274.62 104.17C276.91 103.74 279.18 103.44 281.4 103.23C285.84 102.82 290.08 102.77 294.04 102.97C298 103.17 301.67 103.61 304.98 104.25C308.29 104.9 311.24 105.72 313.73 106.7C316.22 107.68 318.27 108.8 319.72 110.01C320.45 110.61 321.04 111.21 321.46 111.81C321.58 111.95 321.66 112.11 321.75 112.25C321.84 112.39 321.93 112.53 321.99 112.67C322.06 112.81 322.12 112.94 322.18 113.06C322.23 113.19 322.27 113.32 322.31 113.43C322.4 113.66 322.44 113.88 322.47 114.06C322.49 114.15 322.51 114.24 322.52 114.32C322.52 114.4 322.53 114.47 322.53 114.53C322.55 114.8 322.55 114.93 322.55 114.93Z" fill="#22C55E"/>
<path d="M310.53 87.66C310.53 87.66 310.42 87.59 310.21 87.45C310.16 87.42 310.1 87.38 310.03 87.33C309.96 87.29 309.88 87.26 309.8 87.22C309.63 87.14 309.44 87.04 309.2 86.97C309.08 86.93 308.96 86.89 308.83 86.85C308.69 86.82 308.55 86.79 308.4 86.76C308.25 86.72 308.09 86.71 307.93 86.7C307.76 86.69 307.59 86.66 307.41 86.66C306.69 86.63 305.85 86.74 304.94 86.95C303.1 87.36 300.97 88.3 298.68 89.67C296.38 91.04 293.94 92.87 291.41 95.09C288.88 97.31 286.29 99.95 283.72 102.95C281.15 105.96 278.59 109.34 276.2 113.1C275.01 114.98 273.86 116.95 272.8 119.03C271.73 121.1 270.76 123.27 269.94 125.55C269.13 127.83 268.46 130.22 268.23 132.7C268.13 133.94 268.12 135.21 268.4 136.44C268.54 137.05 268.75 137.65 269.05 138.21C269.36 138.76 269.77 139.25 270.26 139.65C270.77 140.03 271.35 140.3 271.95 140.47C272.56 140.62 273.19 140.68 273.82 140.66C275.08 140.62 276.31 140.3 277.48 139.89C279.83 139.05 281.98 137.8 283.98 136.45C285.98 135.09 287.84 133.6 289.58 132.05C291.32 130.5 292.95 128.9 294.47 127.28C297.51 124.03 300.15 120.71 302.42 117.47C304.69 114.23 306.6 111.06 308.12 108.06C309.64 105.06 310.8 102.23 311.56 99.67C312.31 97.11 312.69 94.81 312.64 92.93C312.61 91.99 312.51 91.16 312.3 90.46C312.26 90.28 312.19 90.12 312.14 89.97C312.09 89.81 312.03 89.66 311.96 89.53C311.89 89.39 311.83 89.26 311.77 89.14C311.7 89.02 311.63 88.91 311.56 88.81C311.44 88.59 311.29 88.43 311.17 88.29C311.11 88.22 311.06 88.15 311 88.09C310.94 88.04 310.89 87.99 310.84 87.95C310.62 87.75 310.53 87.66 310.53 87.66C310.53 87.66 310.63 87.74 310.82 87.91C310.87 87.95 310.92 88 310.98 88.05C311.04 88.11 311.09 88.17 311.15 88.24C311.27 88.38 311.42 88.54 311.55 88.76C311.62 88.86 311.69 88.97 311.76 89.09C311.82 89.21 311.89 89.35 311.95 89.48C312.02 89.61 312.08 89.77 312.13 89.92C312.18 90.08 312.26 90.24 312.3 90.42C312.51 91.12 312.62 91.95 312.66 92.9C312.73 94.79 312.36 97.1 311.61 99.67C310.86 102.24 309.7 105.08 308.19 108.09C306.67 111.1 304.77 114.27 302.5 117.52C300.23 120.77 297.59 124.1 294.55 127.35C293.03 128.98 291.4 130.58 289.65 132.13C287.91 133.68 286.04 135.18 284.04 136.54C282.03 137.9 279.88 139.15 277.51 140C276.33 140.41 275.08 140.74 273.8 140.78C273.16 140.8 272.51 140.74 271.88 140.59C271.26 140.42 270.66 140.14 270.13 139.75C269.62 139.34 269.2 138.83 268.88 138.27C268.57 137.7 268.36 137.09 268.22 136.46C267.94 135.21 267.95 133.92 268.05 132.68C268.28 130.17 268.96 127.78 269.77 125.49C270.59 123.21 271.57 121.03 272.65 118.96C273.72 116.88 274.87 114.91 276.06 113.03C278.45 109.27 281.02 105.89 283.6 102.88C286.18 99.87 288.78 97.24 291.32 95.02C293.86 92.8 296.31 90.97 298.62 89.61C300.92 88.24 303.06 87.31 304.91 86.9C305.83 86.7 306.67 86.59 307.4 86.63C307.58 86.62 307.76 86.66 307.92 86.67C308.09 86.68 308.25 86.7 308.4 86.74C308.55 86.77 308.69 86.8 308.83 86.83C308.96 86.87 309.09 86.92 309.2 86.95C309.44 87.02 309.63 87.12 309.8 87.21C309.88 87.25 309.96 87.29 310.03 87.33C310.1 87.37 310.15 87.41 310.21 87.45C310.42 87.58 310.53 87.66 310.53 87.66Z" fill="#22C55E"/>
<path d="M256.35 128.52C256.83 129 256.83 129.77 256.35 130.25C255.87 130.73 255.1 130.73 254.62 130.25C254.14 129.77 254.14 129 254.62 128.52C255.1 128.04 255.87 128.04 256.35 128.52Z" fill="#22C55E"/>
<path d="M325.34 90.63C325.34 91.31 324.79 91.85 324.12 91.85C323.44 91.85 322.9 91.3 322.9 90.63C322.9 89.95 323.45 89.41 324.12 89.41C324.79 89.41 325.34 89.96 325.34 90.63Z" fill="#22C55E"/>
<path d="M264.07 132.54C264.07 132.71 263.93 132.85 263.76 132.85C263.59 132.85 263.45 132.71 263.45 132.54C263.45 132.37 263.59 132.23 263.76 132.23C263.93 132.23 264.07 132.37 264.07 132.54Z" fill="#22C55E"/>
<path d="M270.7 98.28C270.7 98.45 270.56 98.59 270.39 98.59C270.22 98.59 270.08 98.45 270.08 98.28C270.08 98.11 270.22 97.97 270.39 97.97C270.57 97.97 270.7 98.11 270.7 98.28Z" fill="#22C55E"/>
<path d="M319.19 114.93C319.19 115.1 319.05 115.24 318.88 115.24C318.71 115.24 318.57 115.1 318.57 114.93C318.57 114.76 318.71 114.62 318.88 114.62C319.06 114.62 319.19 114.76 319.19 114.93Z" fill="#22C55E"/>
<path d="M323.51 100.45C323.51 100.62 323.37 100.76 323.2 100.76C323.03 100.76 322.89 100.62 322.89 100.45C322.89 100.28 323.03 100.14 323.2 100.14C323.37 100.14 323.51 100.27 323.51 100.45Z" fill="#22C55E"/>
<path d="M302.57 121.76H298.73V100.84C298.73 95.92 294.72 91.91 289.8 91.91C284.88 91.91 280.87 95.92 280.87 100.84V121.76H277.03V100.84C277.03 93.8 282.76 88.07 289.8 88.07C296.84 88.07 302.57 93.8 302.57 100.84V121.76Z" fill="#22C55E"/>
<g opacity="0.3">
<path d="M302.57 121.76H298.73V100.84C298.73 95.92 294.72 91.91 289.8 91.91C284.88 91.91 280.87 95.92 280.87 100.84V121.76H277.03V100.84C277.03 93.8 282.76 88.07 289.8 88.07C296.84 88.07 302.57 93.8 302.57 100.84V121.76Z" fill="black"/>
</g>
<path d="M304.76 134.54H274.84C273.6 134.54 272.59 133.53 272.59 132.29V114.71C272.59 113.47 273.6 112.46 274.84 112.46H304.76C306 112.46 307.01 113.47 307.01 114.71V132.29C307.01 133.54 306 134.54 304.76 134.54Z" fill="#22C55E"/>
<g opacity="0.3">
<path d="M292.68 120.63C292.68 119.04 291.39 117.75 289.8 117.75C288.21 117.75 286.92 119.04 286.92 120.63C286.92 121.94 287.81 123.04 289.01 123.38V127.68H290.58V123.38C291.79 123.04 292.68 121.94 292.68 120.63Z" fill="black"/>
</g>
<path d="M274.43 132.45C274.35 132.45 274.29 128.77 274.29 124.23C274.29 119.69 274.35 116 274.43 116C274.51 116 274.57 119.68 274.57 124.23C274.57 128.77 274.5 132.45 274.43 132.45Z" fill="#FAFAFA"/>
<path d="M287.55 124.31C287.54 124.32 287.42 124.27 287.21 124.12C287.01 123.97 286.74 123.73 286.47 123.36C285.93 122.66 285.44 121.38 285.76 120C286.09 118.62 287.11 117.7 287.9 117.31C288.3 117.11 288.65 117.01 288.9 116.97C289.15 116.93 289.29 116.93 289.29 116.95C289.3 117 288.74 117.06 288 117.49C287.27 117.9 286.35 118.79 286.04 120.07C285.74 121.34 286.17 122.55 286.64 123.25C287.11 123.97 287.58 124.27 287.55 124.31Z" fill="#FAFAFA"/>
<path d="M340.9 173.25H234.92C229.77 173.25 225.6 169.08 225.6 163.93V162.78C225.6 157.63 229.77 153.46 234.92 153.46H340.9C346.05 153.46 350.22 157.63 350.22 162.78V163.93C350.22 169.08 346.05 173.25 340.9 173.25Z" fill="#F5F5F5"/>
<path d="M341.82 200.37H235.84C230.69 200.37 226.52 196.2 226.52 191.05V189.9C226.52 184.75 230.69 180.58 235.84 180.58H341.82C346.97 180.58 351.14 184.75 351.14 189.9V191.05C351.14 196.2 346.97 200.37 341.82 200.37Z" fill="#F5F5F5"/>
<path d="M245.3 163.2V160.33H246.48V163.15C246.48 164.12 246.9 164.52 247.62 164.52C248.34 164.52 248.76 164.12 248.76 163.15V160.33H249.93V163.2C249.93 164.71 249.07 165.54 247.61 165.54C246.16 165.54 245.3 164.71 245.3 163.2Z" fill="#263238"/>
<path d="M250.65 165.09L251.03 164.27C251.38 164.5 251.91 164.65 252.4 164.65C252.93 164.65 253.12 164.51 253.12 164.29C253.12 163.65 250.74 164.3 250.74 162.73C250.74 161.98 251.41 161.46 252.56 161.46C253.1 161.46 253.7 161.58 254.07 161.8L253.69 162.61C253.3 162.39 252.91 162.32 252.56 162.32C252.05 162.32 251.83 162.48 251.83 162.69C251.83 163.36 254.21 162.71 254.21 164.26C254.21 164.99 253.53 165.51 252.35 165.51C251.68 165.51 251.01 165.33 250.65 165.09Z" fill="#263238"/>
<path d="M258.74 163.81H255.77C255.88 164.3 256.3 164.6 256.89 164.6C257.31 164.6 257.61 164.48 257.88 164.22L258.49 164.88C258.12 165.3 257.58 165.52 256.87 165.52C255.51 165.52 254.63 164.66 254.63 163.5C254.63 162.32 255.53 161.48 256.73 161.48C257.88 161.48 258.78 162.25 258.78 163.52C258.76 163.59 258.74 163.71 258.74 163.81ZM255.75 163.14H257.69C257.61 162.64 257.24 162.32 256.73 162.32C256.2 162.33 255.83 162.64 255.75 163.14Z" fill="#263238"/>
<path d="M261.96 161.46V162.51C261.86 162.5 261.79 162.5 261.7 162.5C261.07 162.5 260.65 162.84 260.65 163.6V165.46H259.51V161.53H260.6V162.05C260.88 161.66 261.35 161.46 261.96 161.46Z" fill="#263238"/>
<path d="M266.66 163.2V165.45H265.52V163.37C265.52 162.73 265.23 162.44 264.72 162.44C264.17 162.44 263.78 162.78 263.78 163.5V165.44H262.64V161.51H263.73V161.97C264.04 161.63 264.5 161.45 265.03 161.45C265.96 161.46 266.66 162 266.66 163.2Z" fill="#263238"/>
<path d="M271.17 163.21V165.45H270.1V164.96C269.89 165.32 269.48 165.51 268.9 165.51C267.98 165.51 267.43 165 267.43 164.32C267.43 163.63 267.92 163.14 269.12 163.14H270.03C270.03 162.65 269.74 162.37 269.12 162.37C268.7 162.37 268.27 162.51 267.99 162.74L267.58 161.94C268.01 161.63 268.65 161.46 269.28 161.46C270.47 161.46 271.17 162.02 271.17 163.21ZM270.03 164.21V163.81H269.25C268.72 163.81 268.55 164.01 268.55 164.27C268.55 164.56 268.79 164.75 269.19 164.75C269.57 164.75 269.9 164.57 270.03 164.21Z" fill="#263238"/>
<path d="M278.84 163.2V165.45H277.7V163.37C277.7 162.73 277.41 162.44 276.95 162.44C276.44 162.44 276.08 162.77 276.08 163.47V165.44H274.94V163.36C274.94 162.72 274.67 162.43 274.19 162.43C273.69 162.43 273.33 162.76 273.33 163.46V165.43H272.19V161.5H273.28V161.95C273.57 161.61 274.01 161.44 274.52 161.44C275.07 161.44 275.54 161.65 275.81 162.08C276.12 161.68 276.64 161.44 277.23 161.44C278.17 161.46 278.84 162 278.84 163.2Z" fill="#263238"/>
<path d="M283.74 163.81H280.77C280.88 164.3 281.3 164.6 281.89 164.6C282.31 164.6 282.61 164.48 282.88 164.22L283.49 164.88C283.12 165.3 282.58 165.52 281.87 165.52C280.51 165.52 279.63 164.66 279.63 163.5C279.63 162.32 280.53 161.48 281.73 161.48C282.88 161.48 283.78 162.25 283.78 163.52C283.76 163.59 283.75 163.71 283.74 163.81ZM280.75 163.14H282.69C282.61 162.64 282.24 162.32 281.73 162.32C281.2 162.33 280.83 162.64 280.75 163.14Z" fill="#263238"/>
<path d="M291.28 163.45C291.28 164.76 290.68 165.5 289.78 165.5C289.28 165.5 288.93 165.28 288.78 164.86C288.52 165.27 288.11 165.5 287.53 165.5C286.59 165.5 285.84 164.75 285.84 163.65C285.84 162.55 286.58 161.81 287.53 161.81C288.01 161.81 288.39 161.98 288.66 162.29V161.86H289.65V164.23C289.65 164.58 289.8 164.7 290 164.7C290.34 164.7 290.54 164.31 290.54 163.46C290.54 161.98 289.44 160.95 287.82 160.95C286.19 160.95 285.1 162.06 285.1 163.59C285.1 165.15 286.17 166.25 287.79 166.25C288.25 166.25 288.77 166.15 289.23 165.93L289.46 166.6C289.01 166.83 288.36 166.95 287.79 166.95C285.68 166.95 284.28 165.52 284.28 163.59C284.28 161.68 285.69 160.26 287.82 160.26C289.87 160.26 291.28 161.62 291.28 163.45ZM288.67 163.66C288.67 163.02 288.28 162.67 287.76 162.67C287.23 162.67 286.85 163.04 286.85 163.66C286.85 164.29 287.22 164.67 287.76 164.67C288.28 164.66 288.67 164.3 288.67 163.66Z" fill="#263238"/>
<path d="M298.73 163.2V165.45H297.59V163.37C297.59 162.73 297.3 162.44 296.84 162.44C296.33 162.44 295.97 162.77 295.97 163.47V165.44H294.83V163.36C294.83 162.72 294.56 162.43 294.08 162.43C293.58 162.43 293.22 162.76 293.22 163.46V165.43H292.08V161.5H293.17V161.95C293.46 161.61 293.9 161.44 294.41 161.44C294.96 161.44 295.43 161.65 295.7 162.08C296.01 161.68 296.53 161.44 297.12 161.44C298.06 161.46 298.73 162 298.73 163.2Z" fill="#263238"/>
<path d="M303.23 163.21V165.45H302.16V164.96C301.95 165.32 301.54 165.51 300.96 165.51C300.04 165.51 299.49 165 299.49 164.32C299.49 163.63 299.98 163.14 301.18 163.14H302.09C302.09 162.65 301.8 162.37 301.18 162.37C300.76 162.37 300.33 162.51 300.05 162.74L299.64 161.94C300.07 161.63 300.71 161.46 301.34 161.46C302.54 161.46 303.23 162.02 303.23 163.21ZM302.09 164.21V163.81H301.31C300.78 163.81 300.61 164.01 300.61 164.27C300.61 164.56 300.85 164.75 301.25 164.75C301.63 164.75 301.96 164.57 302.09 164.21Z" fill="#263238"/>
<path d="M304.13 160.34C304.13 159.98 304.42 159.7 304.84 159.7C305.26 159.7 305.55 159.96 305.55 160.31C305.55 160.69 305.26 160.97 304.84 160.97C304.42 160.97 304.13 160.7 304.13 160.34ZM304.27 161.52H305.41V165.45H304.27V161.52Z" fill="#263238"/>
<path d="M306.47 160.03H307.61V165.45H306.47V160.03Z" fill="#263238"/>
<path d="M308.39 164.8C308.39 164.38 308.7 164.1 309.1 164.1C309.5 164.1 309.81 164.38 309.81 164.8C309.81 165.22 309.5 165.52 309.1 165.52C308.7 165.51 308.39 165.21 308.39 164.8Z" fill="#263238"/>
<path d="M310.24 163.49C310.24 162.31 311.15 161.47 312.43 161.47C313.26 161.47 313.91 161.83 314.19 162.47L313.31 162.95C313.1 162.58 312.78 162.41 312.43 162.41C311.85 162.41 311.4 162.81 311.4 163.5C311.4 164.19 311.85 164.59 312.43 164.59C312.79 164.59 313.1 164.43 313.31 164.05L314.19 164.53C313.9 165.16 313.25 165.52 312.43 165.52C311.15 165.51 310.24 164.67 310.24 163.49Z" fill="#263238"/>
<path d="M314.51 163.49C314.51 162.31 315.42 161.47 316.67 161.47C317.92 161.47 318.83 162.31 318.83 163.49C318.83 164.67 317.92 165.51 316.67 165.51C315.42 165.51 314.51 164.67 314.51 163.49ZM317.67 163.49C317.67 162.81 317.24 162.4 316.67 162.4C316.1 162.4 315.66 162.81 315.66 163.49C315.66 164.17 316.1 164.58 316.67 164.58C317.24 164.58 317.67 164.17 317.67 163.49Z" fill="#263238"/>
<path d="M326.23 163.2V165.45H325.09V163.37C325.09 162.73 324.8 162.44 324.34 162.44C323.83 162.44 323.47 162.77 323.47 163.47V165.44H322.33V163.36C322.33 162.72 322.06 162.43 321.58 162.43C321.08 162.43 320.72 162.76 320.72 163.46V165.43H319.58V161.5H320.67V161.95C320.96 161.61 321.4 161.44 321.91 161.44C322.46 161.44 322.93 161.65 323.2 162.08C323.51 161.68 324.03 161.44 324.62 161.44C325.56 161.46 326.23 162 326.23 163.2Z" fill="#263238"/>
<path d="M260.57 190.59L262.42 191.59L261.59 192.98L259.72 191.88L259.75 193.94H258.15L258.17 191.87L256.3 192.99L255.48 191.6L257.33 190.6L255.48 189.58L256.3 188.19L258.17 189.31L258.15 187.24H259.75L259.72 189.31L261.59 188.19L262.42 189.58L260.57 190.59Z" fill="#263238"/>
<path d="M268.28 190.59L270.13 191.59L269.3 192.98L267.43 191.88L267.46 193.94H265.86L265.88 191.87L264.01 192.99L263.19 191.6L265.04 190.6L263.19 189.58L264.01 188.19L265.88 189.31L265.86 187.24H267.46L267.43 189.31L269.3 188.19L270.13 189.58L268.28 190.59Z" fill="#263238"/>
<path d="M275.99 190.59L277.84 191.59L277.01 192.98L275.14 191.88L275.17 193.94H273.57L273.59 191.87L271.72 192.99L270.9 191.6L272.75 190.6L270.9 189.58L271.72 188.19L273.59 189.31L273.57 187.24H275.17L275.14 189.31L277.01 188.19L277.84 189.58L275.99 190.59Z" fill="#263238"/>
<path d="M283.69 190.59L285.54 191.59L284.71 192.98L282.84 191.88L282.87 193.94H281.27L281.29 191.87L279.42 192.99L278.6 191.6L280.45 190.6L278.6 189.58L279.42 188.19L281.29 189.31L281.27 187.24H282.87L282.84 189.31L284.71 188.19L285.54 189.58L283.69 190.59Z" fill="#263238"/>
<path d="M291.4 190.59L293.25 191.59L292.42 192.98L290.55 191.88L290.58 193.94H288.98L289 191.87L287.13 192.99L286.31 191.6L288.16 190.6L286.31 189.58L287.13 188.19L289 189.31L288.98 187.24H290.58L290.55 189.31L292.42 188.19L293.25 189.58L291.4 190.59Z" fill="#263238"/>
<path d="M299.11 190.59L300.96 191.59L300.13 192.98L298.26 191.88L298.29 193.94H296.69L296.71 191.87L294.84 192.99L294.02 191.6L295.87 190.6L294.02 189.58L294.84 188.19L296.71 189.31L296.69 187.24H298.29L298.26 189.31L300.13 188.19L300.96 189.58L299.11 190.59Z" fill="#263238"/>
<path d="M306.81 190.59L308.66 191.59L307.83 192.98L305.96 191.88L305.99 193.94H304.39L304.41 191.87L302.54 192.99L301.72 191.6L303.57 190.6L301.72 189.58L302.54 188.19L304.41 189.31L304.39 187.24H305.99L305.96 189.31L307.83 188.19L308.66 189.58L306.81 190.59Z" fill="#263238"/>
<path d="M314.52 190.59L316.37 191.59L315.54 192.98L313.67 191.88L313.7 193.94H312.1L312.12 191.87L310.25 192.99L309.43 191.6L311.28 190.6L309.43 189.58L310.25 188.19L312.12 189.31L312.1 187.24H313.7L313.67 189.31L315.54 188.19L316.37 189.58L314.52 190.59Z" fill="#263238"/>
<path d="M398.8 335.62H249.77C246.25 335.62 243.39 332.76 243.39 329.24V252.1C243.39 248.58 246.25 245.72 249.77 245.72H398.8C402.32 245.72 405.18 248.58 405.18 252.1V329.24C405.17 332.76 402.32 335.62 398.8 335.62Z" fill="white"/>
<path d="M398.8 335.62C398.8 335.59 399.23 335.63 400.06 335.47C400.86 335.29 402.1 334.87 403.27 333.72C403.84 333.14 404.37 332.38 404.71 331.44C404.9 330.97 404.99 330.45 405.07 329.91C405.11 329.37 405.1 328.79 405.1 328.19C405.09 325.79 405.09 323.02 405.08 319.91C405.06 307.44 405.03 289.42 405 267.15C405 264.37 404.99 261.51 404.99 258.6C404.99 257.14 404.99 255.67 404.99 254.18C404.95 252.69 405.15 251.16 404.54 249.8C403.99 248.44 402.93 247.27 401.58 246.59C400.91 246.25 400.18 246.04 399.42 245.96C398.68 245.9 397.87 245.94 397.08 245.93C393.92 245.93 390.7 245.93 387.43 245.94C374.33 245.95 360.34 245.96 345.61 245.96C316.16 245.97 283.78 245.97 249.79 245.98C248.77 245.99 247.76 246.24 246.86 246.72C245.98 247.22 245.2 247.91 244.65 248.77C244.11 249.62 243.75 250.6 243.69 251.61C243.64 252.62 243.68 253.7 243.67 254.74C243.67 258.94 243.67 263.11 243.67 267.25C243.67 275.53 243.67 283.68 243.67 291.7C243.67 299.71 243.67 307.59 243.66 315.3C243.66 319.15 243.66 322.97 243.66 326.74C243.67 327.68 243.64 328.64 243.67 329.55C243.71 330.45 243.96 331.34 244.37 332.13C245.21 333.72 246.77 334.88 248.51 335.25C249.37 335.45 250.28 335.37 251.2 335.39C252.11 335.39 253.03 335.39 253.94 335.39C255.76 335.39 257.56 335.39 259.36 335.39C262.95 335.39 266.49 335.39 269.98 335.4C276.96 335.4 283.73 335.41 290.28 335.41C303.38 335.42 315.58 335.43 326.72 335.44C348.99 335.48 367.01 335.5 379.48 335.52C385.7 335.54 390.54 335.56 393.82 335.57C395.45 335.58 396.7 335.59 397.55 335.6C398.36 335.6 398.8 335.62 398.8 335.62C398.8 335.62 398.37 335.64 397.53 335.65C396.68 335.66 395.43 335.66 393.8 335.68C390.51 335.69 385.68 335.71 379.46 335.73C366.99 335.75 348.97 335.78 326.7 335.81C315.56 335.82 303.36 335.83 290.26 335.84C283.71 335.84 276.94 335.85 269.96 335.85C266.47 335.85 262.93 335.85 259.34 335.86C257.55 335.86 255.74 335.86 253.92 335.86C253.01 335.86 252.1 335.86 251.18 335.86C250.28 335.84 249.34 335.93 248.39 335.72C246.52 335.33 244.84 334.07 243.93 332.36C243.48 331.5 243.21 330.55 243.17 329.58C243.14 328.62 243.16 327.7 243.15 326.75C243.15 322.98 243.15 319.16 243.15 315.31C243.15 307.6 243.15 299.73 243.14 291.71C243.14 283.7 243.14 275.54 243.14 267.26C243.14 263.12 243.14 258.95 243.14 254.75C243.15 253.69 243.11 252.67 243.17 251.58C243.24 250.48 243.63 249.42 244.22 248.5C244.81 247.57 245.66 246.82 246.62 246.28C247.59 245.76 248.69 245.48 249.8 245.48C283.79 245.49 316.17 245.49 345.62 245.5C360.35 245.51 374.34 245.52 387.44 245.52C390.71 245.52 393.93 245.52 397.09 245.53C397.89 245.54 398.65 245.5 399.47 245.56C400.27 245.64 401.06 245.87 401.77 246.24C403.2 246.96 404.33 248.21 404.91 249.66C405.21 250.39 405.36 251.16 405.38 251.94C405.38 252.69 405.38 253.44 405.39 254.19C405.39 255.68 405.39 257.15 405.39 258.61C405.39 261.52 405.38 264.38 405.38 267.16C405.34 289.43 405.32 307.45 405.3 319.92C405.29 323.03 405.28 325.8 405.28 328.2C405.28 328.8 405.28 329.38 405.24 329.94C405.16 330.49 405.06 331.02 404.86 331.5C404.5 332.46 403.96 333.23 403.37 333.81C402.17 334.97 400.91 335.38 400.1 335.54C399.68 335.61 399.37 335.64 399.15 335.64C398.9 335.62 398.8 335.62 398.8 335.62Z" fill="#263238"/>
<path d="M299.76 277.49V278.61H295.08V272.56H299.65V273.68H296.47V275H299.28V276.09H296.47V277.49H299.76Z" fill="#263238"/>
<path d="M306.42 272.57V278.62H305.27L302.26 274.95V278.62H300.88V272.57H302.04L305.05 276.24V272.57H306.42Z" fill="#263238"/>
<path d="M309.11 273.71H307.18V272.57H312.45V273.71H310.52V278.62H309.12V273.71H309.11Z" fill="#263238"/>
<path d="M317.87 277.49V278.61H313.19V272.56H317.76V273.68H314.58V275H317.39V276.09H314.58V277.49H317.87Z" fill="#263238"/>
<path d="M322.84 278.61L321.67 276.93H321.6H320.38V278.61H318.98V272.56H321.6C323.21 272.56 324.22 273.4 324.22 274.75C324.22 275.66 323.76 276.32 322.98 276.66L324.34 278.6H322.84V278.61ZM321.53 273.71H320.39V275.82H321.53C322.39 275.82 322.82 275.42 322.82 274.77C322.81 274.1 322.38 273.71 321.53 273.71Z" fill="#263238"/>
<path d="M327.4 275.59C327.4 273.77 328.8 272.46 330.68 272.46C331.72 272.46 332.6 272.84 333.17 273.53L332.27 274.36C331.86 273.89 331.35 273.65 330.75 273.65C329.62 273.65 328.82 274.44 328.82 275.58C328.82 276.72 329.62 277.51 330.75 277.51C331.35 277.51 331.86 277.27 332.27 276.79L333.17 277.62C332.6 278.32 331.73 278.7 330.67 278.7C328.8 278.72 327.4 277.41 327.4 275.59Z" fill="#263238"/>
<path d="M333.61 275.59C333.61 273.79 335.01 272.46 336.92 272.46C338.82 272.46 340.23 273.78 340.23 275.59C340.23 277.39 338.82 278.72 336.92 278.72C335 278.72 333.61 277.39 333.61 275.59ZM338.8 275.59C338.8 274.44 337.99 273.66 336.91 273.66C335.83 273.66 335.02 274.45 335.02 275.59C335.02 276.74 335.83 277.52 336.91 277.52C337.99 277.52 338.8 276.74 338.8 275.59Z" fill="#263238"/>
<path d="M341.28 272.57H344.03C346.01 272.57 347.36 273.76 347.36 275.59C347.36 277.42 346 278.61 344.03 278.61H341.28V272.57ZM343.95 277.46C345.15 277.46 345.94 276.74 345.94 275.59C345.94 274.44 345.15 273.72 343.95 273.72H342.67V277.47H343.95V277.46Z" fill="#263238"/>
<path d="M353.09 277.49V278.61H348.41V272.56H352.98V273.68H349.8V275H352.61V276.09H349.8V277.49H353.09Z" fill="#263238"/>
<path d="M276.82 319.04H262.14C259.96 319.04 258.19 317.27 258.19 315.09V292.22C258.19 290.04 259.96 288.27 262.14 288.27H276.82C279 288.27 280.77 290.04 280.77 292.22V315.09C280.77 317.27 279 319.04 276.82 319.04Z" fill="#EBEBEB"/>
<path d="M305.02 319.04H290.34C288.16 319.04 286.39 317.27 286.39 315.09V292.22C286.39 290.04 288.16 288.27 290.34 288.27H305.02C307.2 288.27 308.97 290.04 308.97 292.22V315.09C308.98 317.27 307.21 319.04 305.02 319.04Z" fill="#EBEBEB"/>
<path d="M333.23 319.04H318.55C316.37 319.04 314.6 317.27 314.6 315.09V292.22C314.6 290.04 316.37 288.27 318.55 288.27H333.23C335.41 288.27 337.18 290.04 337.18 292.22V315.09C337.18 317.27 335.42 319.04 333.23 319.04Z" fill="#EBEBEB"/>
<path d="M361.44 319.04H346.76C344.58 319.04 342.81 317.27 342.81 315.09V292.22C342.81 290.04 344.58 288.27 346.76 288.27H361.44C363.62 288.27 365.39 290.04 365.39 292.22V315.09C365.39 317.27 363.62 319.04 361.44 319.04Z" fill="#EBEBEB"/>
<path d="M389.65 319.04H374.97C372.79 319.04 371.02 317.27 371.02 315.09V292.22C371.02 290.04 372.79 288.27 374.97 288.27H389.65C391.83 288.27 393.6 290.04 393.6 292.22V315.09C393.6 317.27 391.83 319.04 389.65 319.04Z" fill="#EBEBEB"/>
<path d="M274.4 306.03C274.4 308.23 272.7 309.65 270.4 309.65C267.24 309.65 265.58 307.38 265.58 303.62C265.58 299.55 267.74 297.46 270.92 297.46C271.95 297.46 272.91 297.63 273.65 298.08L273.29 298.78C272.67 298.39 271.83 298.23 270.92 298.23C268.22 298.23 266.46 300 266.46 303.48C266.46 303.84 266.48 304.37 266.56 304.92C267.06 303.34 268.57 302.45 270.39 302.45C272.78 302.46 274.4 303.86 274.4 306.03ZM273.52 306.04C273.52 304.32 272.28 303.21 270.26 303.21C268.29 303.21 266.93 304.46 266.93 306.08C266.93 307.49 268.11 308.89 270.36 308.89C272.23 308.89 273.52 307.78 273.52 306.04Z" fill="#22C55E"/>
<path d="M302.3 306.23H299.78V309.56H298.92V306.23H292.07V305.59L298.59 297.54H299.57L293.17 305.45H298.94V302.51H299.78V305.45H302.3V306.23Z" fill="#22C55E"/>
<path d="M331.39 311.27C331.39 311.41 329.05 311.53 326.16 311.53C323.27 311.53 320.93 311.41 320.93 311.27C320.93 311.13 323.27 311.01 326.16 311.01C329.05 311.01 331.39 311.13 331.39 311.27Z" fill="#22C55E"/>
<path d="M253.66 257.15C255.013 257.15 256.11 256.053 256.11 254.7C256.11 253.347 255.013 252.25 253.66 252.25C252.307 252.25 251.21 253.347 251.21 254.7C251.21 256.053 252.307 257.15 253.66 257.15Z" fill="#263238"/>
<path d="M263.17 254.7C263.17 256.05 262.07 257.15 260.72 257.15C259.37 257.15 258.27 256.05 258.27 254.7C258.27 253.35 259.37 252.25 260.72 252.25C262.07 252.25 263.17 253.34 263.17 254.7Z" fill="#263238"/>
<path d="M267.65 257.15C269.003 257.15 270.1 256.053 270.1 254.7C270.1 253.347 269.003 252.25 267.65 252.25C266.297 252.25 265.2 253.347 265.2 254.7C265.2 256.053 266.297 257.15 267.65 257.15Z" fill="#263238"/>
<path d="M405.42 261.6C405.42 261.74 369.2 261.86 324.53 261.86C279.84 261.86 243.63 261.74 243.63 261.6C243.63 261.46 279.84 261.34 324.53 261.34C369.19 261.34 405.42 261.45 405.42 261.6Z" fill="#263238"/>
<path d="M223.7 135.35H145.8C143.56 135.35 141.75 137.16 141.75 139.4V174.89C141.75 177.13 143.56 178.94 145.8 178.94H178.48L185.42 187.84L191.2 178.94H223.69C225.93 178.94 227.74 177.13 227.74 174.89V139.4C227.75 137.17 225.93 135.35 223.7 135.35Z" fill="white"/>
<path d="M223.7 135.35C223.7 135.35 223.83 135.34 224.09 135.35C224.34 135.38 224.73 135.41 225.2 135.6C225.67 135.78 226.24 136.09 226.74 136.64C227.25 137.18 227.69 137.98 227.81 138.96C227.88 142.83 227.87 148.44 227.9 155.56C227.91 159.12 227.92 163.05 227.93 167.31C227.93 169.44 227.94 171.66 227.94 173.95C227.93 174.52 227.98 175.11 227.86 175.72C227.74 176.32 227.49 176.9 227.12 177.4C226.39 178.41 225.18 179.09 223.89 179.13C214.09 179.14 203.1 179.16 191.21 179.18L191.41 179.07C189.59 181.87 187.63 184.89 185.63 187.97L185.44 188.26L185.23 187.99C183.04 185.18 180.68 182.16 178.28 179.09L178.48 179.19C169.48 179.19 160.06 179.19 150.4 179.2C149.27 179.2 148.15 179.2 147.03 179.2C146.46 179.19 145.93 179.22 145.32 179.17C144.73 179.1 144.15 178.91 143.64 178.61C142.61 178.02 141.86 176.99 141.6 175.83C141.46 175.25 141.5 174.66 141.49 174.12V172.47C141.49 168.08 141.49 163.75 141.49 159.49C141.49 155.24 141.49 151.06 141.5 146.96C141.5 144.91 141.5 142.89 141.5 140.89V139.39C141.5 138.86 141.6 138.34 141.79 137.85C142.17 136.87 142.91 136.05 143.83 135.58C144.29 135.34 144.79 135.19 145.3 135.13C145.82 135.08 146.29 135.11 146.78 135.1C147.74 135.1 148.7 135.1 149.66 135.1C151.56 135.1 153.44 135.1 155.3 135.11C159 135.11 162.6 135.12 166.08 135.12C173.03 135.13 179.51 135.14 185.42 135.15C197.23 135.19 206.8 135.21 213.43 135.23C216.72 135.25 219.29 135.27 221.04 135.28C221.9 135.29 222.56 135.3 223.02 135.31C223.47 135.34 223.7 135.35 223.7 135.35C223.7 135.35 223.47 135.37 223.03 135.38C222.57 135.39 221.91 135.39 221.05 135.41C219.29 135.42 216.73 135.44 213.44 135.46C206.81 135.48 197.24 135.51 185.43 135.54C179.52 135.55 173.04 135.56 166.09 135.57C162.61 135.57 159.02 135.58 155.31 135.58C153.46 135.58 151.58 135.58 149.67 135.59C148.72 135.59 147.76 135.59 146.79 135.59C146.31 135.6 145.81 135.58 145.37 135.62C144.92 135.67 144.47 135.81 144.06 136.02C143.24 136.44 142.58 137.17 142.25 138.04C142.08 138.47 142 138.94 141.99 139.41V140.91C141.99 142.91 141.99 144.94 141.99 146.98C141.99 151.07 141.99 155.25 142 159.51C142 163.76 142 168.09 142 172.49V174.14C142.01 174.7 141.97 175.23 142.1 175.73C142.32 176.74 142.99 177.65 143.89 178.17C144.34 178.43 144.84 178.6 145.36 178.66C145.86 178.71 146.46 178.68 147.01 178.69C148.13 178.69 149.26 178.69 150.38 178.69C160.04 178.69 169.46 178.69 178.46 178.7H178.58L178.66 178.8C181.05 181.87 183.41 184.89 185.6 187.7L185.2 187.72C187.2 184.64 189.17 181.62 190.99 178.82L191.06 178.71H191.19C203.07 178.72 214.06 178.73 223.85 178.74C225.02 178.7 226.12 178.09 226.78 177.18C227.12 176.73 227.35 176.2 227.46 175.66C227.57 175.12 227.53 174.54 227.54 173.97C227.54 171.68 227.55 169.46 227.55 167.33C227.56 163.07 227.57 159.14 227.58 155.58C227.6 148.48 227.61 142.86 227.62 138.99C227.52 138.05 227.11 137.27 226.62 136.74C226.14 136.19 225.59 135.88 225.14 135.69C224.24 135.31 223.69 135.39 223.7 135.35Z" fill="#263238"/>
<path d="M170.16 145.37V146.68H169.3V145.36L167.86 142.98H168.77L169.76 144.63L170.75 142.98H171.59L170.16 145.37Z" fill="#263238"/>
<path d="M171.58 144.83C171.58 143.73 172.44 142.91 173.61 142.91C174.77 142.91 175.64 143.72 175.64 144.83C175.64 145.94 174.78 146.75 173.61 146.75C172.43 146.74 171.58 145.93 171.58 144.83ZM174.76 144.83C174.76 144.13 174.26 143.64 173.6 143.64C172.94 143.64 172.44 144.12 172.44 144.83C172.44 145.53 172.94 146.02 173.6 146.02C174.27 146.01 174.76 145.53 174.76 144.83Z" fill="#263238"/>
<path d="M176.25 145.05V142.97H177.11V145.01C177.11 145.71 177.42 146.01 177.94 146.01C178.46 146.01 178.77 145.72 178.77 145.01V142.97H179.62V145.05C179.62 146.14 179 146.74 177.94 146.74C176.88 146.74 176.25 146.14 176.25 145.05Z" fill="#263238"/>
<path d="M182.82 146.68L182.11 145.65H182.07H181.32V146.68H180.46V142.97H182.06C183.05 142.97 183.67 143.48 183.67 144.31C183.67 144.87 183.39 145.27 182.91 145.48L183.74 146.67H182.82V146.68ZM182.02 143.67H181.32V144.96H182.02C182.54 144.96 182.81 144.72 182.81 144.31C182.8 143.91 182.54 143.67 182.02 143.67Z" fill="#263238"/>
<path d="M185.62 144.83C185.62 143.71 186.48 142.91 187.63 142.91C188.27 142.91 188.81 143.14 189.16 143.57L188.61 144.08C188.36 143.79 188.05 143.65 187.68 143.65C186.99 143.65 186.49 144.14 186.49 144.84C186.49 145.54 186.98 146.03 187.68 146.03C188.05 146.03 188.36 145.88 188.61 145.59L189.16 146.1C188.81 146.53 188.28 146.76 187.63 146.76C186.48 146.74 185.62 145.95 185.62 144.83Z" fill="#263238"/>
<path d="M189.43 144.83C189.43 143.73 190.29 142.91 191.46 142.91C192.63 142.91 193.49 143.72 193.49 144.83C193.49 145.94 192.63 146.75 191.46 146.75C190.28 146.74 189.43 145.93 189.43 144.83ZM192.61 144.83C192.61 144.13 192.11 143.64 191.45 143.64C190.79 143.64 190.29 144.12 190.29 144.83C190.29 145.53 190.79 146.02 191.45 146.02C192.12 146.01 192.61 145.53 192.61 144.83Z" fill="#263238"/>
<path d="M194.13 142.98H195.81C197.02 142.98 197.85 143.71 197.85 144.83C197.85 145.95 197.02 146.68 195.81 146.68H194.13V142.98ZM195.77 145.98C196.51 145.98 196.99 145.54 196.99 144.83C196.99 144.12 196.51 143.68 195.77 143.68H194.99V145.98H195.77Z" fill="#263238"/>
<path d="M201.38 145.99V146.68H198.51V142.97H201.31V143.66H199.36V144.46H201.08V145.13H199.36V145.99H201.38Z" fill="#263238"/>
<path d="M216.1 170.91H153.4C151.44 170.91 149.85 169.32 149.85 167.36V154.12C149.85 152.16 151.44 150.57 153.4 150.57H216.1C218.06 150.57 219.65 152.16 219.65 154.12V167.36C219.64 169.32 218.06 170.91 216.1 170.91Z" fill="#F5F5F5"/>
<path d="M164.04 161.99C164.04 163.79 162.65 164.96 160.76 164.96C158.17 164.96 156.81 163.1 156.81 160.02C156.81 156.69 158.58 154.97 161.19 154.97C162.03 154.97 162.82 155.11 163.43 155.48L163.13 156.06C162.62 155.74 161.93 155.61 161.19 155.61C158.98 155.61 157.53 157.06 157.53 159.91C157.53 160.21 157.54 160.64 157.61 161.09C158.02 159.8 159.26 159.06 160.75 159.06C162.72 159.06 164.04 160.21 164.04 161.99ZM163.32 162C163.32 160.59 162.31 159.68 160.65 159.68C159.03 159.68 157.92 160.71 157.92 162.03C157.92 163.18 158.89 164.34 160.73 164.34C162.27 164.34 163.32 163.42 163.32 162Z" fill="#22C55E"/>
<path d="M177.11 162.16H175.04V164.89H174.34V162.16H168.73V161.64L174.08 155.04H174.88L169.63 161.53H174.36V159.12H175.05V161.53H177.12V162.16H177.11Z" fill="#22C55E"/>
<path d="M188.05 162.11C188.05 163.74 186.87 164.95 184.6 164.95C183.15 164.95 181.81 164.42 181.13 163.63L181.5 163.08C182.11 163.77 183.26 164.29 184.61 164.29C186.38 164.29 187.33 163.45 187.33 162.11C187.33 160.79 186.43 159.93 184.46 159.93H183.84V159.41L186.75 155.68H181.5V155.03H187.68V155.54L184.73 159.33C186.95 159.38 188.05 160.51 188.05 162.11Z" fill="#22C55E"/>
<path d="M199.95 155.04V155.55L195.72 164.89H194.93L199.12 155.69H193.59V157.58H192.89V155.05H199.95V155.04Z" fill="#22C55E"/>
<path d="M204.98 159.96C204.98 156.88 206.57 154.97 208.83 154.97C211.1 154.97 212.69 156.88 212.69 159.96C212.69 163.04 211.1 164.95 208.83 164.95C206.57 164.96 204.98 163.04 204.98 159.96ZM211.97 159.96C211.97 157.22 210.69 155.63 208.83 155.63C206.97 155.63 205.69 157.22 205.69 159.96C205.69 162.7 206.97 164.29 208.83 164.29C210.69 164.29 211.97 162.7 211.97 159.96Z" fill="#22C55E"/>
<g filter="url(#filter0_d_0_1)">
<path d="M419.4 417.52C432.49 411.96 447.65 401.03 454.41 387.63C440.29 393.3 427.84 403.93 419.4 417.52Z" fill="#263238"/>
<path d="M422.19 396.71C435.28 391.15 450.44 380.22 457.2 366.82C443.08 372.49 430.62 383.13 422.19 396.71Z" fill="#263238"/>
<path d="M425.97 376.48C439.06 370.92 454.22 359.99 460.98 346.59C446.86 352.26 434.41 362.89 425.97 376.48Z" fill="#263238"/>
<path d="M430.72 355.3C443.07 347.97 456.84 335.03 461.97 320.82C448.61 328.41 437.5 340.67 430.72 355.3Z" fill="#263238"/>
<path d="M435.8 339.09C444.8 327.32 453.19 309.8 453.08 294.62C443.22 307.05 437.08 322.86 435.8 339.09Z" fill="#263238"/>
<path d="M433.28 346.8C431.46 330.88 425.27 310.87 414.76 298.93C416.43 315.99 423.02 333.01 433.28 346.8Z" fill="#263238"/>
<path d="M429.05 364.21C425.85 347.8 417.75 327.5 405.81 315.99C408.95 333.6 417.22 350.75 429.05 364.21Z" fill="#263238"/>
<path d="M424.19 385.44C420.99 369.03 412.89 348.73 400.95 337.22C404.09 354.83 412.36 371.98 424.19 385.44Z" fill="#263238"/>
<path d="M420.29 411.51C417.09 395.1 408.99 374.8 397.05 363.29C400.19 380.9 408.46 398.05 420.29 411.51Z" fill="#263238"/>
<path d="M436.41 335.97C436.4 335.97 436.37 336.05 436.31 336.22C436.24 336.41 436.16 336.66 436.06 336.95C435.84 337.64 435.54 338.59 435.15 339.79C434.36 342.26 433.3 345.85 432.05 350.31C430.8 354.77 429.42 360.1 427.99 366.06C426.59 372.02 425.17 378.6 423.86 385.54C422.56 392.49 421.5 399.13 420.64 405.2C419.8 411.26 419.15 416.74 418.7 421.35C418.24 425.96 417.93 429.69 417.76 432.27C417.68 433.53 417.62 434.53 417.57 435.24C417.56 435.56 417.54 435.81 417.53 436.01C417.52 436.18 417.53 436.27 417.54 436.28C417.55 436.28 417.56 436.19 417.59 436.02C417.61 435.82 417.64 435.56 417.68 435.25C417.75 434.53 417.84 433.54 417.96 432.28C418.18 429.7 418.55 425.98 419.06 421.38C419.56 416.78 420.24 411.32 421.11 405.26C422 399.21 423.07 392.57 424.37 385.63C425.68 378.7 427.09 372.12 428.46 366.16C429.86 360.21 431.2 354.87 432.41 350.4C433.61 345.93 434.62 342.33 435.35 339.85C435.7 338.63 435.97 337.68 436.17 336.98C436.25 336.67 436.32 336.43 436.37 336.23C436.4 336.06 436.42 335.98 436.41 335.97Z" fill="#263238"/>
<path d="M413.02 426.18C418.57 414.55 422.61 398.21 419.88 385.45C413.73 397.79 411.29 412.27 413.02 426.18Z" fill="#455A64"/>
<path d="M403.79 411.13C409.34 399.5 413.38 383.16 410.65 370.4C404.49 382.73 402.05 397.22 403.79 411.13Z" fill="#455A64"/>
<path d="M395.51 395.82C401.06 384.19 405.1 367.85 402.37 355.09C396.21 367.42 393.77 381.91 395.51 395.82Z" fill="#455A64"/>
<path d="M387.35 379.31C391.48 367 393.55 350.23 389.34 337.95C384.69 351.05 383.98 365.76 387.35 379.31Z" fill="#455A64"/>
<path d="M382.04 365.79C381.63 352.7 377.78 336.3 369.65 326.63C369.85 340.67 374.25 354.6 382.04 365.79Z" fill="#455A64"/>
<path d="M384.49 372.28C374.86 363.19 360.22 354.17 347.05 352.99C357.19 362.9 370.51 369.76 384.49 372.28Z" fill="#455A64"/>
<path d="M390.99 386.06C380.2 377.51 364.16 369.48 350.3 369.45C361.69 378.8 376.16 384.71 390.99 386.06Z" fill="#455A64"/>
<path d="M399.1 402.67C388.31 394.12 372.27 386.09 358.41 386.06C369.81 395.41 384.28 401.32 399.1 402.67Z" fill="#455A64"/>
<path d="M410.41 421.79C399.62 413.24 383.58 405.21 369.72 405.18C381.11 414.53 395.58 420.44 410.41 421.79Z" fill="#455A64"/>
<path d="M380.78 363.42C380.77 363.42 380.79 363.5 380.84 363.64C380.9 363.81 380.97 364.01 381.06 364.26C381.28 364.84 381.58 365.62 381.96 366.61C382.75 368.65 383.95 371.59 385.49 375.18C388.57 382.38 393.13 392.2 398.8 402.72C401.64 407.98 404.49 412.91 407.16 417.35C409.85 421.77 412.34 425.72 414.52 428.97C416.68 432.23 418.48 434.84 419.76 436.62C420.38 437.48 420.87 438.16 421.24 438.66C421.4 438.87 421.53 439.04 421.63 439.18C421.72 439.3 421.77 439.35 421.78 439.35C421.79 439.35 421.75 439.28 421.67 439.15C421.57 439 421.46 438.82 421.32 438.6C420.98 438.09 420.51 437.39 419.92 436.51C418.69 434.7 416.94 432.06 414.81 428.78C412.68 425.5 410.22 421.55 407.55 417.12C404.91 412.67 402.08 407.74 399.24 402.49C393.58 391.98 388.97 382.2 385.81 375.04C384.23 371.46 382.98 368.55 382.14 366.53C381.72 365.55 381.39 364.78 381.15 364.21C381.04 363.97 380.95 363.77 380.88 363.61C380.82 363.48 380.78 363.41 380.78 363.42Z" fill="#263238"/>
<path d="M386.58 427.59H441.74V438.22H436.07L431.3 468.54H397.2L392.29 438.22H386.58V427.59Z" fill="#22C55E"/>
<path d="M386.58 438C386.58 437.86 398.84 437.74 413.96 437.74C429.08 437.74 441.34 437.85 441.34 438C441.34 438.14 429.08 438.26 413.96 438.26C398.84 438.25 386.58 438.14 386.58 438Z" fill="#263238"/>
</g>
<path d="M70.61 468.56H61.66L58.34 428.25H68.88L70.61 468.56Z" fill="#263238"/>
<path d="M148.21 468.56H157.16L160.48 428.25H149.94L148.21 468.56Z" fill="#263238"/>
<path d="M166.63 433.36L51.39 436.07L47.88 361.64C47.54 354.35 53.35 348.26 60.65 348.26H158.83C166.24 348.26 172.1 354.54 171.58 361.93L166.63 433.36Z" fill="#22C55E"/>
<path d="M172.54 361.38C172.54 361.39 172.43 361.4 172.22 361.41C171.98 361.42 171.67 361.43 171.28 361.44C170.41 361.45 169.2 361.47 167.65 361.49C164.46 361.5 159.91 361.52 154.29 361.54C143.01 361.56 127.43 361.43 110.23 361.83C93.02 362.4 77.43 362.3 66.15 362.13C60.51 362.04 55.95 361.93 52.79 361.84C51.24 361.79 50.02 361.75 49.16 361.72C48.77 361.7 48.46 361.69 48.22 361.67C48.01 361.66 47.9 361.65 47.9 361.64C47.9 361.63 48.01 361.62 48.22 361.62C48.46 361.62 48.77 361.62 49.16 361.61C50.02 361.62 51.24 361.63 52.79 361.64C55.98 361.67 60.53 361.71 66.15 361.77C77.43 361.85 93.01 361.89 110.22 361.31C127.43 360.91 143.02 361.1 154.3 361.17C159.91 361.22 164.47 361.26 167.66 361.29C169.21 361.31 170.43 361.32 171.29 361.33C171.68 361.34 171.99 361.35 172.23 361.35C172.43 361.36 172.54 361.37 172.54 361.38Z" fill="#263238"/>
<path d="M89.92 349.41C89.95 349.58 86.31 349.65 82.44 351.66C78.54 353.62 76.35 356.53 76.23 356.4C76.18 356.37 76.66 355.6 77.66 354.55C78.66 353.5 80.23 352.21 82.21 351.2C84.19 350.19 86.16 349.68 87.59 349.49C89.02 349.28 89.92 349.35 89.92 349.41Z" fill="#263238"/>
<path d="M137.32 214.08L151.41 239.81L172.05 228.27L182.08 231.58C182.08 231.58 156.76 259.03 152.65 260.43C148.54 261.83 140.76 262.08 136.32 256.52C132.27 251.45 120.48 224.84 120.48 224.84L137.32 214.08Z" fill="#FFBE9D"/>
<path d="M195.31 197.28C194.94 196.83 194.37 196.6 193.79 196.68L183.98 198.03C183.12 198.16 182.36 198.66 181.88 199.39L161.5 230.71L163.07 231.59L173.92 231.25L195.62 197.67L195.31 197.28Z" fill="#263238"/>
<path d="M188.37 201.35C188.58 201.53 188.95 201.46 189.19 201.18C189.43 200.9 189.46 200.53 189.25 200.34C189.04 200.16 188.67 200.23 188.43 200.51C188.18 200.79 188.16 201.17 188.37 201.35Z" fill="white"/>
<path d="M195.62 197.67C195.63 197.71 194.95 197.84 193.72 198.05C192.39 198.26 190.64 198.53 188.52 198.86C187.41 199.02 186.21 199.2 184.92 199.39C184.3 199.45 183.75 199.77 183.4 200.28C183.02 200.86 182.64 201.47 182.24 202.08C180.63 204.55 178.88 207.26 177.04 210.1C173.33 215.78 169.95 220.91 167.48 224.61C166.28 226.39 165.28 227.86 164.53 228.97C163.82 229.99 163.41 230.55 163.38 230.52C163.35 230.5 163.69 229.9 164.34 228.84C165.05 227.7 166 226.2 167.14 224.38C169.52 220.63 172.85 215.46 176.56 209.78C178.42 206.95 180.19 204.25 181.8 201.78C182.21 201.17 182.6 200.57 182.99 199.98C183.42 199.34 184.17 198.94 184.86 198.9C186.15 198.74 187.36 198.58 188.47 198.44C190.6 198.19 192.37 197.98 193.7 197.82C194.93 197.68 195.61 197.63 195.62 197.67Z" fill="#455A64"/>
<path d="M184.73 208.86C184.73 208.86 183.85 208.7 183.38 211.1C182.9 213.49 181.36 220.36 181.36 220.36L176.78 217.93L171.05 218.68C171.05 218.68 169.8 219.84 170.72 220.46C171.64 221.09 175.26 221.73 175.26 221.73L177.93 225.57L170.26 221.87C170.26 221.87 167.7 222.54 168.45 224.1C169.2 225.66 174.37 230.55 174.37 230.55L170.53 230.26L165.96 227.48C165.96 227.48 164.56 227.54 165.08 228.74C165.6 229.93 170.36 234.25 170.36 234.25L176.12 237.05C176.12 237.05 179.27 236.8 179.57 235.88C179.87 234.96 179.95 233.64 179.95 233.64C179.95 233.64 181.62 233.19 181.93 232.38C182.24 231.57 182.04 230.29 182.04 230.29C182.04 230.29 184.66 230.75 184.99 229.29C185.32 227.83 185.04 224.95 184.78 223.83C184.52 222.71 185.9 212.26 185.79 211.94C185.67 211.61 186.38 208.17 184.73 208.86Z" fill="#FFBE9D"/>
<path d="M179.76 235.89C179.78 235.96 179.22 236.2 178.26 236.36C177.3 236.52 175.92 236.53 174.46 236.19C173 235.84 171.78 235.21 170.99 234.63C170.2 234.06 169.81 233.59 169.86 233.54C169.97 233.39 171.79 234.97 174.6 235.62C177.39 236.3 179.73 235.71 179.76 235.89Z" fill="#EB996E"/>
<path d="M178.4 233.82C178.31 233.95 177.29 233.42 176.2 232.52C175.11 231.63 174.38 230.73 174.5 230.62C174.62 230.5 175.51 231.19 176.58 232.07C177.64 232.94 178.49 233.68 178.4 233.82Z" fill="#EB996E"/>
<path d="M181.43 228.85C181.34 228.98 180.33 228.46 179.31 227.51C178.28 226.57 177.68 225.6 177.81 225.5C177.94 225.4 178.72 226.17 179.71 227.08C180.69 227.99 181.52 228.71 181.43 228.85Z" fill="#EB996E"/>
<path d="M184.62 224.84C184.46 224.91 183.88 223.82 182.97 222.65C182.07 221.46 181.17 220.63 181.27 220.49C181.36 220.36 182.47 221.03 183.43 222.29C184.4 223.54 184.76 224.79 184.62 224.84Z" fill="#EB996E"/>
<path d="M188.51 410.3C188.54 410.3 188.58 409.96 188.48 409.35C188.38 408.75 188.13 407.87 187.52 406.94C187.36 406.71 187.21 406.47 186.95 406.24C186.71 406.02 186.28 405.85 185.88 406C185.68 406.07 185.48 406.25 185.41 406.48C185.33 406.71 185.37 406.94 185.43 407.12C185.56 407.5 185.76 407.77 185.93 408.09C186.3 408.72 186.61 409.34 187.08 410.04C187.32 410.4 187.86 410.7 188.35 410.61C188.84 410.55 189.23 410.31 189.58 410.07C190.26 409.57 190.87 409.01 191.39 408.4C191.65 408.1 191.89 407.79 192.1 407.47C192.3 407.16 192.54 406.84 192.64 406.41C192.73 405.99 192.57 405.44 192.1 405.25C191.62 405.08 191.22 405.32 190.95 405.51C190.4 405.96 190.08 406.43 189.74 406.88C189.11 407.78 188.75 408.6 188.56 409.18C188.37 409.76 188.32 410.09 188.35 410.1C188.45 410.14 188.77 408.81 190.06 407.12C190.38 406.72 190.78 406.23 191.22 405.9C191.45 405.74 191.73 405.63 191.9 405.72C192.08 405.78 192.18 406.06 192.12 406.32C192.06 406.59 191.86 406.88 191.65 407.18C191.44 407.48 191.21 407.77 190.96 408.05C190.46 408.62 189.89 409.15 189.24 409.62C188.93 409.84 188.59 410.03 188.28 410.06C187.96 410.1 187.72 409.97 187.51 409.7C187.11 409.13 186.74 408.42 186.37 407.83C186.19 407.52 185.98 407.22 185.89 406.97C185.79 406.7 185.85 406.52 186.04 406.45C186.47 406.27 186.9 406.76 187.19 407.18C188.42 408.9 188.4 410.34 188.51 410.3Z" fill="#263238"/>
<path d="M163.94 411.14L151.74 437.59L132.05 428.49L144.67 395.76L163.94 411.14Z" fill="#FFBE9D"/>
<path d="M154.04 435.82L146.91 449.42C146.91 449.42 165.16 468.29 163.45 472.51L120.55 451.94L132.34 424.67L154.04 435.82Z" fill="#455A64"/>
<path d="M134.54 441.2C133.6 441.03 132.58 441.69 132.37 442.62C132.16 443.55 132.82 444.6 133.76 444.78C134.7 444.97 135.95 444.21 136.05 443.27C136.15 442.32 135.31 441.14 134.36 441.18" fill="#E0E0E0"/>
<g opacity="0.6">
<path d="M120.55 451.94L122.33 448.52L162.79 469.52C162.79 469.52 164.3 471.27 163.44 472.51L120.55 451.94Z" fill="white"/>
</g>
<path d="M147.71 449.53C147.6 449.74 146.51 449.33 145.16 449.51C143.8 449.65 142.84 450.31 142.68 450.13C142.51 450 143.42 448.89 145.06 448.71C146.7 448.51 147.85 449.36 147.71 449.53Z" fill="#263238"/>
<path d="M151.32 453.55C151.27 453.78 150.19 453.7 149.06 454.24C147.91 454.75 147.27 455.62 147.06 455.51C146.85 455.45 147.29 454.15 148.72 453.5C150.14 452.85 151.41 453.35 151.32 453.55Z" fill="#263238"/>
<path d="M151.29 460.16C151.08 460.11 151.29 458.93 152.38 458.04C153.46 457.14 154.67 457.16 154.67 457.38C154.71 457.61 153.77 457.92 152.89 458.66C152 459.39 151.51 460.24 151.29 460.16Z" fill="#263238"/>
<path d="M149.76 444.3C149.58 444.45 148.76 443.7 147.54 443.21C146.33 442.7 145.22 442.65 145.19 442.42C145.14 442.21 146.41 441.87 147.84 442.46C149.28 443.04 149.94 444.18 149.76 444.3Z" fill="#263238"/>
<path d="M158.06 432.29L190.22 351.79C190.22 351.79 189.5 338.06 186.97 333.72C184.44 329.38 107.82 304.08 107.82 304.08C107.82 304.08 88.3 299.38 75.29 304.08C62.28 308.78 52.52 325.04 54.33 334.08C56.14 343.12 63.76 349.75 63.76 349.75L120.11 351.42L150.82 362.62L130.14 421.89L158.06 432.29Z" fill="#263238"/>
<path d="M186.67 377.29L187.4 406.4L165.71 406.93L162.59 372L186.67 377.29Z" fill="#FFBE9D"/>
<path d="M188.69 403.8L188.29 419.15C188.29 419.15 212.99 428.02 213.32 432.57L165.75 433.05L164.29 403.38L188.69 403.8Z" fill="#455A64"/>
<path d="M173.56 417.24C172.64 417.5 172.02 418.54 172.24 419.47C172.46 420.4 173.52 421.04 174.44 420.8C175.36 420.56 176.15 419.33 175.83 418.43C175.5 417.53 174.23 416.84 173.39 417.3" fill="#E0E0E0"/>
<g opacity="0.6">
<path d="M165.75 433.05L165.84 429.19L211.42 430.17C211.42 430.17 213.55 431.07 213.32 432.56L165.75 433.05Z" fill="white"/>
</g>
<path d="M189.06 418.9C189.05 419.13 187.89 419.25 186.76 420.01C185.6 420.74 185.03 421.75 184.81 421.66C184.6 421.62 184.93 420.22 186.32 419.33C187.7 418.42 189.11 418.69 189.06 418.9Z" fill="#263238"/>
<path d="M194.07 420.91C194.13 421.13 193.12 421.54 192.34 422.53C191.53 423.5 191.34 424.56 191.11 424.55C190.89 424.59 190.72 423.23 191.71 422.02C192.7 420.8 194.06 420.69 194.07 420.91Z" fill="#263238"/>
<path d="M196.96 426.86C196.75 426.91 196.41 425.75 197 424.48C197.57 423.2 198.66 422.68 198.77 422.88C198.9 423.07 198.2 423.76 197.74 424.82C197.25 425.85 197.2 426.83 196.96 426.86Z" fill="#263238"/>
<path d="M188.58 413.3C188.48 413.51 187.42 413.2 186.1 413.31C184.79 413.39 183.77 413.84 183.65 413.64C183.51 413.47 184.5 412.6 186.05 412.5C187.6 412.38 188.7 413.11 188.58 413.3Z" fill="#263238"/>
<path d="M174.01 296.45C174.01 296.45 187 295.41 188.45 309.51C189.9 323.61 191.32 389.39 191.32 389.39L160.96 391.92L156.26 324.7L107.83 304.1C107.82 304.09 165.33 294.65 174.01 296.45Z" fill="#263238"/>
<path d="M120.46 277.43C120.46 277.43 128.34 299.54 126.84 302C125.34 304.46 105.06 314.6 105.06 314.6L54.33 334.08C54.33 334.08 49.12 325.79 49.12 313.06C49.12 300.33 66.77 277.42 66.77 277.42H120.46V277.43Z" fill="#263238"/>
<path d="M105.42 302.96C105.42 302.97 105.5 303.01 105.66 303.09C105.85 303.18 106.08 303.29 106.38 303.42C107.05 303.72 107.99 304.14 109.19 304.67C111.68 305.76 115.26 307.31 119.74 309.26C128.79 313.16 141.47 318.62 156.15 324.93L155.99 324.7C156.45 331.34 156.95 338.51 157.46 345.93C158.69 363.27 159.83 379.27 160.73 391.92L160.75 392.15L160.98 392.13C170.21 391.32 177.79 390.65 183.1 390.19C185.71 389.95 187.76 389.76 189.19 389.62C189.86 389.55 190.39 389.49 190.78 389.45C191.14 389.41 191.32 389.38 191.32 389.37C191.32 389.36 191.13 389.36 190.77 389.38C190.38 389.4 189.85 389.44 189.17 389.48C187.74 389.59 185.68 389.74 183.07 389.93C177.76 390.35 170.18 390.95 160.94 391.68L161.18 391.89C160.31 379.24 159.21 363.24 158.02 345.89C157.5 338.47 156.99 331.3 156.53 324.66L156.52 324.49L156.37 324.43C141.66 318.19 128.95 312.79 119.88 308.94C115.38 307.05 111.78 305.54 109.27 304.49C108.05 303.99 107.1 303.6 106.43 303.32C106.12 303.2 105.88 303.1 105.69 303.03C105.51 302.98 105.43 302.96 105.42 302.96Z" fill="#455A64"/>
<path d="M65.07 305.17C65.08 305.21 65.59 305.07 66.49 304.78C67.5 304.46 68.78 304.04 70.31 303.55C73.53 302.53 78 301.1 83.09 300.32C88.18 299.53 92.89 299.78 96.18 300.49C99.48 301.17 101.38 302.12 101.42 302.01C101.43 301.98 100.97 301.72 100.1 301.34C99.23 300.96 97.92 300.5 96.26 300.1C92.95 299.28 88.15 298.97 83 299.76C77.85 300.55 73.37 302.05 70.17 303.17C68.57 303.74 67.29 304.22 66.4 304.57C65.54 304.93 65.06 305.14 65.07 305.17Z" fill="#455A64"/>
<path d="M72.24 293.52C72.25 293.61 73.94 293.28 76.68 293.49C78.05 293.59 79.67 293.79 81.48 294C83.29 294.21 85.27 294.46 87.33 294.85C91.45 295.58 95 297.02 97.27 298.54C99.56 300.03 100.64 301.39 100.72 301.32C100.74 301.3 100.51 300.94 99.98 300.37C99.45 299.8 98.64 299.01 97.49 298.22C95.23 296.58 91.6 295.05 87.43 294.31C85.35 293.92 83.35 293.69 81.54 293.5C79.73 293.32 78.09 293.15 76.7 293.1C75.31 293.05 74.18 293.13 73.42 293.25C72.65 293.36 72.24 293.49 72.24 293.52Z" fill="#455A64"/>
<path d="M94.65 115.88C88.81 114.89 83.68 117.14 78.76 120.43C73.84 123.72 70.13 128.69 67.99 134.21C65.74 140.03 65.19 146.57 66.92 152.56C68.65 158.55 72.76 163.91 78.32 166.74C85.91 170.6 95.63 169.25 102.42 164.12C109.21 158.98 113.1 150.49 113.42 141.98C113.64 136.12 112.24 130.12 108.97 125.25C105.69 120.36 100.46 116.73 94.65 115.88Z" fill="#263238"/>
<path d="M78.05 135.73C78.9 133.5 78.57 131 78.91 128.64C79.65 123.43 83.85 119.25 88.71 117.22C93.23 115.33 98.75 115.74 104.19 117.5C107.92 118.71 111.43 120.81 113.92 123.84C117.22 127.86 118.38 133.55 116.93 138.54L90.26 134.66C87.76 136.73 85.21 138.83 82.18 139.98C81.29 140.32 80.34 140.57 79.4 140.42C78.46 140.27 77.55 139.63 77.33 138.71C77.08 137.69 77.68 136.7 78.05 135.73Z" fill="#263238"/>
<path d="M104.76 124.85L81.48 129.78C79.23 129.93 77.46 131.78 77.42 134.04L77.7 184.43C77.72 187.87 78.87 191.21 80.98 193.93L83.2 196.79C88.26 203.32 98.52 202.66 102.38 195.36C102.65 194.85 102.84 194.4 102.92 194.04C103 193.59 103.12 193.29 103.14 192.9L103.58 187.99C103.81 183.5 103.84 178.95 103.84 178.99C103.84 178.99 113.37 177.79 115.81 165.51C117.02 159.4 117.11 149.32 116.91 141.07C116.73 133.64 112.18 124.36 104.76 124.85Z" fill="#FFBE9D"/>
<path d="M113.37 150.53C113.37 151.37 112.66 152.06 111.78 152.07C110.91 152.08 110.2 151.42 110.2 150.58C110.2 149.74 110.92 149.05 111.79 149.04C112.67 149.02 113.38 149.69 113.37 150.53Z" fill="#263238"/>
<path d="M114.53 146.22C114.33 146.42 113.16 145.48 111.46 145.42C109.76 145.33 108.47 146.16 108.3 145.95C108.21 145.85 108.43 145.49 108.99 145.11C109.54 144.74 110.47 144.39 111.53 144.43C112.59 144.48 113.47 144.9 113.97 145.32C114.46 145.76 114.63 146.14 114.53 146.22Z" fill="#263238"/>
<path d="M98.09 150.14C98.09 150.98 97.38 151.67 96.5 151.68C95.63 151.69 94.92 151.03 94.92 150.19C94.92 149.35 95.63 148.66 96.51 148.65C97.39 148.64 98.1 149.31 98.09 150.14Z" fill="#263238"/>
<path d="M98.34 145.81C98.13 146.01 96.97 145.07 95.26 145.01C93.56 144.92 92.27 145.75 92.1 145.54C92.01 145.44 92.23 145.08 92.79 144.7C93.34 144.33 94.27 143.98 95.33 144.02C96.39 144.07 97.27 144.49 97.77 144.91C98.27 145.34 98.44 145.72 98.34 145.81Z" fill="#263238"/>
<path d="M103.45 158.77C103.45 158.67 104.51 158.53 106.24 158.38C106.68 158.35 107.09 158.28 107.18 157.99C107.29 157.68 107.13 157.2 106.94 156.69C106.57 155.62 106.19 154.5 105.78 153.33C104.18 148.54 103.03 144.61 103.23 144.55C103.42 144.49 104.88 148.32 106.49 153.11C106.87 154.29 107.24 155.42 107.59 156.49C107.74 156.99 108 157.56 107.75 158.21C107.62 158.53 107.29 158.75 107.01 158.82C106.73 158.89 106.48 158.89 106.27 158.89C104.53 158.91 103.46 158.87 103.45 158.77Z" fill="#263238"/>
<path d="M103.85 178.99C103.85 178.99 95.52 179.2 87.48 173.94C87.48 173.94 91.31 182.65 103.72 181.98L103.85 178.99Z" fill="#EB996E"/>
<path d="M102.57 162.85C101.99 162.02 100.93 161.53 99.86 161.6C99.12 161.65 98.36 161.98 97.88 162.56C97.41 163.14 97.28 164 97.67 164.59C98.11 165.25 99.06 165.44 99.88 165.24C100.7 165.04 101.42 164.53 102.11 164.02C102.3 163.88 102.49 163.73 102.62 163.53C102.74 163.33 102.78 163.07 102.64 162.9" fill="#EB996E"/>
<path d="M98.39 159.76C98.67 159.75 98.6 161.61 100.13 162.98C101.66 164.36 103.64 164.23 103.64 164.49C103.66 164.61 103.19 164.83 102.35 164.82C101.53 164.82 100.35 164.51 99.41 163.67C98.47 162.83 98.1 161.74 98.07 160.97C98.04 160.19 98.26 159.74 98.39 159.76Z" fill="#263238"/>
<path d="M98.24 140.75C98.05 141.21 96.36 140.92 94.35 141.08C92.34 141.2 90.7 141.73 90.45 141.3C90.34 141.1 90.64 140.67 91.31 140.25C91.97 139.83 93.02 139.44 94.23 139.35C95.44 139.27 96.53 139.5 97.24 139.82C97.97 140.15 98.32 140.53 98.24 140.75Z" fill="#263238"/>
<path d="M114.32 138.75C114.01 139.13 112.85 138.68 111.43 138.6C110.02 138.48 108.81 138.76 108.55 138.34C108.44 138.14 108.64 137.76 109.18 137.41C109.71 137.06 110.58 136.8 111.55 136.87C112.52 136.94 113.35 137.32 113.82 137.74C114.31 138.16 114.46 138.57 114.32 138.75Z" fill="#263238"/>
<path d="M73.78 132.13C76.19 125.04 86.73 115.38 94.19 116.05L105.98 123.44C105.18 127.49 101.97 130.97 97.99 132.09C95.87 132.69 93.32 132.82 92.03 134.6C90.71 136.43 91.41 139.14 90.18 141.02C88.48 143.63 83.96 143.42 82.67 146.26C82.1 147.5 82.36 149 81.77 150.23C80.99 151.87 76.76 153.88 75.04 153.3C73.32 152.72 73.37 149.77 72.84 148.21C71.93 145.55 72.35 144.19 72.7 142.72C73.52 139.26 72.63 135.51 73.78 132.13Z" fill="#263238"/>
<path d="M80.12 154.87C80.15 153.95 79.17 151.74 78.27 151.56C75.86 151.09 71.48 151.11 71.2 157.27C70.82 165.69 79.35 164.34 79.38 164.1C79.4 163.91 80 158.05 80.12 154.87Z" fill="#FFBE9D"/>
<path d="M76.95 160.8C76.91 160.77 76.8 160.9 76.55 161C76.3 161.1 75.88 161.16 75.45 160.97C74.58 160.6 73.89 159.16 73.92 157.64C73.93 156.87 74.13 156.15 74.43 155.56C74.71 154.96 75.13 154.54 75.58 154.48C76.03 154.4 76.34 154.68 76.43 154.92C76.53 155.16 76.47 155.33 76.52 155.34C76.54 155.36 76.71 155.21 76.66 154.86C76.63 154.69 76.54 154.49 76.35 154.32C76.16 154.15 75.86 154.05 75.55 154.07C74.9 154.09 74.29 154.66 73.96 155.31C73.6 155.96 73.36 156.77 73.35 157.63C73.33 159.33 74.12 160.96 75.32 161.36C75.9 161.54 76.41 161.39 76.67 161.2C76.92 161 76.98 160.81 76.95 160.8Z" fill="#EB996E"/>
<path d="M71.98 129.95C72.01 127.32 68.72 125.59 66.15 125C63.58 124.4 60.87 125.18 58.56 126.45C57.21 127.19 55.85 128.24 55.55 129.76C55.25 131.27 56.7 133.07 58.14 132.53C55.38 133.48 53.97 137.17 55.41 139.71C56.85 142.25 60.74 142.95 62.97 141.07C62.25 143.48 60.68 145.63 58.59 147.05C62.92 147.67 67.52 145.82 70.22 142.37C72.92 138.91 73.62 134 71.98 129.95Z" fill="#263238"/>
<path d="M66.14 143.34C66.08 143.35 65.85 142.39 65.83 140.81C65.8 139.23 66.03 137.03 66.8 134.73C67.58 132.44 68.72 130.54 69.71 129.3C70.69 128.06 71.45 127.43 71.49 127.48C71.65 127.59 68.82 130.39 67.33 134.9C65.77 139.41 66.33 143.35 66.14 143.34Z" fill="#FF725E"/>
<path d="M103.54 120.9C104.31 124.33 109.53 128.72 111.81 131.39C116.17 136.48 117.03 138.17 116.99 149.56C119.05 145.63 120.63 141.78 120.47 137.34C120.31 132.9 118.68 128.46 115.59 125.27C112.51 122.07 107.93 120.26 103.54 120.9Z" fill="#263238"/>
<path d="M139.25 214.58C139.25 214.58 130.18 199.45 127.66 196.39C125.3 193.52 122.26 191.83 120.23 190.94C119.1 190.45 117.91 190.11 116.7 189.9L103.64 187C103.64 187 103.62 195.91 94.28 196.46C84.95 197.01 77.09 184.01 77.09 184.01C77.09 184.01 62.01 186.34 58.4 188.2C54.79 190.06 49.12 192.41 46 208.04L43.81 223.32L69.81 225.72L72.3 264.35L85.19 273.33C85.19 273.33 120.94 282.62 123.22 283.24C125.5 283.85 126.26 225.72 126.26 225.72C126.26 225.72 135.45 219.79 139.25 214.58Z" fill="#263238"/>
<path d="M122.13 208.08C122.16 208.07 122.34 208.46 122.63 209.19C122.93 209.92 123.31 210.99 123.73 212.33C124.58 215.01 125.51 218.8 126.03 223.07C126.55 227.34 126.56 231.24 126.39 234.05C126.3 235.45 126.2 236.59 126.08 237.36C125.97 238.14 125.9 238.57 125.86 238.56C125.82 238.56 125.83 238.12 125.88 237.34C125.93 236.56 125.98 235.43 126.02 234.03C126.1 231.24 126.03 227.37 125.52 223.13C125 218.9 124.13 215.13 123.38 212.43C123.01 211.08 122.68 210 122.44 209.25C122.21 208.52 122.1 208.1 122.13 208.08Z" fill="#455A64"/>
<path d="M121.03 271.37L72.08 260.71L69.82 225.72L48.05 223.71C48.05 223.71 48.86 247.63 49.69 254.74C50.89 264.97 56.94 278.92 60.48 281.71C64.02 284.5 123.23 283.24 123.23 283.24L121.03 271.37Z" fill="#FFBE9D"/>
<path d="M148.81 277.71C148.47 278.39 147.75 278.84 146.99 278.77C146.84 278.76 146.68 278.73 146.52 278.67C145.44 278.32 145.54 276.12 145.54 276.12L140.35 275.27C140.35 275.27 133.6 279.62 131.2 282.5C128.8 285.38 122.68 283.05 122.68 283.05L120.55 272L130.1 263.36C130.1 263.36 129.51 263.87 130.17 262.26C130.83 260.64 133.83 261.26 133.83 261.26C134.3 260.46 136.26 260.17 136.26 260.17L144.64 261.14C146.37 261.34 147.91 262.31 148.84 263.78L152.38 269.39C152.38 269.39 154.25 273.43 153.95 274.36C153.5 275.78 152 275.46 152 275.46C152 275.46 151.59 278.11 150.89 278.21C150.19 278.31 148.81 277.71 148.81 277.71Z" fill="#FFBE9D"/>
<path d="M130.99 269.77C131 269.86 132.11 269.75 133.9 269.83C135.68 269.92 138.15 270.23 140.74 271.11C142.03 271.54 143.22 272.07 144.26 272.62C145.27 273.19 146.33 273.66 146.65 274.4C146.81 274.76 146.74 275.13 146.56 275.4C146.38 275.67 146.14 275.85 145.93 275.93C145.49 276.11 145.21 275.99 145.2 276.04C145.18 276.05 145.46 276.27 146 276.13C146.26 276.06 146.56 275.88 146.81 275.57C147.06 275.27 147.2 274.74 147.01 274.26C146.83 273.77 146.41 273.39 145.97 273.08C145.51 272.78 145.04 272.48 144.5 272.19C143.45 271.6 142.23 271.05 140.91 270.61C138.27 269.71 135.73 269.45 133.91 269.46C132.08 269.47 130.98 269.71 130.99 269.77Z" fill="#EB996E"/>
<path d="M130.4 275.11C130.41 275.27 133.82 275.13 138.01 275.37C142.2 275.6 145.57 276.13 145.6 275.97C145.61 275.9 144.78 275.68 143.42 275.44C142.06 275.2 140.16 274.96 138.04 274.84C135.93 274.72 134.01 274.75 132.63 274.83C131.24 274.91 130.4 275.04 130.4 275.11Z" fill="#EB996E"/>
<path d="M148.76 277.5C148.79 277.5 148.83 277.19 148.87 276.61C148.9 276.03 148.94 275.2 148.88 274.16C148.84 273.64 148.79 273.07 148.65 272.46C148.52 271.85 148.23 271.2 147.83 270.64C147.07 269.5 146.03 268.31 144.69 267.43C143.36 266.55 142.03 265.81 140.68 265.41C139.34 265.01 138.09 264.91 137.06 264.86C136.02 264.82 135.19 264.85 134.61 264.87C134.03 264.89 133.72 264.92 133.72 264.96C133.72 265.05 135 265.09 137.04 265.24C138.06 265.33 139.27 265.47 140.53 265.88C141.79 266.28 143.09 267.03 144.38 267.88C145.67 268.74 146.65 269.82 147.42 270.93C148.23 271.99 148.38 273.2 148.51 274.21C148.7 276.21 148.65 277.5 148.76 277.5Z" fill="#EB996E"/>
<path d="M136.67 262.3C136.67 262.38 137.92 262.41 139.92 262.64C141.85 262.94 144.93 263.08 146.69 265.73C148.59 268.15 150.21 270.43 150.92 272.3C151.67 274.16 151.6 275.45 151.71 275.44C151.74 275.44 151.79 275.12 151.76 274.55C151.74 273.98 151.61 273.14 151.27 272.17C150.63 270.19 149.02 267.83 147.11 265.4C146.62 264.79 146.09 264.21 145.48 263.75C144.87 263.28 144.16 263.01 143.51 262.82C142.19 262.45 140.97 262.34 139.96 262.26C137.92 262.14 136.66 262.24 136.67 262.3Z" fill="#EB996E"/>
<path d="M133.03 280.73C133.04 280.74 133.21 280.61 133.53 280.35C133.89 280.06 134.35 279.69 134.93 279.22C136.17 278.26 138.01 276.9 140.43 275.43L140.31 275.45C141.86 275.71 143.6 276.01 145.49 276.33L145.31 276.11C145.3 276.53 145.32 276.95 145.41 277.38C145.5 277.8 145.63 278.26 146 278.63C146.19 278.81 146.46 278.92 146.69 278.95C146.92 279.01 147.17 279.03 147.42 278.99C147.91 278.92 148.38 278.66 148.71 278.28C148.79 278.19 148.87 278.08 148.94 277.97L148.99 277.89L149.01 277.85L149.02 277.83C149.09 277.8 148.44 278.04 148.72 277.94H148.73H148.74L148.9 278.01C149.12 278.1 149.34 278.18 149.57 278.25C149.8 278.32 150.03 278.38 150.28 278.43C150.4 278.45 150.53 278.47 150.67 278.47C150.8 278.47 150.95 278.48 151.15 278.38C151.44 278.17 151.55 277.93 151.66 277.69C151.76 277.45 151.85 277.22 151.92 276.98C152.06 276.5 152.17 276.02 152.25 275.51L151.95 275.72C152.62 275.84 153.42 275.68 153.88 275.06C154.09 274.77 154.26 274.42 154.24 274.02C154.22 273.66 154.14 273.34 154.06 273.02C153.7 271.75 153.18 270.53 152.63 269.29L152.62 269.28L152.61 269.26C152.01 268.31 151.37 267.29 150.72 266.27C150.32 265.63 149.92 265 149.52 264.37C149.12 263.76 148.77 263.08 148.21 262.53C147.67 261.99 147.03 261.56 146.33 261.28C145.64 260.98 144.87 260.91 144.19 260.84C141.41 260.53 138.77 260.23 136.29 259.95H136.26H136.23C135.74 260.03 135.29 260.15 134.85 260.31C134.42 260.49 133.96 260.68 133.65 261.15L133.94 261.06C133.05 260.7 132.03 260.69 131.25 261.21C130.47 261.72 130.11 262.55 129.92 263.33L129.98 263.22C127.24 265.69 125 267.7 123.4 269.14C122.66 269.82 122.07 270.36 121.63 270.77C121.23 271.15 121.02 271.35 121.04 271.37C121.05 271.38 121.28 271.21 121.71 270.86C122.17 270.47 122.79 269.95 123.55 269.31C125.18 267.9 127.46 265.94 130.25 263.52L130.3 263.48L130.32 263.41C130.5 262.72 130.85 261.97 131.49 261.57C132.12 261.15 133.02 261.16 133.76 261.47L133.94 261.55L134.05 261.38C134.23 261.1 134.63 260.89 135.03 260.74C135.43 260.59 135.88 260.48 136.32 260.41H136.26C138.73 260.7 141.38 261.01 144.15 261.34C144.86 261.42 145.52 261.48 146.15 261.76C146.78 262.01 147.36 262.4 147.85 262.89C148.34 263.37 148.68 264.01 149.09 264.64C149.49 265.27 149.88 265.9 150.29 266.54C150.94 267.56 151.58 268.58 152.18 269.53L152.16 269.5C152.71 270.71 153.22 271.93 153.57 273.14C153.65 273.44 153.73 273.75 153.74 274.02C153.77 274.26 153.65 274.52 153.49 274.73C153.19 275.16 152.58 275.29 152.07 275.21L151.81 275.17L151.77 275.42C151.69 275.89 151.59 276.37 151.46 276.82C151.34 277.25 151.15 277.77 150.92 277.94C150.91 277.95 150.82 277.97 150.71 277.96C150.61 277.96 150.5 277.94 150.39 277.93C150.17 277.89 149.96 277.84 149.74 277.77C149.52 277.7 149.31 277.63 149.1 277.55L148.95 277.49H148.94C149.21 277.39 148.57 277.63 148.63 277.6L148.62 277.62L148.6 277.65L148.56 277.72C148.51 277.8 148.45 277.89 148.38 277.96C148.12 278.26 147.76 278.47 147.38 278.53C147.19 278.56 147 278.55 146.81 278.5C146.6 278.47 146.47 278.41 146.34 278.3C145.85 277.79 145.78 276.87 145.77 276.13V275.94L145.59 275.91C143.7 275.61 141.95 275.34 140.4 275.1L140.33 275.09L140.28 275.12C137.85 276.65 136.04 278.06 134.84 279.06C134.24 279.57 133.79 279.98 133.49 280.26C133.17 280.56 133.02 280.71 133.03 280.73Z" fill="#EB996E"/>
<path d="M212.32 245.54L147.84 246.06C145.75 246.06 143.75 247.06 143.44 249.13L136.39 296.12H103.18C102.11 296.12 101.24 296.99 101.24 298.06C101.24 299.13 102.11 300 103.18 300H135.81H142H209.25L216.5 250.4C216.9 247.85 214.91 245.54 212.32 245.54Z" fill="#E0E0E0"/>
<path d="M212.32 245.54C212.32 245.54 212.67 245.5 213.34 245.64C213.99 245.79 215 246.19 215.8 247.27C216.2 247.8 216.5 248.51 216.6 249.33C216.71 250.16 216.47 251.04 216.36 251.98C216.09 253.88 215.78 256.07 215.43 258.52C214.01 268.37 211.97 282.57 209.45 300.03L209.43 300.2H209.26C181.81 300.22 145.74 300.24 106.35 300.26C105.42 300.26 104.5 300.26 103.58 300.26C103.15 300.28 102.56 300.25 102.11 299.98C101.65 299.73 101.3 299.3 101.12 298.82C100.73 297.84 101.2 296.63 102.12 296.14C102.56 295.87 103.15 295.85 103.57 295.87H104.93C108.56 295.87 112.16 295.87 115.71 295.87C122.81 295.87 129.72 295.87 136.39 295.88L136.14 296.09C138.68 279.26 141.04 263.56 143.17 249.47C143.24 248.58 143.65 247.61 144.36 247.01C145.06 246.39 145.95 246.06 146.83 245.92C147.73 245.78 148.58 245.86 149.43 245.83C150.28 245.82 151.12 245.82 151.96 245.81C155.31 245.79 158.55 245.77 161.67 245.74C167.91 245.7 173.68 245.66 178.92 245.63C189.39 245.58 197.73 245.53 203.48 245.5C206.34 245.49 208.54 245.49 210.05 245.49C210.79 245.49 211.35 245.5 211.75 245.5C212.13 245.53 212.32 245.54 212.32 245.54C212.32 245.54 212.13 245.56 211.74 245.57C211.34 245.58 210.78 245.59 210.04 245.61C208.53 245.63 206.32 245.66 203.47 245.7C197.72 245.76 189.38 245.86 178.91 245.97C173.67 246.02 167.9 246.08 161.66 246.14C158.54 246.17 155.3 246.2 151.95 246.23C151.11 246.24 150.27 246.25 149.42 246.25C148.57 246.28 147.7 246.21 146.88 246.34C146.06 246.47 145.25 246.78 144.63 247.33C144 247.88 143.66 248.65 143.58 249.53C141.48 263.62 139.14 279.32 136.62 296.16L136.59 296.37H136.37C129.71 296.37 122.79 296.37 115.69 296.38C112.14 296.38 108.55 296.38 104.91 296.38H103.55C103.07 296.37 102.71 296.39 102.35 296.59C101.64 296.96 101.29 297.88 101.59 298.63C101.73 299 102 299.33 102.35 299.52C102.71 299.73 103.07 299.75 103.56 299.73C104.48 299.73 105.4 299.73 106.33 299.73C145.72 299.75 181.79 299.78 209.24 299.79L209.04 299.96C211.63 282.51 213.73 268.32 215.19 258.48C215.56 256.02 215.89 253.84 216.17 251.94C216.28 250.99 216.53 250.12 216.43 249.33C216.35 248.54 216.06 247.85 215.68 247.33C214.92 246.26 213.93 245.85 213.3 245.69C212.68 245.54 212.32 245.57 212.32 245.54Z" fill="#263238"/>
<path d="M177.35 276.22C179.581 276.22 181.39 274.411 181.39 272.18C181.39 269.949 179.581 268.14 177.35 268.14C175.119 268.14 173.31 269.949 173.31 272.18C173.31 274.411 175.119 276.22 177.35 276.22Z" fill="white"/>
<path d="M139.01 299.57C139.1 299.59 141.15 287.62 143.59 272.85C146.03 258.07 147.93 246.08 147.84 246.07C147.75 246.06 145.7 258.02 143.26 272.8C140.82 287.57 138.92 299.56 139.01 299.57Z" fill="#263238"/>
<defs>
<filter id="filter0_d_0_1" x="343.05" y="294.62" width="122.92" height="181.92" filterUnits="userSpaceOnUse" color-interpolation-filters="sRGB">
<feFlood flood-opacity="0" result="BackgroundImageFix"/>
<feColorMatrix in="SourceAlpha" type="matrix" values="0 0 0 0 0 0 0 0 0 0 0 0 0 0 0 0 0 0 127 0" result="hardAlpha"/>
<feOffset dy="4"/>
<feGaussianBlur stdDeviation="2"/>
<feComposite in2="hardAlpha" operator="out"/>
<feColorMatrix type="matrix" values="0 0 0 0 0 0 0 0 0 0 0 0 0 0 0 0 0 0 0.25 0"/>
<feBlend mode="normal" in2="BackgroundImageFix" result="effect1_dropShadow_0_1"/>
<feBlend mode="normal" in="SourceGraphic" in2="effect1_dropShadow_0_1" result="shape"/>
</filter>
</defs>
</svg>
