<svg width="500" height="500" viewBox="0 0 500 500" fill="none" xmlns="http://www.w3.org/2000/svg">
<path d="M277.12 117C277.12 137.15 277.12 262.26 277.12 262.26H222.84C222.84 262.26 222.84 137.15 222.84 117C222.84 96.85 221.48 85.16 233.48 68.21C243.94 53.45 248.05 51.51 249.98 51.51C251.91 51.51 256.03 53.46 266.48 68.21C278.48 85.16 277.12 96.85 277.12 117Z" fill="#455A64"/>
<path d="M260.92 60.79H239.03C245.49 52.75 248.44 51.51 249.98 51.51C251.52 51.51 254.46 52.75 260.92 60.79Z" fill="#263238"/>
<path d="M230.79 72.29C233.99 72.2 237.19 72.13 240.39 72.1L249.99 72.04L259.59 72.1C262.79 72.13 265.99 72.2 269.19 72.29C265.99 72.38 262.79 72.45 259.59 72.48L249.99 72.54L240.39 72.48C237.19 72.45 233.99 72.38 230.79 72.29Z" fill="#37474F"/>
<path d="M222.86 103.08C227.38 102.99 231.91 102.92 236.43 102.89L250 102.83L263.57 102.89C268.09 102.92 272.62 102.99 277.14 103.08C272.62 103.17 268.09 103.24 263.57 103.27L250 103.33L236.43 103.27C231.91 103.24 227.38 103.17 222.86 103.08Z" fill="#37474F"/>
<path d="M223.24 94.73C227.7 94.64 232.15 94.57 236.61 94.54L249.98 94.48L263.35 94.54C267.81 94.57 272.26 94.64 276.72 94.73C272.26 94.82 267.81 94.89 263.35 94.92L249.98 94.98L236.61 94.92C232.15 94.89 227.7 94.82 223.24 94.73Z" fill="#37474F"/>
<path d="M222.86 135.43C227.38 135.34 231.91 135.27 236.43 135.24L250 135.18L263.57 135.24C268.09 135.27 272.62 135.34 277.14 135.43C272.62 135.52 268.09 135.59 263.57 135.62L250 135.68L236.43 135.62C231.91 135.59 227.38 135.52 222.86 135.43Z" fill="#37474F"/>
<path d="M222.86 167.78C227.38 167.69 231.91 167.62 236.43 167.59L250 167.53L263.57 167.59C268.09 167.62 272.62 167.69 277.14 167.78C272.62 167.87 268.09 167.94 263.57 167.97L250 168.03L236.43 167.97C231.91 167.94 227.38 167.87 222.86 167.78Z" fill="#37474F"/>
<path d="M222.86 200.13C227.38 200.04 231.91 199.97 236.43 199.94L250 199.88L263.57 199.94C268.09 199.97 272.62 200.04 277.14 200.13C272.62 200.22 268.09 200.29 263.57 200.32L250 200.38L236.43 200.32C231.91 200.29 227.38 200.22 222.86 200.13Z" fill="#37474F"/>
<path d="M222.86 232.48C227.38 232.39 231.91 232.32 236.43 232.29L250 232.23L263.57 232.29C268.09 232.32 272.62 232.39 277.14 232.48C272.62 232.57 268.09 232.64 263.57 232.67L250 232.73L236.43 232.67C231.91 232.63 227.38 232.57 222.86 232.48Z" fill="#37474F"/>
<path d="M232.84 74.36C232.86 74.7 232.57 75.03 232.2 75.06C231.82 75.11 231.43 74.77 231.43 74.36C231.43 73.95 231.82 73.61 232.2 73.66C232.57 73.68 232.85 74.02 232.84 74.36ZM232.84 74.36C232.84 74.01 232.51 73.73 232.2 73.78C231.89 73.81 231.67 74.09 231.68 74.36C231.67 74.63 231.89 74.91 232.2 74.94C232.51 74.98 232.84 74.7 232.84 74.36Z" fill="#37474F"/>
<path d="M239.95 74.36C239.97 74.7 239.68 75.03 239.31 75.06C238.93 75.11 238.54 74.77 238.54 74.36C238.54 73.95 238.93 73.61 239.31 73.66C239.68 73.68 239.97 74.02 239.95 74.36ZM239.95 74.36C239.95 74.01 239.62 73.73 239.31 73.78C239 73.81 238.78 74.09 238.79 74.36C238.78 74.63 239 74.91 239.31 74.94C239.62 74.98 239.95 74.7 239.95 74.36Z" fill="#37474F"/>
<path d="M247.06 74.36C247.08 74.7 246.79 75.03 246.42 75.06C246.04 75.11 245.65 74.77 245.65 74.36C245.65 73.95 246.04 73.61 246.42 73.66C246.8 73.68 247.08 74.02 247.06 74.36ZM247.06 74.36C247.06 74.01 246.73 73.73 246.42 73.78C246.11 73.81 245.89 74.09 245.9 74.36C245.89 74.63 246.11 74.91 246.42 74.94C246.74 74.98 247.07 74.7 247.06 74.36Z" fill="#37474F"/>
<path d="M254.18 74.36C254.2 74.7 253.91 75.03 253.54 75.06C253.16 75.11 252.77 74.77 252.77 74.36C252.77 73.95 253.16 73.61 253.54 73.66C253.91 73.68 254.19 74.02 254.18 74.36ZM254.18 74.36C254.18 74.01 253.85 73.73 253.54 73.78C253.23 73.81 253.01 74.09 253.02 74.36C253.01 74.63 253.23 74.91 253.54 74.94C253.85 74.98 254.18 74.7 254.18 74.36Z" fill="#37474F"/>
<path d="M261.29 74.36C261.31 74.7 261.02 75.03 260.65 75.06C260.27 75.11 259.88 74.77 259.88 74.36C259.88 73.95 260.27 73.61 260.65 73.66C261.02 73.68 261.31 74.02 261.29 74.36ZM261.29 74.36C261.29 74.01 260.96 73.73 260.65 73.78C260.34 73.81 260.12 74.09 260.13 74.36C260.12 74.63 260.34 74.91 260.65 74.94C260.96 74.98 261.29 74.7 261.29 74.36Z" fill="#37474F"/>
<path d="M268.4 74.36C268.42 74.7 268.13 75.03 267.76 75.06C267.38 75.11 266.99 74.77 266.99 74.36C266.99 73.95 267.38 73.61 267.76 73.66C268.14 73.68 268.42 74.02 268.4 74.36ZM268.4 74.36C268.4 74.01 268.07 73.73 267.76 73.78C267.45 73.81 267.23 74.09 267.24 74.36C267.23 74.63 267.45 74.91 267.76 74.94C268.07 74.98 268.4 74.7 268.4 74.36Z" fill="#37474F"/>
<path d="M232.84 104.91C232.86 105.25 232.57 105.58 232.2 105.61C231.82 105.66 231.43 105.32 231.43 104.91C231.43 104.5 231.82 104.16 232.2 104.21C232.57 104.24 232.85 104.58 232.84 104.91ZM232.84 104.91C232.84 104.56 232.51 104.28 232.2 104.33C231.89 104.36 231.67 104.64 231.68 104.91C231.67 105.18 231.89 105.46 232.2 105.49C232.51 105.54 232.84 105.26 232.84 104.91Z" fill="#37474F"/>
<path d="M239.95 104.91C239.97 105.25 239.68 105.58 239.31 105.61C238.93 105.66 238.54 105.32 238.54 104.91C238.54 104.5 238.93 104.16 239.31 104.21C239.68 104.24 239.97 104.58 239.95 104.91ZM239.95 104.91C239.95 104.56 239.62 104.28 239.31 104.33C239 104.36 238.78 104.64 238.79 104.91C238.78 105.18 239 105.46 239.31 105.49C239.62 105.54 239.95 105.26 239.95 104.91Z" fill="#37474F"/>
<path d="M225.73 104.91C225.75 105.25 225.46 105.58 225.09 105.61C224.71 105.66 224.32 105.32 224.32 104.91C224.32 104.5 224.71 104.16 225.09 104.21C225.46 104.24 225.74 104.58 225.73 104.91ZM225.73 104.91C225.73 104.56 225.4 104.28 225.09 104.33C224.78 104.36 224.56 104.64 224.57 104.91C224.56 105.18 224.78 105.46 225.09 105.49C225.4 105.54 225.73 105.26 225.73 104.91Z" fill="#37474F"/>
<path d="M247.06 104.91C247.08 105.25 246.79 105.58 246.42 105.61C246.04 105.66 245.65 105.32 245.65 104.91C245.65 104.5 246.04 104.16 246.42 104.21C246.8 104.24 247.08 104.58 247.06 104.91ZM247.06 104.91C247.06 104.56 246.73 104.28 246.42 104.33C246.11 104.36 245.89 104.64 245.9 104.91C245.89 105.18 246.11 105.46 246.42 105.49C246.74 105.54 247.07 105.26 247.06 104.91Z" fill="#37474F"/>
<path d="M254.18 104.91C254.2 105.25 253.91 105.58 253.54 105.61C253.16 105.66 252.77 105.32 252.77 104.91C252.77 104.5 253.16 104.16 253.54 104.21C253.91 104.24 254.19 104.58 254.18 104.91ZM254.18 104.91C254.18 104.56 253.85 104.28 253.54 104.33C253.23 104.36 253.01 104.64 253.02 104.91C253.01 105.18 253.23 105.46 253.54 105.49C253.85 105.54 254.18 105.26 254.18 104.91Z" fill="#37474F"/>
<path d="M261.29 104.91C261.31 105.25 261.02 105.58 260.65 105.61C260.27 105.66 259.88 105.32 259.88 104.91C259.88 104.5 260.27 104.16 260.65 104.21C261.02 104.24 261.31 104.58 261.29 104.91ZM261.29 104.91C261.29 104.56 260.96 104.28 260.65 104.33C260.34 104.36 260.12 104.64 260.13 104.91C260.12 105.18 260.34 105.46 260.65 105.49C260.96 105.54 261.29 105.26 261.29 104.91Z" fill="#37474F"/>
<path d="M268.4 104.91C268.42 105.25 268.13 105.58 267.76 105.61C267.38 105.66 266.99 105.32 266.99 104.91C266.99 104.5 267.38 104.16 267.76 104.21C268.14 104.24 268.42 104.58 268.4 104.91ZM268.4 104.91C268.4 104.56 268.07 104.28 267.76 104.33C267.45 104.36 267.23 104.64 267.24 104.91C267.23 105.18 267.45 105.46 267.76 105.49C268.07 105.54 268.4 105.26 268.4 104.91Z" fill="#37474F"/>
<path d="M275.52 104.91C275.54 105.25 275.25 105.58 274.88 105.61C274.5 105.66 274.11 105.32 274.11 104.91C274.11 104.5 274.5 104.16 274.88 104.21C275.25 104.24 275.53 104.58 275.52 104.91ZM275.52 104.91C275.52 104.56 275.19 104.28 274.88 104.33C274.57 104.36 274.35 104.64 274.36 104.91C274.35 105.18 274.57 105.46 274.88 105.49C275.19 105.54 275.52 105.26 275.52 104.91Z" fill="#37474F"/>
<path d="M232.84 96.85C232.86 97.19 232.57 97.52 232.2 97.55C231.82 97.6 231.43 97.26 231.43 96.85C231.43 96.44 231.82 96.1 232.2 96.15C232.57 96.18 232.85 96.51 232.84 96.85ZM232.84 96.85C232.84 96.5 232.51 96.22 232.2 96.27C231.89 96.3 231.67 96.58 231.68 96.85C231.67 97.12 231.89 97.4 232.2 97.43C232.51 97.48 232.84 97.2 232.84 96.85Z" fill="#37474F"/>
<path d="M239.95 96.85C239.97 97.19 239.68 97.52 239.31 97.55C238.93 97.6 238.54 97.26 238.54 96.85C238.54 96.44 238.93 96.1 239.31 96.15C239.68 96.18 239.97 96.51 239.95 96.85ZM239.95 96.85C239.95 96.5 239.62 96.22 239.31 96.27C239 96.3 238.78 96.58 238.79 96.85C238.78 97.12 239 97.4 239.31 97.43C239.62 97.48 239.95 97.2 239.95 96.85Z" fill="#37474F"/>
<path d="M225.73 96.85C225.75 97.19 225.46 97.52 225.09 97.55C224.71 97.6 224.32 97.26 224.32 96.85C224.32 96.44 224.71 96.1 225.09 96.15C225.46 96.18 225.74 96.51 225.73 96.85ZM225.73 96.85C225.73 96.5 225.4 96.22 225.09 96.27C224.78 96.3 224.56 96.58 224.57 96.85C224.56 97.12 224.78 97.4 225.09 97.43C225.4 97.48 225.73 97.2 225.73 96.85Z" fill="#37474F"/>
<path d="M247.06 96.85C247.08 97.19 246.79 97.52 246.42 97.55C246.04 97.6 245.65 97.26 245.65 96.85C245.65 96.44 246.04 96.1 246.42 96.15C246.8 96.18 247.08 96.51 247.06 96.85ZM247.06 96.85C247.06 96.5 246.73 96.22 246.42 96.27C246.11 96.3 245.89 96.58 245.9 96.85C245.89 97.12 246.11 97.4 246.42 97.43C246.74 97.48 247.07 97.2 247.06 96.85Z" fill="#37474F"/>
<path d="M254.18 96.85C254.2 97.19 253.91 97.52 253.54 97.55C253.16 97.6 252.77 97.26 252.77 96.85C252.77 96.44 253.16 96.1 253.54 96.15C253.91 96.18 254.19 96.51 254.18 96.85ZM254.18 96.85C254.18 96.5 253.85 96.22 253.54 96.27C253.23 96.3 253.01 96.58 253.02 96.85C253.01 97.12 253.23 97.4 253.54 97.43C253.85 97.48 254.18 97.2 254.18 96.85Z" fill="#37474F"/>
<path d="M261.29 96.85C261.31 97.19 261.02 97.52 260.65 97.55C260.27 97.6 259.88 97.26 259.88 96.85C259.88 96.44 260.27 96.1 260.65 96.15C261.02 96.18 261.31 96.51 261.29 96.85ZM261.29 96.85C261.29 96.5 260.96 96.22 260.65 96.27C260.34 96.3 260.12 96.58 260.13 96.85C260.12 97.12 260.34 97.4 260.65 97.43C260.96 97.48 261.29 97.2 261.29 96.85Z" fill="#37474F"/>
<path d="M268.4 96.85C268.42 97.19 268.13 97.52 267.76 97.55C267.38 97.6 266.99 97.26 266.99 96.85C266.99 96.44 267.38 96.1 267.76 96.15C268.14 96.18 268.42 96.51 268.4 96.85ZM268.4 96.85C268.4 96.5 268.07 96.22 267.76 96.27C267.45 96.3 267.23 96.58 267.24 96.85C267.23 97.12 267.45 97.4 267.76 97.43C268.07 97.48 268.4 97.2 268.4 96.85Z" fill="#37474F"/>
<path d="M275.52 96.85C275.54 97.19 275.25 97.52 274.88 97.55C274.5 97.6 274.11 97.26 274.11 96.85C274.11 96.44 274.5 96.1 274.88 96.15C275.25 96.18 275.53 96.51 275.52 96.85ZM275.52 96.85C275.52 96.5 275.19 96.22 274.88 96.27C274.57 96.3 274.35 96.58 274.36 96.85C274.35 97.12 274.57 97.4 274.88 97.43C275.19 97.48 275.52 97.2 275.52 96.85Z" fill="#37474F"/>
<path d="M232.84 137.68C232.86 138.02 232.57 138.35 232.2 138.38C231.82 138.43 231.43 138.09 231.43 137.68C231.43 137.27 231.82 136.92 232.2 136.98C232.57 137.01 232.85 137.35 232.84 137.68ZM232.84 137.68C232.84 137.33 232.51 137.05 232.2 137.1C231.89 137.13 231.67 137.41 231.68 137.68C231.67 137.95 231.89 138.23 232.2 138.26C232.51 138.31 232.84 138.03 232.84 137.68Z" fill="#37474F"/>
<path d="M239.95 137.68C239.97 138.02 239.68 138.35 239.31 138.38C238.93 138.43 238.54 138.09 238.54 137.68C238.54 137.27 238.93 136.92 239.31 136.98C239.68 137.01 239.97 137.35 239.95 137.68ZM239.95 137.68C239.95 137.33 239.62 137.05 239.31 137.1C239 137.13 238.78 137.41 238.79 137.68C238.78 137.95 239 138.23 239.31 138.26C239.62 138.31 239.95 138.03 239.95 137.68Z" fill="#37474F"/>
<path d="M225.73 137.68C225.75 138.02 225.46 138.35 225.09 138.38C224.71 138.43 224.32 138.09 224.32 137.68C224.32 137.27 224.71 136.92 225.09 136.98C225.46 137.01 225.74 137.35 225.73 137.68ZM225.73 137.68C225.73 137.33 225.4 137.05 225.09 137.1C224.78 137.13 224.56 137.41 224.57 137.68C224.56 137.95 224.78 138.23 225.09 138.26C225.4 138.31 225.73 138.03 225.73 137.68Z" fill="#37474F"/>
<path d="M247.06 137.68C247.08 138.02 246.79 138.35 246.42 138.38C246.04 138.43 245.65 138.09 245.65 137.68C245.65 137.27 246.04 136.92 246.42 136.98C246.8 137.01 247.08 137.35 247.06 137.68ZM247.06 137.68C247.06 137.33 246.73 137.05 246.42 137.1C246.11 137.13 245.89 137.41 245.9 137.68C245.89 137.95 246.11 138.23 246.42 138.26C246.74 138.31 247.07 138.03 247.06 137.68Z" fill="#37474F"/>
<path d="M254.18 137.68C254.2 138.02 253.91 138.35 253.54 138.38C253.16 138.43 252.77 138.09 252.77 137.68C252.77 137.27 253.16 136.92 253.54 136.98C253.91 137.01 254.19 137.35 254.18 137.68ZM254.18 137.68C254.18 137.33 253.85 137.05 253.54 137.1C253.23 137.13 253.01 137.41 253.02 137.68C253.01 137.95 253.23 138.23 253.54 138.26C253.85 138.31 254.18 138.03 254.18 137.68Z" fill="#37474F"/>
<path d="M261.29 137.68C261.31 138.02 261.02 138.35 260.65 138.38C260.27 138.43 259.88 138.09 259.88 137.68C259.88 137.27 260.27 136.92 260.65 136.98C261.02 137.01 261.31 137.35 261.29 137.68ZM261.29 137.68C261.29 137.33 260.96 137.05 260.65 137.1C260.34 137.13 260.12 137.41 260.13 137.68C260.12 137.95 260.34 138.23 260.65 138.26C260.96 138.31 261.29 138.03 261.29 137.68Z" fill="#37474F"/>
<path d="M268.4 137.68C268.42 138.02 268.13 138.35 267.76 138.38C267.38 138.43 266.99 138.09 266.99 137.68C266.99 137.27 267.38 136.92 267.76 136.98C268.14 137.01 268.42 137.35 268.4 137.68ZM268.4 137.68C268.4 137.33 268.07 137.05 267.76 137.1C267.45 137.13 267.23 137.41 267.24 137.68C267.23 137.95 267.45 138.23 267.76 138.26C268.07 138.31 268.4 138.03 268.4 137.68Z" fill="#37474F"/>
<path d="M275.52 137.68C275.54 138.02 275.25 138.35 274.88 138.38C274.5 138.43 274.11 138.09 274.11 137.68C274.11 137.27 274.5 136.92 274.88 136.98C275.25 137.01 275.53 137.35 275.52 137.68ZM275.52 137.68C275.52 137.33 275.19 137.05 274.88 137.1C274.57 137.13 274.35 137.41 274.36 137.68C274.35 137.95 274.57 138.23 274.88 138.26C275.19 138.31 275.52 138.03 275.52 137.68Z" fill="#37474F"/>
<path d="M232.84 170.45C232.86 170.79 232.57 171.12 232.2 171.15C231.82 171.2 231.43 170.86 231.43 170.45C231.43 170.04 231.82 169.69 232.2 169.75C232.57 169.78 232.85 170.11 232.84 170.45ZM232.84 170.45C232.84 170.1 232.51 169.82 232.2 169.87C231.89 169.9 231.67 170.18 231.68 170.45C231.67 170.72 231.89 171 232.2 171.03C232.51 171.08 232.84 170.8 232.84 170.45Z" fill="#37474F"/>
<path d="M239.95 170.45C239.97 170.79 239.68 171.12 239.31 171.15C238.93 171.2 238.54 170.86 238.54 170.45C238.54 170.04 238.93 169.69 239.31 169.75C239.68 169.78 239.97 170.11 239.95 170.45ZM239.95 170.45C239.95 170.1 239.62 169.82 239.31 169.87C239 169.9 238.78 170.18 238.79 170.45C238.78 170.72 239 171 239.31 171.03C239.62 171.08 239.95 170.8 239.95 170.45Z" fill="#37474F"/>
<path d="M225.73 170.45C225.75 170.79 225.46 171.12 225.09 171.15C224.71 171.2 224.32 170.86 224.32 170.45C224.32 170.04 224.71 169.69 225.09 169.75C225.46 169.78 225.74 170.11 225.73 170.45ZM225.73 170.45C225.73 170.1 225.4 169.82 225.09 169.87C224.78 169.9 224.56 170.18 224.57 170.45C224.56 170.72 224.78 171 225.09 171.03C225.4 171.08 225.73 170.8 225.73 170.45Z" fill="#37474F"/>
<path d="M247.06 170.45C247.08 170.79 246.79 171.12 246.42 171.15C246.04 171.2 245.65 170.86 245.65 170.45C245.65 170.04 246.04 169.69 246.42 169.75C246.8 169.78 247.08 170.11 247.06 170.45ZM247.06 170.45C247.06 170.1 246.73 169.82 246.42 169.87C246.11 169.9 245.89 170.18 245.9 170.45C245.89 170.72 246.11 171 246.42 171.03C246.74 171.08 247.07 170.8 247.06 170.45Z" fill="#37474F"/>
<path d="M254.18 170.45C254.2 170.79 253.91 171.12 253.54 171.15C253.16 171.2 252.77 170.86 252.77 170.45C252.77 170.04 253.16 169.69 253.54 169.75C253.91 169.78 254.19 170.11 254.18 170.45ZM254.18 170.45C254.18 170.1 253.85 169.82 253.54 169.87C253.23 169.9 253.01 170.18 253.02 170.45C253.01 170.72 253.23 171 253.54 171.03C253.85 171.08 254.18 170.8 254.18 170.45Z" fill="#37474F"/>
<path d="M261.29 170.45C261.31 170.79 261.02 171.12 260.65 171.15C260.27 171.2 259.88 170.86 259.88 170.45C259.88 170.04 260.27 169.69 260.65 169.75C261.02 169.78 261.31 170.11 261.29 170.45ZM261.29 170.45C261.29 170.1 260.96 169.82 260.65 169.87C260.34 169.9 260.12 170.18 260.13 170.45C260.12 170.72 260.34 171 260.65 171.03C260.96 171.08 261.29 170.8 261.29 170.45Z" fill="#37474F"/>
<path d="M268.4 170.45C268.42 170.79 268.13 171.12 267.76 171.15C267.38 171.2 266.99 170.86 266.99 170.45C266.99 170.04 267.38 169.69 267.76 169.75C268.14 169.78 268.42 170.11 268.4 170.45ZM268.4 170.45C268.4 170.1 268.07 169.82 267.76 169.87C267.45 169.9 267.23 170.18 267.24 170.45C267.23 170.72 267.45 171 267.76 171.03C268.07 171.08 268.4 170.8 268.4 170.45Z" fill="#37474F"/>
<path d="M275.52 170.45C275.54 170.79 275.25 171.12 274.88 171.15C274.5 171.2 274.11 170.86 274.11 170.45C274.11 170.04 274.5 169.69 274.88 169.75C275.25 169.78 275.53 170.11 275.52 170.45ZM275.52 170.45C275.52 170.1 275.19 169.82 274.88 169.87C274.57 169.9 274.35 170.18 274.36 170.45C274.35 170.72 274.57 171 274.88 171.03C275.19 171.08 275.52 170.8 275.52 170.45Z" fill="#37474F"/>
<path d="M232.84 203.22C232.86 203.56 232.57 203.89 232.2 203.92C231.82 203.97 231.43 203.63 231.43 203.22C231.43 202.81 231.82 202.46 232.2 202.52C232.57 202.55 232.85 202.88 232.84 203.22ZM232.84 203.22C232.84 202.87 232.51 202.59 232.2 202.64C231.89 202.67 231.67 202.95 231.68 203.22C231.67 203.49 231.89 203.77 232.2 203.8C232.51 203.85 232.84 203.57 232.84 203.22Z" fill="#37474F"/>
<path d="M239.95 203.22C239.97 203.56 239.68 203.89 239.31 203.92C238.93 203.97 238.54 203.63 238.54 203.22C238.54 202.81 238.93 202.46 239.31 202.52C239.68 202.55 239.97 202.88 239.95 203.22ZM239.95 203.22C239.95 202.87 239.62 202.59 239.31 202.64C239 202.67 238.78 202.95 238.79 203.22C238.78 203.49 239 203.77 239.31 203.8C239.62 203.85 239.95 203.57 239.95 203.22Z" fill="#37474F"/>
<path d="M225.73 203.22C225.75 203.56 225.46 203.89 225.09 203.92C224.71 203.97 224.32 203.63 224.32 203.22C224.32 202.81 224.71 202.46 225.09 202.52C225.46 202.55 225.74 202.88 225.73 203.22ZM225.73 203.22C225.73 202.87 225.4 202.59 225.09 202.64C224.78 202.67 224.56 202.95 224.57 203.22C224.56 203.49 224.78 203.77 225.09 203.8C225.4 203.85 225.73 203.57 225.73 203.22Z" fill="#37474F"/>
<path d="M247.06 203.22C247.08 203.56 246.79 203.89 246.42 203.92C246.04 203.97 245.65 203.63 245.65 203.22C245.65 202.81 246.04 202.46 246.42 202.52C246.8 202.55 247.08 202.88 247.06 203.22ZM247.06 203.22C247.06 202.87 246.73 202.59 246.42 202.64C246.11 202.67 245.89 202.95 245.9 203.22C245.89 203.49 246.11 203.77 246.42 203.8C246.74 203.85 247.07 203.57 247.06 203.22Z" fill="#37474F"/>
<path d="M254.18 203.22C254.2 203.56 253.91 203.89 253.54 203.92C253.16 203.97 252.77 203.63 252.77 203.22C252.77 202.81 253.16 202.46 253.54 202.52C253.91 202.55 254.19 202.88 254.18 203.22ZM254.18 203.22C254.18 202.87 253.85 202.59 253.54 202.64C253.23 202.67 253.01 202.95 253.02 203.22C253.01 203.49 253.23 203.77 253.54 203.8C253.85 203.85 254.18 203.57 254.18 203.22Z" fill="#37474F"/>
<path d="M261.29 203.22C261.31 203.56 261.02 203.89 260.65 203.92C260.27 203.97 259.88 203.63 259.88 203.22C259.88 202.81 260.27 202.46 260.65 202.52C261.02 202.55 261.31 202.88 261.29 203.22ZM261.29 203.22C261.29 202.87 260.96 202.59 260.65 202.64C260.34 202.67 260.12 202.95 260.13 203.22C260.12 203.49 260.34 203.77 260.65 203.8C260.96 203.85 261.29 203.57 261.29 203.22Z" fill="#37474F"/>
<path d="M268.4 203.22C268.42 203.56 268.13 203.89 267.76 203.92C267.38 203.97 266.99 203.63 266.99 203.22C266.99 202.81 267.38 202.46 267.76 202.52C268.14 202.55 268.42 202.88 268.4 203.22ZM268.4 203.22C268.4 202.87 268.07 202.59 267.76 202.64C267.45 202.67 267.23 202.95 267.24 203.22C267.23 203.49 267.45 203.77 267.76 203.8C268.07 203.85 268.4 203.57 268.4 203.22Z" fill="#37474F"/>
<path d="M275.52 203.22C275.54 203.56 275.25 203.89 274.88 203.92C274.5 203.97 274.11 203.63 274.11 203.22C274.11 202.81 274.5 202.46 274.88 202.52C275.25 202.55 275.53 202.88 275.52 203.22ZM275.52 203.22C275.52 202.87 275.19 202.59 274.88 202.64C274.57 202.67 274.35 202.95 274.36 203.22C274.35 203.49 274.57 203.77 274.88 203.8C275.19 203.85 275.52 203.57 275.52 203.22Z" fill="#37474F"/>
<path d="M232.84 235.99C232.86 236.33 232.57 236.66 232.2 236.69C231.82 236.74 231.43 236.4 231.43 235.99C231.43 235.58 231.82 235.23 232.2 235.29C232.57 235.32 232.85 235.65 232.84 235.99ZM232.84 235.99C232.84 235.64 232.51 235.36 232.2 235.41C231.89 235.44 231.67 235.72 231.68 235.99C231.67 236.26 231.89 236.54 232.2 236.57C232.51 236.62 232.84 236.34 232.84 235.99Z" fill="#37474F"/>
<path d="M239.95 235.99C239.97 236.33 239.68 236.66 239.31 236.69C238.93 236.74 238.54 236.4 238.54 235.99C238.54 235.58 238.93 235.23 239.31 235.29C239.68 235.32 239.97 235.65 239.95 235.99ZM239.95 235.99C239.95 235.64 239.62 235.36 239.31 235.41C239 235.44 238.78 235.72 238.79 235.99C238.78 236.26 239 236.54 239.31 236.57C239.62 236.62 239.95 236.34 239.95 235.99Z" fill="#37474F"/>
<path d="M225.73 235.99C225.75 236.33 225.46 236.66 225.09 236.69C224.71 236.74 224.32 236.4 224.32 235.99C224.32 235.58 224.71 235.23 225.09 235.29C225.46 235.32 225.74 235.65 225.73 235.99ZM225.73 235.99C225.73 235.64 225.4 235.36 225.09 235.41C224.78 235.44 224.56 235.72 224.57 235.99C224.56 236.26 224.78 236.54 225.09 236.57C225.4 236.62 225.73 236.34 225.73 235.99Z" fill="#37474F"/>
<path d="M247.06 235.99C247.08 236.33 246.79 236.66 246.42 236.69C246.04 236.74 245.65 236.4 245.65 235.99C245.65 235.58 246.04 235.23 246.42 235.29C246.8 235.32 247.08 235.65 247.06 235.99ZM247.06 235.99C247.06 235.64 246.73 235.36 246.42 235.41C246.11 235.44 245.89 235.72 245.9 235.99C245.89 236.26 246.11 236.54 246.42 236.57C246.74 236.62 247.07 236.34 247.06 235.99Z" fill="#37474F"/>
<path d="M254.18 235.99C254.2 236.33 253.91 236.66 253.54 236.69C253.16 236.74 252.77 236.4 252.77 235.99C252.77 235.58 253.16 235.23 253.54 235.29C253.91 235.32 254.19 235.65 254.18 235.99ZM254.18 235.99C254.18 235.64 253.85 235.36 253.54 235.41C253.23 235.44 253.01 235.72 253.02 235.99C253.01 236.26 253.23 236.54 253.54 236.57C253.85 236.62 254.18 236.34 254.18 235.99Z" fill="#37474F"/>
<path d="M261.29 235.99C261.31 236.33 261.02 236.66 260.65 236.69C260.27 236.74 259.88 236.4 259.88 235.99C259.88 235.58 260.27 235.23 260.65 235.29C261.02 235.32 261.31 235.65 261.29 235.99ZM261.29 235.99C261.29 235.64 260.96 235.36 260.65 235.41C260.34 235.44 260.12 235.72 260.13 235.99C260.12 236.26 260.34 236.54 260.65 236.57C260.96 236.62 261.29 236.34 261.29 235.99Z" fill="#37474F"/>
<path d="M268.4 235.99C268.42 236.33 268.13 236.66 267.76 236.69C267.38 236.74 266.99 236.4 266.99 235.99C266.99 235.58 267.38 235.23 267.76 235.29C268.14 235.32 268.42 235.65 268.4 235.99ZM268.4 235.99C268.4 235.64 268.07 235.36 267.76 235.41C267.45 235.44 267.23 235.72 267.24 235.99C267.23 236.26 267.45 236.54 267.76 236.57C268.07 236.62 268.4 236.34 268.4 235.99Z" fill="#37474F"/>
<path d="M275.52 235.99C275.54 236.33 275.25 236.66 274.88 236.69C274.5 236.74 274.11 236.4 274.11 235.99C274.11 235.58 274.5 235.23 274.88 235.29C275.25 235.32 275.53 235.65 275.52 235.99ZM275.52 235.99C275.52 235.64 275.19 235.36 274.88 235.41C274.57 235.44 274.35 235.72 274.36 235.99C274.35 236.26 274.57 236.54 274.88 236.57C275.19 236.62 275.52 236.34 275.52 235.99Z" fill="#37474F"/>
<path d="M249.98 51.51C249.45 51.72 249.12 52.22 248.75 52.62C248.4 53.05 248.06 53.5 247.73 53.95C247.08 54.86 246.46 55.79 245.87 56.74C244.68 58.63 243.58 60.58 242.53 62.55C240.45 66.51 238.61 70.59 237.13 74.81C235.66 79.02 234.5 83.37 234.19 87.82C234.06 90.04 234.14 92.28 234.12 94.52L234.13 101.23L234.21 154.91L234.13 208.59L234.09 235.43L233.97 262.27L233.85 235.43L233.81 208.59L233.73 154.91L233.81 101.23L233.82 94.52C233.85 92.28 233.77 90.05 233.91 87.8C234.24 83.31 235.41 78.94 236.91 74.73C238.43 70.52 240.31 66.44 242.43 62.5C243.49 60.53 244.61 58.59 245.82 56.71C246.42 55.77 247.05 54.84 247.71 53.94C248.04 53.49 248.38 53.04 248.74 52.62C249.12 52.21 249.45 51.71 249.98 51.51Z" fill="#37474F"/>
<path d="M249.87 51.51C250.4 51.71 250.73 52.21 251.11 52.61C251.47 53.04 251.81 53.48 252.14 53.93C252.8 54.83 253.43 55.76 254.03 56.7C255.24 58.58 256.36 60.52 257.42 62.49C259.54 66.43 261.42 70.51 262.94 74.72C264.44 78.94 265.61 83.31 265.94 87.79C266.08 90.04 266 92.27 266.03 94.51L266.04 101.22L266.12 154.9L266.04 208.58L266 235.42L265.88 262.26L265.76 235.42L265.72 208.58L265.64 154.9L265.72 101.22L265.73 94.51C265.71 92.28 265.8 90.03 265.66 87.81C265.35 83.36 264.19 79.01 262.72 74.8C261.24 70.59 259.4 66.5 257.32 62.54C256.28 60.56 255.17 58.62 253.98 56.73C253.39 55.78 252.77 54.85 252.12 53.94C251.8 53.48 251.46 53.04 251.1 52.61C250.73 52.21 250.4 51.71 249.87 51.51Z" fill="#37474F"/>
<path d="M222.84 123.84C222.84 131.86 222.84 262.26 222.84 262.26H201.24C201.24 262.26 201.24 131.86 201.24 123.84C201.24 115.82 200.7 111.17 205.47 104.42C209.63 98.55 211.27 97.77 212.04 97.77C212.81 97.77 214.45 98.54 218.61 104.42C223.38 111.17 222.84 115.82 222.84 123.84Z" fill="#37474F"/>
<path d="M227.26 120.32H222.79V122.14H227.26V120.32Z" fill="#37474F"/>
<path d="M227.26 137.41H222.79V139.23H227.26V137.41Z" fill="#37474F"/>
<path d="M227.26 154.51H222.79V156.33H227.26V154.51Z" fill="#37474F"/>
<path d="M227.26 171.61H222.79V173.43H227.26V171.61Z" fill="#37474F"/>
<path d="M201.62 113.28C205.09 113.07 208.56 113.06 212.03 113.03C215.5 113.06 218.97 113.07 222.44 113.28C218.97 113.49 215.5 113.5 212.03 113.53C208.57 113.5 205.1 113.49 201.62 113.28Z" fill="#263238"/>
<path d="M201.22 130.13C204.83 129.92 208.43 129.91 212.04 129.88C215.65 129.91 219.25 129.92 222.86 130.13C219.25 130.34 215.65 130.35 212.04 130.38C208.43 130.35 204.82 130.33 201.22 130.13Z" fill="#263238"/>
<path d="M201.22 148.89C204.83 148.68 208.43 148.67 212.04 148.64C215.65 148.67 219.25 148.68 222.86 148.89C219.25 149.1 215.65 149.11 212.04 149.14C208.43 149.11 204.82 149.09 201.22 148.89Z" fill="#263238"/>
<path d="M201.22 167.65C204.83 167.44 208.43 167.43 212.04 167.4C215.65 167.43 219.25 167.44 222.86 167.65C219.25 167.86 215.65 167.87 212.04 167.9C208.43 167.87 204.82 167.85 201.22 167.65Z" fill="#263238"/>
<path d="M201.22 186.41C204.83 186.2 208.43 186.19 212.04 186.16C215.65 186.19 219.25 186.2 222.86 186.41C219.25 186.62 215.65 186.63 212.04 186.66C208.43 186.63 204.82 186.61 201.22 186.41Z" fill="#263238"/>
<path d="M201.22 205.17C204.83 204.96 208.43 204.95 212.04 204.92C215.65 204.95 219.25 204.96 222.86 205.17C219.25 205.38 215.65 205.39 212.04 205.42C208.43 205.39 204.82 205.37 201.22 205.17Z" fill="#263238"/>
<path d="M201.22 223.93C204.83 223.72 208.43 223.71 212.04 223.68C215.65 223.71 219.25 223.72 222.86 223.93C219.25 224.14 215.65 224.15 212.04 224.18C208.43 224.15 204.82 224.13 201.22 223.93Z" fill="#263238"/>
<path d="M201.22 242.68C204.83 242.47 208.43 242.46 212.04 242.43C215.65 242.46 219.25 242.47 222.86 242.68C219.25 242.89 215.65 242.9 212.04 242.93C208.43 242.9 204.82 242.89 201.22 242.68Z" fill="#263238"/>
<path d="M216.68 124.03L212.1 124.17C210.55 124.2 208.98 124.25 207.4 124.25H207.18V124.03L207.15 119.48V119.23H207.4C210.49 119.25 213.59 119.26 216.68 119.33H216.83V119.47C216.8 121.03 216.71 122.55 216.68 124.03ZM216.68 124.03C216.65 122.47 216.56 120.95 216.53 119.48L216.68 119.63C213.59 119.71 210.49 119.71 207.4 119.73L207.65 119.48L207.62 124.03L207.4 123.81C208.92 123.81 210.44 123.86 211.98 123.89L216.68 124.03Z" fill="#263238"/>
<path d="M212.68 114.69C212.69 115.02 212.45 115.39 212.04 115.46C211.64 115.55 211.13 115.19 211.15 114.69C211.13 114.2 211.64 113.83 212.04 113.92C212.45 113.99 212.68 114.36 212.68 114.69ZM212.68 114.69C212.69 114.33 212.31 114.09 212.04 114.17C211.76 114.24 211.65 114.49 211.65 114.69C211.65 114.88 211.76 115.14 212.04 115.21C212.31 115.29 212.69 115.05 212.68 114.69Z" fill="#263238"/>
<path d="M219.79 114.69C219.8 115.02 219.56 115.39 219.15 115.46C218.75 115.55 218.24 115.19 218.26 114.69C218.24 114.2 218.75 113.83 219.15 113.92C219.57 113.99 219.8 114.36 219.79 114.69ZM219.79 114.69C219.8 114.33 219.42 114.09 219.15 114.17C218.87 114.24 218.76 114.49 218.76 114.69C218.76 114.88 218.87 115.14 219.15 115.21C219.42 115.29 219.8 115.05 219.79 114.69Z" fill="#263238"/>
<path d="M205.57 114.69C205.58 115.02 205.34 115.39 204.93 115.46C204.53 115.55 204.02 115.19 204.04 114.69C204.02 114.2 204.53 113.83 204.93 113.92C205.34 113.99 205.57 114.36 205.57 114.69ZM205.57 114.69C205.58 114.33 205.2 114.09 204.93 114.17C204.65 114.24 204.54 114.49 204.54 114.69C204.54 114.88 204.65 115.14 204.93 115.21C205.2 115.29 205.58 115.05 205.57 114.69Z" fill="#263238"/>
<path d="M212.68 131.75C212.69 132.08 212.45 132.45 212.04 132.52C211.64 132.61 211.13 132.25 211.15 131.75C211.13 131.26 211.64 130.89 212.04 130.98C212.45 131.05 212.68 131.42 212.68 131.75ZM212.68 131.75C212.69 131.39 212.31 131.15 212.04 131.23C211.76 131.3 211.65 131.55 211.65 131.75C211.65 131.94 211.76 132.2 212.04 132.27C212.31 132.35 212.69 132.11 212.68 131.75Z" fill="#263238"/>
<path d="M219.79 131.75C219.8 132.08 219.56 132.45 219.15 132.52C218.75 132.61 218.24 132.25 218.26 131.75C218.24 131.26 218.75 130.89 219.15 130.98C219.57 131.05 219.8 131.42 219.79 131.75ZM219.79 131.75C219.8 131.39 219.42 131.15 219.15 131.23C218.87 131.3 218.76 131.55 218.76 131.75C218.76 131.94 218.87 132.2 219.15 132.27C219.42 132.35 219.8 132.11 219.79 131.75Z" fill="#263238"/>
<path d="M205.57 131.75C205.57 132.08 205.34 132.45 204.93 132.52C204.53 132.61 204.02 132.25 204.04 131.75C204.02 131.26 204.53 130.89 204.93 130.98C205.34 131.05 205.57 131.42 205.57 131.75ZM205.57 131.75C205.58 131.39 205.2 131.15 204.93 131.23C204.65 131.3 204.54 131.55 204.54 131.75C204.54 131.94 204.65 132.2 204.93 132.27C205.2 132.35 205.58 132.11 205.57 131.75Z" fill="#263238"/>
<path d="M212.68 150.59C212.69 150.92 212.45 151.29 212.04 151.36C211.64 151.45 211.13 151.09 211.15 150.59C211.13 150.1 211.64 149.73 212.04 149.82C212.45 149.89 212.68 150.26 212.68 150.59ZM212.68 150.59C212.69 150.23 212.31 149.99 212.04 150.07C211.76 150.14 211.65 150.39 211.65 150.59C211.65 150.78 211.76 151.04 212.04 151.11C212.31 151.19 212.69 150.95 212.68 150.59Z" fill="#263238"/>
<path d="M219.79 150.59C219.8 150.92 219.56 151.29 219.15 151.36C218.75 151.45 218.24 151.09 218.26 150.59C218.24 150.1 218.75 149.73 219.15 149.82C219.57 149.89 219.8 150.26 219.79 150.59ZM219.79 150.59C219.8 150.23 219.42 149.99 219.15 150.07C218.87 150.14 218.76 150.39 218.76 150.59C218.76 150.78 218.87 151.04 219.15 151.11C219.42 151.19 219.8 150.95 219.79 150.59Z" fill="#263238"/>
<path d="M205.57 150.59C205.58 150.92 205.34 151.29 204.93 151.36C204.53 151.45 204.02 151.09 204.04 150.59C204.02 150.1 204.53 149.73 204.93 149.82C205.34 149.89 205.57 150.26 205.57 150.59ZM205.57 150.59C205.58 150.23 205.2 149.99 204.93 150.07C204.65 150.14 204.54 150.39 204.54 150.59C204.54 150.78 204.65 151.04 204.93 151.11C205.2 151.19 205.58 150.95 205.57 150.59Z" fill="#263238"/>
<path d="M212.68 169.42C212.69 169.75 212.45 170.12 212.04 170.19C211.64 170.28 211.13 169.92 211.15 169.42C211.13 168.93 211.64 168.56 212.04 168.65C212.45 168.73 212.68 169.1 212.68 169.42ZM212.68 169.42C212.69 169.06 212.31 168.82 212.04 168.9C211.76 168.97 211.65 169.22 211.65 169.42C211.65 169.61 211.76 169.87 212.04 169.94C212.31 170.03 212.69 169.78 212.68 169.42Z" fill="#263238"/>
<path d="M219.79 169.42C219.8 169.75 219.56 170.12 219.15 170.19C218.75 170.28 218.24 169.92 218.26 169.42C218.24 168.93 218.75 168.56 219.15 168.65C219.57 168.73 219.8 169.1 219.79 169.42ZM219.79 169.42C219.8 169.06 219.42 168.82 219.15 168.9C218.87 168.97 218.76 169.22 218.76 169.42C218.76 169.61 218.87 169.87 219.15 169.94C219.42 170.03 219.8 169.78 219.79 169.42Z" fill="#263238"/>
<path d="M205.57 169.42C205.57 169.75 205.34 170.12 204.93 170.19C204.53 170.28 204.02 169.92 204.04 169.42C204.02 168.93 204.53 168.56 204.93 168.65C205.34 168.73 205.57 169.1 205.57 169.42ZM205.57 169.42C205.58 169.06 205.2 168.82 204.93 168.9C204.65 168.97 204.54 169.22 204.54 169.42C204.54 169.61 204.65 169.87 204.93 169.94C205.2 170.03 205.58 169.78 205.57 169.42Z" fill="#263238"/>
<path d="M212.68 188.26C212.69 188.59 212.45 188.96 212.04 189.03C211.64 189.12 211.13 188.76 211.15 188.26C211.13 187.77 211.64 187.4 212.04 187.49C212.45 187.56 212.68 187.94 212.68 188.26ZM212.68 188.26C212.69 187.9 212.31 187.66 212.04 187.74C211.76 187.81 211.65 188.06 211.65 188.26C211.65 188.45 211.76 188.71 212.04 188.78C212.31 188.86 212.69 188.62 212.68 188.26Z" fill="#263238"/>
<path d="M219.79 188.26C219.8 188.59 219.56 188.96 219.15 189.03C218.75 189.12 218.24 188.76 218.26 188.26C218.24 187.77 218.75 187.4 219.15 187.49C219.57 187.56 219.8 187.94 219.79 188.26ZM219.79 188.26C219.8 187.9 219.42 187.66 219.15 187.74C218.87 187.81 218.76 188.06 218.76 188.26C218.76 188.45 218.87 188.71 219.15 188.78C219.42 188.86 219.8 188.62 219.79 188.26Z" fill="#263238"/>
<path d="M205.57 188.26C205.58 188.59 205.34 188.96 204.93 189.03C204.53 189.12 204.02 188.76 204.04 188.26C204.02 187.77 204.53 187.4 204.93 187.49C205.34 187.56 205.57 187.94 205.57 188.26ZM205.57 188.26C205.58 187.9 205.2 187.66 204.93 187.74C204.65 187.81 204.54 188.06 204.54 188.26C204.54 188.45 204.65 188.71 204.93 188.78C205.2 188.86 205.58 188.62 205.57 188.26Z" fill="#263238"/>
<path d="M212.68 207.1C212.69 207.43 212.45 207.8 212.04 207.87C211.64 207.96 211.13 207.6 211.15 207.1C211.13 206.61 211.64 206.24 212.04 206.33C212.45 206.4 212.68 206.77 212.68 207.1ZM212.68 207.1C212.69 206.74 212.31 206.5 212.04 206.58C211.76 206.65 211.65 206.9 211.65 207.1C211.65 207.29 211.76 207.55 212.04 207.62C212.31 207.7 212.69 207.46 212.68 207.1Z" fill="#263238"/>
<path d="M219.79 207.1C219.8 207.43 219.56 207.8 219.15 207.87C218.75 207.96 218.24 207.6 218.26 207.1C218.24 206.61 218.75 206.24 219.15 206.33C219.57 206.4 219.8 206.77 219.79 207.1ZM219.79 207.1C219.8 206.74 219.42 206.5 219.15 206.58C218.87 206.65 218.76 206.9 218.76 207.1C218.76 207.29 218.87 207.55 219.15 207.62C219.42 207.7 219.8 207.46 219.79 207.1Z" fill="#263238"/>
<path d="M205.57 207.1C205.58 207.43 205.34 207.8 204.93 207.87C204.53 207.96 204.02 207.6 204.04 207.1C204.02 206.61 204.53 206.24 204.93 206.33C205.34 206.4 205.57 206.77 205.57 207.1ZM205.57 207.1C205.58 206.74 205.2 206.5 204.93 206.58C204.65 206.65 204.54 206.9 204.54 207.1C204.54 207.29 204.65 207.55 204.93 207.62C205.2 207.7 205.58 207.46 205.57 207.1Z" fill="#263238"/>
<path d="M212.68 225.94C212.69 226.27 212.45 226.64 212.04 226.71C211.64 226.8 211.13 226.44 211.15 225.94C211.13 225.45 211.64 225.08 212.04 225.17C212.45 225.24 212.68 225.61 212.68 225.94ZM212.68 225.94C212.69 225.58 212.31 225.34 212.04 225.42C211.76 225.49 211.65 225.74 211.65 225.94C211.65 226.13 211.76 226.39 212.04 226.46C212.31 226.54 212.69 226.29 212.68 225.94Z" fill="#263238"/>
<path d="M219.79 225.94C219.8 226.27 219.56 226.64 219.15 226.71C218.75 226.8 218.24 226.44 218.26 225.94C218.24 225.45 218.75 225.08 219.15 225.17C219.57 225.24 219.8 225.61 219.79 225.94ZM219.79 225.94C219.8 225.58 219.42 225.34 219.15 225.42C218.87 225.49 218.76 225.74 218.76 225.94C218.76 226.13 218.87 226.39 219.15 226.46C219.42 226.54 219.8 226.29 219.79 225.94Z" fill="#263238"/>
<path d="M205.57 225.94C205.57 226.27 205.34 226.64 204.93 226.71C204.53 226.8 204.02 226.44 204.04 225.94C204.02 225.45 204.53 225.08 204.93 225.17C205.34 225.24 205.57 225.61 205.57 225.94ZM205.57 225.94C205.58 225.58 205.2 225.34 204.93 225.42C204.65 225.49 204.54 225.74 204.54 225.94C204.54 226.13 204.65 226.39 204.93 226.46C205.2 226.54 205.58 226.29 205.57 225.94Z" fill="#263238"/>
<path d="M212.68 244.77C212.69 245.1 212.45 245.47 212.04 245.54C211.64 245.63 211.13 245.27 211.15 244.77C211.13 244.28 211.64 243.91 212.04 244C212.45 244.07 212.68 244.45 212.68 244.77ZM212.68 244.77C212.69 244.41 212.31 244.17 212.04 244.25C211.76 244.32 211.65 244.57 211.65 244.77C211.65 244.96 211.76 245.22 212.04 245.29C212.31 245.38 212.69 245.13 212.68 244.77Z" fill="#263238"/>
<path d="M219.79 244.77C219.8 245.1 219.56 245.47 219.15 245.54C218.75 245.63 218.24 245.27 218.26 244.77C218.24 244.28 218.75 243.91 219.15 244C219.57 244.07 219.8 244.45 219.79 244.77ZM219.79 244.77C219.8 244.41 219.42 244.17 219.15 244.25C218.87 244.32 218.76 244.57 218.76 244.77C218.76 244.96 218.87 245.22 219.15 245.29C219.42 245.38 219.8 245.13 219.79 244.77Z" fill="#263238"/>
<path d="M205.57 244.77C205.58 245.1 205.34 245.47 204.93 245.54C204.53 245.63 204.02 245.27 204.04 244.77C204.02 244.28 204.53 243.91 204.93 244C205.34 244.07 205.57 244.45 205.57 244.77ZM205.57 244.77C205.58 244.41 205.2 244.17 204.93 244.25C204.65 244.32 204.54 244.57 204.54 244.77C204.54 244.96 204.65 245.22 204.93 245.29C205.2 245.38 205.58 245.13 205.57 244.77Z" fill="#263238"/>
<path d="M207.84 107.89C207.84 108.1 207.67 108.27 207.46 108.27C207.25 108.27 207.08 108.1 207.08 107.89C207.08 107.68 207.25 107.51 207.46 107.51C207.67 107.51 207.84 107.67 207.84 107.89Z" fill="#263238"/>
<path d="M209.37 110.02C209.37 110.23 209.2 110.4 208.99 110.4C208.78 110.4 208.61 110.23 208.61 110.02C208.61 109.81 208.78 109.64 208.99 109.64C209.19 109.63 209.37 109.8 209.37 110.02Z" fill="#263238"/>
<path d="M212.42 110.02C212.42 110.23 212.25 110.4 212.04 110.4C211.83 110.4 211.66 110.23 211.66 110.02C211.66 109.81 211.83 109.64 212.04 109.64C212.25 109.63 212.42 109.8 212.42 110.02Z" fill="#263238"/>
<path d="M215.48 110.02C215.48 110.23 215.31 110.4 215.1 110.4C214.89 110.4 214.72 110.23 214.72 110.02C214.72 109.81 214.89 109.64 215.1 109.64C215.31 109.63 215.48 109.8 215.48 110.02Z" fill="#263238"/>
<path d="M210.89 107.89C210.89 108.1 210.72 108.27 210.51 108.27C210.3 108.27 210.13 108.1 210.13 107.89C210.13 107.68 210.3 107.51 210.51 107.51C210.72 107.5 210.89 107.67 210.89 107.89Z" fill="#263238"/>
<path d="M213.95 107.89C213.95 108.1 213.78 108.27 213.57 108.27C213.36 108.27 213.19 108.1 213.19 107.89C213.19 107.68 213.36 107.51 213.57 107.51C213.78 107.5 213.95 107.67 213.95 107.89Z" fill="#263238"/>
<path d="M217.01 107.89C217.01 108.1 216.84 108.27 216.63 108.27C216.42 108.27 216.25 108.1 216.25 107.89C216.25 107.68 216.42 107.51 216.63 107.51C216.83 107.5 217.01 107.67 217.01 107.89Z" fill="#263238"/>
<path d="M209.37 121.75C209.37 121.96 209.2 122.13 208.99 122.13C208.78 122.13 208.61 121.96 208.61 121.75C208.61 121.54 208.78 121.37 208.99 121.37C209.19 121.37 209.37 121.54 209.37 121.75Z" fill="#263238"/>
<path d="M212.42 121.75C212.42 121.96 212.25 122.13 212.04 122.13C211.83 122.13 211.66 121.96 211.66 121.75C211.66 121.54 211.83 121.37 212.04 121.37C212.25 121.37 212.42 121.54 212.42 121.75Z" fill="#263238"/>
<path d="M215.48 121.75C215.48 121.96 215.31 122.13 215.1 122.13C214.89 122.13 214.72 121.96 214.72 121.75C214.72 121.54 214.89 121.37 215.1 121.37C215.31 121.37 215.48 121.54 215.48 121.75Z" fill="#263238"/>
<path d="M201.21 120.32H197.4V128.89H201.21V120.32Z" fill="#37474F"/>
<path d="M277.12 123.84C277.12 131.86 277.12 262.26 277.12 262.26H298.72C298.72 262.26 298.72 131.86 298.72 123.84C298.72 115.82 299.26 111.17 294.49 104.42C290.33 98.55 288.69 97.77 287.92 97.77C287.15 97.77 285.51 98.54 281.35 104.42C276.57 111.17 277.12 115.82 277.12 123.84Z" fill="#37474F"/>
<path d="M272.694 122.131H277.164V120.311H272.694V122.131Z" fill="#37474F"/>
<path d="M272.694 139.238H277.164V137.418H272.694V139.238Z" fill="#37474F"/>
<path d="M272.694 156.335H277.164V154.515H272.694V156.335Z" fill="#37474F"/>
<path d="M272.694 173.432H277.164V171.612H272.694V173.432Z" fill="#37474F"/>
<path d="M298.33 113.28C294.86 113.07 291.39 113.06 287.92 113.03C284.45 113.06 280.98 113.07 277.51 113.28C280.98 113.49 284.45 113.5 287.92 113.53C291.39 113.5 294.86 113.49 298.33 113.28Z" fill="#263238"/>
<path d="M298.74 130.13C295.13 129.92 291.53 129.91 287.92 129.88C284.31 129.91 280.71 129.92 277.1 130.13C280.71 130.34 284.31 130.35 287.92 130.38C291.52 130.35 295.13 130.33 298.74 130.13Z" fill="#263238"/>
<path d="M298.74 148.89C295.13 148.68 291.53 148.67 287.92 148.64C284.31 148.67 280.71 148.68 277.1 148.89C280.71 149.1 284.31 149.11 287.92 149.14C291.52 149.11 295.13 149.09 298.74 148.89Z" fill="#263238"/>
<path d="M298.74 167.65C295.13 167.44 291.53 167.43 287.92 167.4C284.31 167.43 280.71 167.44 277.1 167.65C280.71 167.86 284.31 167.87 287.92 167.9C291.52 167.87 295.13 167.85 298.74 167.65Z" fill="#263238"/>
<path d="M298.74 186.41C295.13 186.2 291.53 186.19 287.92 186.16C284.31 186.19 280.71 186.2 277.1 186.41C280.71 186.62 284.31 186.63 287.92 186.66C291.52 186.63 295.13 186.61 298.74 186.41Z" fill="#263238"/>
<path d="M298.74 205.17C295.13 204.96 291.53 204.95 287.92 204.92C284.31 204.95 280.71 204.96 277.1 205.17C280.71 205.38 284.31 205.39 287.92 205.42C291.52 205.39 295.13 205.37 298.74 205.17Z" fill="#263238"/>
<path d="M298.74 223.93C295.13 223.72 291.53 223.71 287.92 223.68C284.31 223.71 280.71 223.72 277.1 223.93C280.71 224.14 284.31 224.15 287.92 224.18C291.52 224.15 295.13 224.13 298.74 223.93Z" fill="#263238"/>
<path d="M298.74 242.68C295.13 242.47 291.53 242.46 287.92 242.43C284.31 242.46 280.71 242.47 277.1 242.68C280.71 242.89 284.31 242.9 287.92 242.93C291.52 242.9 295.13 242.89 298.74 242.68Z" fill="#263238"/>
<path d="M283.13 119.48V119.34H283.28C286.37 119.26 289.47 119.26 292.56 119.24H292.81V119.49L292.78 124.04V124.26H292.56C290.99 124.26 289.42 124.21 287.86 124.18L283.28 124.04C283.25 122.55 283.15 121.03 283.13 119.48ZM287.97 123.89C289.51 123.86 291.04 123.81 292.55 123.81L292.33 124.03L292.3 119.48L292.55 119.73C289.46 119.71 286.36 119.7 283.27 119.63L283.42 119.48C283.4 120.96 283.3 122.47 283.27 124.03L287.97 123.89Z" fill="#263238"/>
<path d="M287.92 113.92C288.33 113.83 288.83 114.19 288.81 114.69C288.83 115.18 288.32 115.54 287.92 115.46C287.51 115.39 287.27 115.02 287.28 114.69C287.27 114.36 287.5 113.99 287.92 113.92ZM287.92 115.21C288.2 115.14 288.31 114.89 288.31 114.69C288.31 114.5 288.2 114.25 287.92 114.17C287.65 114.08 287.27 114.33 287.28 114.69C287.26 115.05 287.65 115.29 287.92 115.21Z" fill="#263238"/>
<path d="M280.8 113.92C281.21 113.83 281.71 114.19 281.69 114.69C281.71 115.18 281.2 115.54 280.8 115.46C280.39 115.39 280.15 115.02 280.16 114.69C280.16 114.36 280.39 113.99 280.8 113.92ZM280.8 115.21C281.08 115.14 281.19 114.89 281.19 114.69C281.19 114.5 281.08 114.25 280.8 114.17C280.53 114.08 280.15 114.33 280.16 114.69C280.15 115.05 280.53 115.29 280.8 115.21Z" fill="#263238"/>
<path d="M295.03 113.92C295.44 113.83 295.94 114.19 295.92 114.69C295.94 115.18 295.43 115.54 295.03 115.46C294.62 115.39 294.38 115.02 294.39 114.69C294.38 114.36 294.62 113.99 295.03 113.92ZM295.03 115.21C295.31 115.14 295.42 114.89 295.42 114.69C295.42 114.5 295.31 114.25 295.03 114.17C294.76 114.08 294.38 114.33 294.39 114.69C294.38 115.05 294.76 115.29 295.03 115.21Z" fill="#263238"/>
<path d="M287.92 130.98C288.33 130.89 288.83 131.25 288.81 131.75C288.83 132.24 288.32 132.6 287.92 132.52C287.51 132.45 287.27 132.08 287.28 131.75C287.27 131.42 287.5 131.05 287.92 130.98ZM287.92 132.27C288.2 132.2 288.31 131.95 288.31 131.75C288.31 131.56 288.2 131.31 287.92 131.23C287.65 131.14 287.27 131.39 287.28 131.75C287.26 132.11 287.65 132.35 287.92 132.27Z" fill="#263238"/>
<path d="M280.8 130.98C281.21 130.89 281.71 131.25 281.69 131.75C281.71 132.24 281.2 132.6 280.8 132.52C280.39 132.45 280.15 132.08 280.16 131.75C280.16 131.42 280.39 131.05 280.8 130.98ZM280.8 132.27C281.08 132.2 281.19 131.95 281.19 131.75C281.19 131.56 281.08 131.31 280.8 131.23C280.53 131.14 280.15 131.39 280.16 131.75C280.15 132.11 280.53 132.35 280.8 132.27Z" fill="#263238"/>
<path d="M295.03 130.98C295.44 130.89 295.94 131.25 295.92 131.75C295.94 132.24 295.43 132.6 295.03 132.52C294.62 132.45 294.38 132.08 294.39 131.75C294.38 131.42 294.62 131.05 295.03 130.98ZM295.03 132.27C295.31 132.2 295.42 131.95 295.42 131.75C295.42 131.56 295.31 131.31 295.03 131.23C294.76 131.14 294.38 131.39 294.39 131.75C294.38 132.11 294.76 132.35 295.03 132.27Z" fill="#263238"/>
<path d="M287.92 149.82C288.33 149.73 288.83 150.09 288.81 150.59C288.83 151.08 288.32 151.44 287.92 151.36C287.51 151.29 287.27 150.92 287.28 150.59C287.27 150.26 287.5 149.89 287.92 149.82ZM287.92 151.1C288.2 151.03 288.31 150.78 288.31 150.58C288.31 150.39 288.2 150.14 287.92 150.06C287.65 149.97 287.27 150.22 287.28 150.58C287.26 150.95 287.65 151.19 287.92 151.1Z" fill="#263238"/>
<path d="M280.8 149.82C281.21 149.73 281.71 150.09 281.69 150.59C281.71 151.08 281.2 151.44 280.8 151.36C280.39 151.29 280.15 150.92 280.16 150.59C280.16 150.26 280.39 149.89 280.8 149.82ZM280.8 151.1C281.08 151.03 281.19 150.78 281.19 150.58C281.19 150.39 281.08 150.14 280.8 150.06C280.53 149.97 280.15 150.22 280.16 150.58C280.15 150.95 280.53 151.19 280.8 151.1Z" fill="#263238"/>
<path d="M295.03 149.82C295.44 149.73 295.94 150.09 295.92 150.59C295.94 151.08 295.43 151.44 295.03 151.36C294.62 151.29 294.38 150.92 294.39 150.59C294.38 150.26 294.62 149.89 295.03 149.82ZM295.03 151.1C295.31 151.03 295.42 150.78 295.42 150.58C295.42 150.39 295.31 150.14 295.03 150.06C294.76 149.97 294.38 150.22 294.39 150.58C294.38 150.95 294.76 151.19 295.03 151.1Z" fill="#263238"/>
<path d="M287.92 168.66C288.33 168.57 288.83 168.93 288.81 169.43C288.83 169.92 288.32 170.28 287.92 170.2C287.51 170.13 287.27 169.76 287.28 169.43C287.27 169.1 287.5 168.73 287.92 168.66ZM287.92 169.94C288.2 169.87 288.31 169.62 288.31 169.42C288.31 169.23 288.2 168.98 287.92 168.9C287.65 168.81 287.27 169.06 287.28 169.42C287.26 169.78 287.65 170.03 287.92 169.94Z" fill="#263238"/>
<path d="M280.8 168.66C281.21 168.57 281.71 168.93 281.69 169.43C281.71 169.92 281.2 170.28 280.8 170.2C280.39 170.13 280.15 169.76 280.16 169.43C280.16 169.1 280.39 168.73 280.8 168.66ZM280.8 169.94C281.08 169.87 281.19 169.62 281.19 169.42C281.19 169.23 281.08 168.98 280.8 168.9C280.53 168.81 280.15 169.06 280.16 169.42C280.15 169.78 280.53 170.03 280.8 169.94Z" fill="#263238"/>
<path d="M295.03 168.66C295.44 168.57 295.94 168.93 295.92 169.43C295.94 169.92 295.43 170.28 295.03 170.2C294.62 170.13 294.38 169.76 294.39 169.43C294.38 169.1 294.62 168.73 295.03 168.66ZM295.03 169.94C295.31 169.87 295.42 169.62 295.42 169.42C295.42 169.23 295.31 168.98 295.03 168.9C294.76 168.81 294.38 169.06 294.39 169.42C294.38 169.78 294.76 170.03 295.03 169.94Z" fill="#263238"/>
<path d="M287.92 187.5C288.33 187.41 288.83 187.77 288.81 188.27C288.83 188.76 288.32 189.12 287.92 189.04C287.51 188.97 287.27 188.6 287.28 188.27C287.27 187.94 287.5 187.56 287.92 187.5ZM287.92 188.78C288.2 188.71 288.31 188.46 288.31 188.26C288.31 188.07 288.2 187.82 287.92 187.74C287.65 187.65 287.27 187.9 287.28 188.26C287.26 188.62 287.65 188.86 287.92 188.78Z" fill="#263238"/>
<path d="M280.8 187.5C281.21 187.41 281.71 187.77 281.69 188.27C281.71 188.76 281.2 189.12 280.8 189.04C280.39 188.97 280.15 188.6 280.16 188.27C280.16 187.94 280.39 187.56 280.8 187.5ZM280.8 188.78C281.08 188.71 281.19 188.46 281.19 188.26C281.19 188.07 281.08 187.82 280.8 187.74C280.53 187.65 280.15 187.9 280.16 188.26C280.15 188.62 280.53 188.86 280.8 188.78Z" fill="#263238"/>
<path d="M295.03 187.5C295.44 187.41 295.94 187.77 295.92 188.27C295.94 188.76 295.43 189.12 295.03 189.04C294.62 188.97 294.38 188.6 294.39 188.27C294.38 187.94 294.62 187.56 295.03 187.5ZM295.03 188.78C295.31 188.71 295.42 188.46 295.42 188.26C295.42 188.07 295.31 187.82 295.03 187.74C294.76 187.65 294.38 187.9 294.39 188.26C294.38 188.62 294.76 188.86 295.03 188.78Z" fill="#263238"/>
<path d="M287.92 206.33C288.33 206.24 288.83 206.6 288.81 207.1C288.83 207.59 288.32 207.95 287.92 207.87C287.51 207.8 287.27 207.43 287.28 207.1C287.27 206.77 287.5 206.4 287.92 206.33ZM287.92 207.62C288.2 207.55 288.31 207.3 288.31 207.1C288.31 206.91 288.2 206.66 287.92 206.58C287.65 206.49 287.27 206.74 287.28 207.1C287.26 207.46 287.65 207.7 287.92 207.62Z" fill="#263238"/>
<path d="M280.8 206.33C281.21 206.24 281.71 206.6 281.69 207.1C281.71 207.59 281.2 207.95 280.8 207.87C280.39 207.8 280.15 207.43 280.16 207.1C280.16 206.77 280.39 206.4 280.8 206.33ZM280.8 207.62C281.08 207.55 281.19 207.3 281.19 207.1C281.19 206.91 281.08 206.66 280.8 206.58C280.53 206.49 280.15 206.74 280.16 207.1C280.15 207.46 280.53 207.7 280.8 207.62Z" fill="#263238"/>
<path d="M295.03 206.33C295.44 206.24 295.94 206.6 295.92 207.1C295.94 207.59 295.43 207.95 295.03 207.87C294.62 207.8 294.38 207.43 294.39 207.1C294.38 206.77 294.62 206.4 295.03 206.33ZM295.03 207.62C295.31 207.55 295.42 207.3 295.42 207.1C295.42 206.91 295.31 206.66 295.03 206.58C294.76 206.49 294.38 206.74 294.39 207.1C294.38 207.46 294.76 207.7 295.03 207.62Z" fill="#263238"/>
<path d="M287.92 225.17C288.33 225.08 288.83 225.44 288.81 225.94C288.83 226.43 288.32 226.79 287.92 226.71C287.51 226.64 287.27 226.27 287.28 225.94C287.27 225.61 287.5 225.24 287.92 225.17ZM287.92 226.45C288.2 226.38 288.31 226.13 288.31 225.93C288.31 225.74 288.2 225.49 287.92 225.41C287.65 225.32 287.27 225.57 287.28 225.93C287.26 226.29 287.65 226.54 287.92 226.45Z" fill="#263238"/>
<path d="M280.8 225.17C281.21 225.08 281.71 225.44 281.69 225.94C281.71 226.43 281.2 226.79 280.8 226.71C280.39 226.64 280.15 226.27 280.16 225.94C280.16 225.61 280.39 225.24 280.8 225.17ZM280.8 226.45C281.08 226.38 281.19 226.13 281.19 225.93C281.19 225.74 281.08 225.49 280.8 225.41C280.53 225.32 280.15 225.57 280.16 225.93C280.15 226.29 280.53 226.54 280.8 226.45Z" fill="#263238"/>
<path d="M295.03 225.17C295.44 225.08 295.94 225.44 295.92 225.94C295.94 226.43 295.43 226.79 295.03 226.71C294.62 226.64 294.38 226.27 294.39 225.94C294.38 225.61 294.62 225.24 295.03 225.17ZM295.03 226.45C295.31 226.38 295.42 226.13 295.42 225.93C295.42 225.74 295.31 225.49 295.03 225.41C294.76 225.32 294.38 225.57 294.39 225.93C294.38 226.29 294.76 226.54 295.03 226.45Z" fill="#263238"/>
<path d="M287.92 244.01C288.33 243.92 288.83 244.28 288.81 244.78C288.83 245.27 288.32 245.63 287.92 245.55C287.51 245.48 287.27 245.11 287.28 244.78C287.27 244.45 287.5 244.07 287.92 244.01ZM287.92 245.29C288.2 245.22 288.31 244.97 288.31 244.77C288.31 244.58 288.2 244.33 287.92 244.25C287.65 244.16 287.27 244.41 287.28 244.77C287.26 245.13 287.65 245.38 287.92 245.29Z" fill="#263238"/>
<path d="M280.8 244.01C281.21 243.92 281.71 244.28 281.69 244.78C281.71 245.27 281.2 245.63 280.8 245.55C280.39 245.48 280.15 245.11 280.16 244.78C280.16 244.45 280.39 244.07 280.8 244.01ZM280.8 245.29C281.08 245.22 281.19 244.97 281.19 244.77C281.19 244.58 281.08 244.33 280.8 244.25C280.53 244.16 280.15 244.41 280.16 244.77C280.15 245.13 280.53 245.38 280.8 245.29Z" fill="#263238"/>
<path d="M295.03 244.01C295.44 243.92 295.94 244.28 295.92 244.78C295.94 245.27 295.43 245.63 295.03 245.55C294.62 245.48 294.38 245.11 294.39 244.78C294.38 244.45 294.62 244.07 295.03 244.01ZM295.03 245.29C295.31 245.22 295.42 244.97 295.42 244.77C295.42 244.58 295.31 244.33 295.03 244.25C294.76 244.16 294.38 244.41 294.39 244.77C294.38 245.13 294.76 245.38 295.03 245.29Z" fill="#263238"/>
<path d="M292.12 107.89C292.12 108.1 292.29 108.27 292.5 108.27C292.71 108.27 292.88 108.1 292.88 107.89C292.88 107.68 292.71 107.51 292.5 107.51C292.29 107.5 292.12 107.67 292.12 107.89Z" fill="#263238"/>
<path d="M290.59 110.02C290.59 110.23 290.76 110.4 290.97 110.4C291.18 110.4 291.35 110.23 291.35 110.02C291.35 109.81 291.18 109.64 290.97 109.64C290.76 109.63 290.59 109.8 290.59 110.02Z" fill="#263238"/>
<path d="M287.53 110.02C287.53 110.23 287.7 110.4 287.91 110.4C288.12 110.4 288.29 110.23 288.29 110.02C288.29 109.81 288.12 109.64 287.91 109.64C287.71 109.63 287.53 109.8 287.53 110.02Z" fill="#263238"/>
<path d="M284.48 110.02C284.48 110.23 284.65 110.4 284.86 110.4C285.07 110.4 285.24 110.23 285.24 110.02C285.24 109.81 285.07 109.64 284.86 109.64C284.65 109.63 284.48 109.8 284.48 110.02Z" fill="#263238"/>
<path d="M289.06 107.89C289.06 108.1 289.23 108.27 289.44 108.27C289.65 108.27 289.82 108.1 289.82 107.89C289.82 107.68 289.65 107.51 289.44 107.51C289.23 107.5 289.06 107.67 289.06 107.89Z" fill="#263238"/>
<path d="M286.01 107.89C286.01 108.1 286.18 108.27 286.39 108.27C286.6 108.27 286.77 108.1 286.77 107.89C286.77 107.68 286.6 107.51 286.39 107.51C286.18 107.51 286.01 107.67 286.01 107.89Z" fill="#263238"/>
<path d="M282.95 107.89C282.95 108.1 283.12 108.27 283.33 108.27C283.54 108.27 283.71 108.1 283.71 107.89C283.71 107.68 283.54 107.51 283.33 107.51C283.12 107.5 282.95 107.67 282.95 107.89Z" fill="#263238"/>
<path d="M290.59 121.75C290.59 121.96 290.76 122.13 290.97 122.13C291.18 122.13 291.35 121.96 291.35 121.75C291.35 121.54 291.18 121.37 290.97 121.37C290.76 121.37 290.59 121.54 290.59 121.75Z" fill="#263238"/>
<path d="M287.53 121.75C287.53 121.96 287.7 122.13 287.91 122.13C288.12 122.13 288.29 121.96 288.29 121.75C288.29 121.54 288.12 121.37 287.91 121.37C287.71 121.37 287.53 121.54 287.53 121.75Z" fill="#263238"/>
<path d="M284.48 121.75C284.48 121.96 284.65 122.13 284.86 122.13C285.07 122.13 285.24 121.96 285.24 121.75C285.24 121.54 285.07 121.37 284.86 121.37C284.65 121.37 284.48 121.54 284.48 121.75Z" fill="#263238"/>
<path d="M298.738 128.884H302.548V120.314H298.738V128.884Z" fill="#37474F"/>
<path d="M223.89 250H200.99V275.92H223.89V250Z" fill="#263238"/>
<path d="M222.41 275.92H202.47V279.02H222.41V275.92Z" fill="#37474F"/>
<path d="M220.81 279.02H204.07V281.44H220.81V279.02Z" fill="#263238"/>
<path d="M226.3 289.09H198.58V291.8H226.3V289.09Z" fill="#263238"/>
<path d="M224.89 289.09H200C202.3 284.55 207.01 281.44 212.44 281.44C217.87 281.44 222.58 284.55 224.89 289.09Z" fill="#37474F"/>
<path d="M234.07 265.31V152.9C234.07 152.9 229.96 159.9 229.11 163.33C227.67 169.14 225.54 189.68 222.63 196.44C221.75 198.47 217.43 211.26 211.89 216.57C204.57 223.58 195.58 230.95 191.47 235.13C185.88 240.83 178.66 246.15 178.66 263.12L234.07 265.31Z" fill="#FFC727"/>
<path opacity="0.1" d="M234.07 265.31V152.9C234.07 152.9 229.96 159.9 229.11 163.33C227.67 169.14 225.54 189.68 222.63 196.44C221.75 198.47 217.43 211.26 211.89 216.57C204.57 223.58 195.58 230.95 191.47 235.13C185.88 240.83 178.66 246.15 178.66 263.12L234.07 265.31Z" fill="black"/>
<path opacity="0.1" d="M234.07 152.9V265.31L217.1 264.64L231.62 157.39C232.86 154.96 234.07 152.9 234.07 152.9Z" fill="black"/>
<path d="M276.107 275.921H299.007V250.001H276.107V275.921Z" fill="#263238"/>
<path d="M277.587 279.024H297.527V275.924H277.587V279.024Z" fill="#37474F"/>
<path d="M279.187 281.444H295.927V279.024H279.187V281.444Z" fill="#263238"/>
<path d="M273.697 291.793H301.417V289.083H273.697V291.793Z" fill="#263238"/>
<path d="M275.11 289.09H300C297.7 284.55 292.99 281.44 287.56 281.44C282.13 281.44 277.42 284.55 275.11 289.09Z" fill="#37474F"/>
<path d="M265.93 265.31V152.9C265.93 152.9 270.04 159.9 270.89 163.33C272.33 169.14 274.46 189.68 277.37 196.44C278.25 198.47 282.57 211.26 288.11 216.57C295.43 223.58 304.42 230.95 308.53 235.13C314.12 240.83 321.34 246.15 321.34 263.12L265.93 265.31Z" fill="#FFC727"/>
<path opacity="0.1" d="M265.93 265.31V152.9C265.93 152.9 270.04 159.9 270.89 163.33C272.33 169.14 274.46 189.68 277.37 196.44C278.25 198.47 282.57 211.26 288.11 216.57C295.43 223.58 304.42 230.95 308.53 235.13C314.12 240.83 321.34 246.15 321.34 263.12L265.93 265.31Z" fill="black"/>
<path opacity="0.1" d="M265.93 152.9V265.31L282.9 264.64L268.38 157.39C267.14 154.96 265.93 152.9 265.93 152.9Z" fill="black"/>
<path opacity="0.6" d="M222.85 299.94C222.85 319.33 212.68 339.07 212.68 339.07C212.68 339.07 202.51 319.32 202.51 299.94C202.51 297.17 203.03 294.41 203.85 291.79H221.51C222.33 294.41 222.85 297.17 222.85 299.94Z" fill="#FFC727"/>
<path opacity="0.6" d="M219.37 295.22C219.37 310.8 212.68 326.68 212.68 326.68C212.68 326.68 205.99 310.8 205.99 295.22C205.99 294.08 206.08 292.93 206.24 291.8H219.12C219.28 292.93 219.37 294.07 219.37 295.22Z" fill="#FFC727"/>
<path opacity="0.6" d="M297.73 299.94C297.73 319.33 287.56 339.07 287.56 339.07C287.56 339.07 277.39 319.32 277.39 299.94C277.39 297.17 277.91 294.41 278.73 291.79H296.39C297.21 294.41 297.73 297.17 297.73 299.94Z" fill="#FFC727"/>
<path opacity="0.6" d="M294.25 295.22C294.25 310.8 287.56 326.68 287.56 326.68C287.56 326.68 280.87 310.8 280.87 295.22C280.87 294.08 280.96 292.93 281.12 291.8H294C294.16 292.93 294.25 294.07 294.25 295.22Z" fill="#FFC727"/>
<path d="M269.62 147.36C269.62 155.31 269.62 235.13 269.62 235.13H230.37C230.37 235.13 230.37 155.31 230.37 147.36C230.37 139.4 231.69 132.18 236.87 120.23C242.04 108.27 244.52 103.21 249.99 103.21C255.47 103.21 257.95 108.27 263.11 120.23C268.3 132.18 269.62 139.41 269.62 147.36Z" fill="#FFC727"/>
<g opacity="0.1">
<path d="M230.38 148.98C233.65 148.89 236.92 148.82 240.19 148.79L250 148.73L259.81 148.79C263.08 148.82 266.35 148.89 269.62 148.98C266.35 149.07 263.08 149.14 259.81 149.17L250 149.23L240.19 149.17C236.92 149.14 233.65 149.08 230.38 148.98Z" fill="black"/>
<path d="M230.38 178.14C233.65 178.05 236.92 177.98 240.19 177.95L250 177.89L259.81 177.95C263.08 177.98 266.35 178.05 269.62 178.14C266.35 178.23 263.08 178.3 259.81 178.33L250 178.39L240.19 178.33C236.92 178.3 233.65 178.24 230.38 178.14Z" fill="black"/>
<path d="M230.38 207.3C233.65 207.21 236.92 207.14 240.19 207.11L250 207.05L259.81 207.11C263.08 207.14 266.35 207.21 269.62 207.3C266.35 207.39 263.08 207.46 259.81 207.49L250 207.55L240.19 207.49C236.92 207.46 233.65 207.4 230.38 207.3Z" fill="black"/>
<path d="M232.86 151.24C232.88 151.58 232.59 151.91 232.22 151.94C231.84 151.99 231.45 151.65 231.45 151.24C231.45 150.83 231.84 150.48 232.22 150.54C232.59 150.57 232.87 150.9 232.86 151.24ZM232.86 151.24C232.86 150.89 232.53 150.61 232.22 150.66C231.91 150.69 231.69 150.97 231.7 151.24C231.69 151.51 231.91 151.79 232.22 151.82C232.53 151.87 232.86 151.59 232.86 151.24Z" fill="black"/>
<path d="M239.97 151.24C239.99 151.58 239.7 151.91 239.33 151.94C238.95 151.99 238.56 151.65 238.56 151.24C238.56 150.83 238.95 150.48 239.33 150.54C239.7 150.57 239.99 150.9 239.97 151.24ZM239.97 151.24C239.97 150.89 239.64 150.61 239.33 150.66C239.02 150.69 238.8 150.97 238.81 151.24C238.8 151.51 239.02 151.79 239.33 151.82C239.64 151.87 239.97 151.59 239.97 151.24Z" fill="black"/>
<path d="M261.31 151.24C261.33 151.58 261.04 151.91 260.67 151.94C260.29 151.99 259.9 151.65 259.9 151.24C259.9 150.83 260.29 150.48 260.67 150.54C261.04 150.57 261.33 150.9 261.31 151.24ZM261.31 151.24C261.31 150.89 260.98 150.61 260.67 150.66C260.36 150.69 260.14 150.97 260.15 151.24C260.14 151.51 260.36 151.79 260.67 151.82C260.98 151.87 261.31 151.59 261.31 151.24Z" fill="black"/>
<path d="M268.42 151.24C268.44 151.58 268.15 151.91 267.78 151.94C267.4 151.99 267.01 151.65 267.01 151.24C267.01 150.83 267.4 150.48 267.78 150.54C268.16 150.57 268.44 150.9 268.42 151.24ZM268.42 151.24C268.42 150.89 268.09 150.61 267.78 150.66C267.47 150.69 267.25 150.97 267.26 151.24C267.25 151.51 267.47 151.79 267.78 151.82C268.09 151.87 268.42 151.59 268.42 151.24Z" fill="black"/>
<path d="M232.86 180.82C232.88 181.16 232.59 181.49 232.22 181.52C231.84 181.57 231.45 181.23 231.45 180.82C231.45 180.41 231.84 180.07 232.22 180.12C232.59 180.15 232.87 180.48 232.86 180.82ZM232.86 180.82C232.86 180.47 232.53 180.19 232.22 180.24C231.91 180.27 231.69 180.55 231.7 180.82C231.69 181.09 231.91 181.37 232.22 181.4C232.53 181.45 232.86 181.16 232.86 180.82Z" fill="black"/>
<path d="M239.97 180.82C239.99 181.16 239.7 181.49 239.33 181.52C238.95 181.57 238.56 181.23 238.56 180.82C238.56 180.41 238.95 180.07 239.33 180.12C239.7 180.15 239.99 180.48 239.97 180.82ZM239.97 180.82C239.97 180.47 239.64 180.19 239.33 180.24C239.02 180.27 238.8 180.55 238.81 180.82C238.8 181.09 239.02 181.37 239.33 181.4C239.64 181.45 239.97 181.16 239.97 180.82Z" fill="black"/>
<path d="M261.31 180.82C261.33 181.16 261.04 181.49 260.67 181.52C260.29 181.57 259.9 181.23 259.9 180.82C259.9 180.41 260.29 180.07 260.67 180.12C261.04 180.15 261.33 180.48 261.31 180.82ZM261.31 180.82C261.31 180.47 260.98 180.19 260.67 180.24C260.36 180.27 260.14 180.55 260.15 180.82C260.14 181.09 260.36 181.37 260.67 181.4C260.98 181.45 261.31 181.16 261.31 180.82Z" fill="black"/>
<path d="M268.42 180.82C268.44 181.16 268.15 181.49 267.78 181.52C267.4 181.57 267.01 181.23 267.01 180.82C267.01 180.41 267.4 180.07 267.78 180.12C268.16 180.15 268.44 180.48 268.42 180.82ZM268.42 180.82C268.42 180.47 268.09 180.19 267.78 180.24C267.47 180.27 267.25 180.55 267.26 180.82C267.25 181.09 267.47 181.37 267.78 181.4C268.09 181.45 268.42 181.16 268.42 180.82Z" fill="black"/>
<path d="M232.86 210.4C232.88 210.74 232.59 211.07 232.22 211.1C231.84 211.15 231.45 210.81 231.45 210.4C231.45 209.99 231.84 209.64 232.22 209.7C232.59 209.73 232.87 210.06 232.86 210.4ZM232.86 210.4C232.86 210.05 232.53 209.77 232.22 209.82C231.91 209.85 231.69 210.13 231.7 210.4C231.69 210.67 231.91 210.95 232.22 210.98C232.53 211.03 232.86 210.74 232.86 210.4Z" fill="black"/>
<path d="M239.97 210.4C239.99 210.74 239.7 211.07 239.33 211.1C238.95 211.15 238.56 210.81 238.56 210.4C238.56 209.99 238.95 209.64 239.33 209.7C239.7 209.73 239.99 210.06 239.97 210.4ZM239.97 210.4C239.97 210.05 239.64 209.77 239.33 209.82C239.02 209.85 238.8 210.13 238.81 210.4C238.8 210.67 239.02 210.95 239.33 210.98C239.64 211.03 239.97 210.74 239.97 210.4Z" fill="black"/>
<path d="M261.31 210.4C261.33 210.74 261.04 211.07 260.67 211.1C260.29 211.15 259.9 210.81 259.9 210.4C259.9 209.99 260.29 209.64 260.67 209.7C261.04 209.73 261.33 210.06 261.31 210.4ZM261.31 210.4C261.31 210.05 260.98 209.77 260.67 209.82C260.36 209.85 260.14 210.13 260.15 210.4C260.14 210.67 260.36 210.95 260.67 210.98C260.98 211.03 261.31 210.74 261.31 210.4Z" fill="black"/>
<path d="M268.42 210.4C268.44 210.74 268.15 211.07 267.78 211.1C267.4 211.15 267.01 210.81 267.01 210.4C267.01 209.99 267.4 209.64 267.78 209.7C268.16 209.73 268.44 210.06 268.42 210.4ZM268.42 210.4C268.42 210.05 268.09 209.77 267.78 209.82C267.47 209.85 267.25 210.13 267.26 210.4C267.25 210.67 267.47 210.95 267.78 210.98C268.09 211.03 268.42 210.74 268.42 210.4Z" fill="black"/>
<path d="M250 148.98C250.11 163.37 250.08 177.77 250.12 192.16C250.08 206.55 250.1 220.95 250 235.34C249.89 220.95 249.92 206.55 249.88 192.16C249.92 177.77 249.89 163.38 250 148.98Z" fill="black"/>
</g>
<path opacity="0.2" d="M253.87 143.69H246.12V146.7H253.87V143.69Z" fill="black"/>
<path d="M243.39 132.37L244.92 136.02C242.86 136.96 241.42 138.09 241.42 138.09L239.69 134.77C239.69 134.77 241.1 133.48 243.39 132.37Z" fill="#263238"/>
<path d="M256.61 132.37L255.08 136.02C257.14 136.96 258.58 138.09 258.58 138.09L260.31 134.77C260.31 134.77 258.9 133.48 256.61 132.37Z" fill="#263238"/>
<path d="M255.01 131.67L253.46 135.38C252.37 135.01 251.19 134.77 250 134.77C248.81 134.77 247.63 135.02 246.54 135.38L244.99 131.67C246.46 131.12 248.16 130.72 250 130.72C251.85 130.72 253.55 131.12 255.01 131.67Z" fill="#263238"/>
<path d="M262.67 119.18H237.33C242.19 107.98 244.69 103.22 250 103.22C255.31 103.21 257.81 107.97 262.67 119.18Z" fill="#FFC727"/>
<path opacity="0.5" d="M262.67 119.18H237.33C242.19 107.98 244.69 103.22 250 103.22C255.31 103.21 257.81 107.97 262.67 119.18Z" fill="white"/>
<path d="M253.05 115.72H246.95V117.71H253.05V115.72Z" fill="#FFC727"/>
<path d="M268.03 235.13H231.97V269.73H268.03V235.13Z" fill="#DBDBDB"/>
<path d="M268.03 237.91L231.97 239.64V235.13H268.03V237.91Z" fill="#C7C7C7"/>
<path d="M241.93 269.73H234.3V274.64H241.93V269.73Z" fill="#263238"/>
<path d="M242.76 279.29H233.46C233.46 276.72 235.54 274.64 238.11 274.64C240.68 274.64 242.76 276.72 242.76 279.29Z" fill="#DBDBDB"/>
<path d="M265.66 269.73H258.03V274.64H265.66V269.73Z" fill="#263238"/>
<path d="M266.49 279.29H257.19C257.19 276.72 259.27 274.64 261.84 274.64C264.41 274.64 266.49 276.72 266.49 279.29Z" fill="#DBDBDB"/>
<path d="M241.28 235.35C236.45 235.02 232.87 240.59 230.48 253.23C228.31 264.66 228.77 269.73 228.77 269.73H247.34C247.34 269.73 247.34 259.73 247.34 252.41C247.34 245.39 245.61 235.64 241.28 235.35Z" fill="#263238"/>
<path d="M258.72 235.35C263.55 235.02 267.13 240.59 269.52 253.23C271.69 264.66 271.23 269.73 271.23 269.73H252.66C252.66 269.73 252.66 259.73 252.66 252.41C252.66 245.39 254.39 235.64 258.72 235.35Z" fill="#263238"/>
<path d="M253.78 252.43C253.78 252.43 252.64 264.99 252.32 269.11C251.89 274.61 251.27 277.86 250 277.86C248.75 277.86 248.11 274.61 247.68 269.11C247.35 264.99 246.22 252.43 246.22 252.43L250 246.05L253.78 252.43Z" fill="#C7C7C7"/>
</svg>
